<svg width="32" height="32" viewBox="0 0 32 32" fill="none" xmlns="http://www.w3.org/2000/svg">
<path d="M0 16C0 7.16344 7.16344 0 16 0C24.8366 0 32 7.16344 32 16C32 24.8366 24.8366 32 16 32C7.16344 32 0 24.8366 0 16Z" fill="#E8F2FB"/>
<path d="M10 15.2368C10 14.5174 10.1354 13.8403 10.4062 13.2056C10.6771 12.5708 11.0537 12.0143 11.5361 11.5361C12.0186 11.0537 12.575 10.6771 13.2056 10.4062C13.8403 10.1354 14.5195 10 15.2432 10C15.9668 10 16.6439 10.1354 17.2744 10.4062C17.9092 10.6771 18.4678 11.0537 18.9502 11.5361C19.4326 12.0143 19.8092 12.5708 20.0801 13.2056C20.3509 13.8403 20.4863 14.5174 20.4863 15.2368C20.4863 15.7785 20.4059 16.2948 20.2451 16.7856C20.0885 17.2765 19.8685 17.7272 19.585 18.1377L22.3208 20.8862C22.4224 20.992 22.4985 21.1084 22.5493 21.2354C22.6043 21.3665 22.6318 21.5062 22.6318 21.6543C22.6318 21.8574 22.5853 22.0415 22.4922 22.2065C22.3991 22.3716 22.2721 22.5007 22.1113 22.5938C21.9505 22.6911 21.7643 22.7397 21.5527 22.7397C21.4089 22.7397 21.2692 22.7144 21.1338 22.6636C20.9984 22.6128 20.8778 22.5345 20.772 22.4287L18.0107 19.6675C17.613 19.9214 17.1792 20.1224 16.7095 20.2705C16.244 20.4144 15.7552 20.4863 15.2432 20.4863C14.5195 20.4863 13.8403 20.3509 13.2056 20.0801C12.575 19.8092 12.0186 19.4326 11.5361 18.9502C11.0537 18.4678 10.6771 17.9092 10.4062 17.2744C10.1354 16.6396 10 15.9604 10 15.2368ZM11.498 15.2368C11.498 15.7573 11.5933 16.244 11.7837 16.6968C11.9784 17.1496 12.2471 17.5474 12.5898 17.8901C12.9368 18.2329 13.3368 18.5016 13.7896 18.6963C14.2424 18.891 14.7269 18.9883 15.2432 18.9883C15.7594 18.9883 16.244 18.891 16.6968 18.6963C17.1496 18.5016 17.5474 18.2329 17.8901 17.8901C18.2329 17.5474 18.5016 17.1496 18.6963 16.6968C18.891 16.244 18.9883 15.7573 18.9883 15.2368C18.9883 14.7205 18.891 14.2381 18.6963 13.7896C18.5016 13.3368 18.2329 12.939 17.8901 12.5962C17.5474 12.2492 17.1496 11.9784 16.6968 11.7837C16.244 11.589 15.7594 11.4917 15.2432 11.4917C14.7269 11.4917 14.2424 11.589 13.7896 11.7837C13.3368 11.9784 12.9368 12.2492 12.5898 12.5962C12.2471 12.939 11.9784 13.3368 11.7837 13.7896C11.5933 14.2381 11.498 14.7205 11.498 15.2368Z" fill="#0F6FC6"/>
</svg>
