<svg width="32" height="32" viewBox="0 0 32 32" fill="none" xmlns="http://www.w3.org/2000/svg">
<path d="M0 16C0 7.16344 7.16344 0 16 0C24.8366 0 32 7.16344 32 16C32 24.8366 24.8366 32 16 32C7.16344 32 0 24.8366 0 16Z" fill="#D4F4E2"/>
<path d="M14.4116 21.1338C14.0731 21.1338 13.7853 20.9878 13.5483 20.6958L10.2603 16.646C10.1672 16.536 10.0994 16.4281 10.0571 16.3223C10.019 16.2165 10 16.1064 10 15.9922C10 15.7383 10.0846 15.5288 10.2539 15.3638C10.4232 15.1987 10.6369 15.1162 10.895 15.1162C11.187 15.1162 11.4325 15.241 11.6313 15.4907L14.3862 18.9819L19.7627 10.4634C19.8727 10.2941 19.987 10.1756 20.1055 10.1079C20.224 10.036 20.3721 10 20.5498 10C20.8079 10 21.0195 10.0804 21.1846 10.2412C21.3496 10.402 21.4321 10.6073 21.4321 10.8569C21.4321 10.9585 21.4152 11.0601 21.3813 11.1616C21.3475 11.2632 21.2946 11.369 21.2227 11.479L15.2812 20.6704C15.0781 20.9793 14.7882 21.1338 14.4116 21.1338Z" fill="#0D9668"/>
</svg>
