<svg width="32" height="32" viewBox="0 0 32 32" fill="none" xmlns="http://www.w3.org/2000/svg">
<path d="M0 16C0 7.16344 7.16344 0 16 0C24.8366 0 32 7.16344 32 16C32 24.8366 24.8366 32 16 32C7.16344 32 0 24.8366 0 16Z" fill="#FEE2E2"/>
<path d="M12.4976 16.4839C12.341 16.4839 12.2077 16.431 12.0977 16.3252C11.9919 16.2194 11.939 16.0882 11.939 15.9316C11.939 15.7793 11.9919 15.6502 12.0977 15.5444C12.2077 15.4386 12.341 15.3857 12.4976 15.3857H15.0684V11.8691C15.0684 11.7126 15.1213 11.5814 15.2271 11.4756C15.3328 11.3698 15.4619 11.3169 15.6143 11.3169C15.7708 11.3169 15.902 11.3698 16.0078 11.4756C16.1136 11.5814 16.1665 11.7126 16.1665 11.8691V15.9316C16.1665 16.0882 16.1136 16.2194 16.0078 16.3252C15.902 16.431 15.7708 16.4839 15.6143 16.4839H12.4976ZM15.6206 22.2412C14.7065 22.2412 13.8496 22.0677 13.0498 21.7207C12.25 21.3779 11.5454 20.904 10.936 20.2988C10.3309 19.6937 9.85693 18.9912 9.51416 18.1914C9.17139 17.3916 9 16.5347 9 15.6206C9 14.7065 9.17139 13.8496 9.51416 13.0498C9.85693 12.25 10.3309 11.5475 10.936 10.9424C11.5454 10.333 12.25 9.85693 13.0498 9.51416C13.8496 9.17139 14.7065 9 15.6206 9C16.5347 9 17.3916 9.17139 18.1914 9.51416C18.9912 9.85693 19.6937 10.333 20.2988 10.9424C20.904 11.5475 21.3779 12.25 21.7207 13.0498C22.0677 13.8496 22.2412 14.7065 22.2412 15.6206C22.2412 16.5347 22.0677 17.3916 21.7207 18.1914C21.3779 18.9912 20.904 19.6937 20.2988 20.2988C19.6937 20.904 18.9912 21.3779 18.1914 21.7207C17.3916 22.0677 16.5347 22.2412 15.6206 22.2412ZM15.6206 20.7876C16.3358 20.7876 17.0044 20.6543 17.6265 20.3877C18.2528 20.1211 18.8008 19.7508 19.2705 19.2769C19.7445 18.7987 20.1147 18.2485 20.3813 17.6265C20.6522 17.0002 20.7876 16.3315 20.7876 15.6206C20.7876 14.9054 20.6522 14.2368 20.3813 13.6147C20.1147 12.9884 19.7445 12.4383 19.2705 11.9644C18.8008 11.4904 18.2528 11.1201 17.6265 10.8535C17.0044 10.5869 16.3358 10.4536 15.6206 10.4536C14.9054 10.4536 14.2347 10.5869 13.6084 10.8535C12.9863 11.1201 12.4383 11.4904 11.9644 11.9644C11.4904 12.4383 11.1201 12.9884 10.8535 13.6147C10.5869 14.2368 10.4536 14.9054 10.4536 15.6206C10.4536 16.3315 10.5869 17.0002 10.8535 17.6265C11.1201 18.2485 11.4904 18.7987 11.9644 19.2769C12.4383 19.7508 12.9863 20.1211 13.6084 20.3877C14.2347 20.6543 14.9054 20.7876 15.6206 20.7876Z" fill="#EF4444"/>
</svg>
