<svg width="32" height="32" viewBox="0 0 32 32" fill="none" xmlns="http://www.w3.org/2000/svg">
<path d="M0 16C0 7.16344 7.16344 0 16 0C24.8366 0 32 7.16344 32 16C32 24.8366 24.8366 32 16 32C7.16344 32 0 24.8366 0 16Z" fill="#9CA3AF"/>
<path d="M14.686 9.27789C14.686 9.11285 14.722 8.99013 14.7939 8.90973C14.8701 8.82509 14.9653 8.78489 15.0796 8.78912C15.1938 8.79335 15.3123 8.8399 15.4351 8.92877L17.5044 10.4459C17.644 10.5474 17.7118 10.6701 17.7075 10.814C17.7075 10.9537 17.6398 11.0722 17.5044 11.1695L15.4287 12.6866C15.3102 12.7712 15.1938 12.8157 15.0796 12.8199C14.9653 12.8199 14.8701 12.7797 14.7939 12.6993C14.722 12.6189 14.686 12.5004 14.686 12.3438V9.27789ZM16 23.211C15.0859 23.211 14.229 23.0375 13.4292 22.6905C12.6294 22.3477 11.9248 21.8738 11.3154 21.2686C10.7103 20.6635 10.2363 19.961 9.89355 19.1612C9.55078 18.3614 9.37939 17.5045 9.37939 16.5904C9.37939 15.6763 9.55078 14.8194 9.89355 14.0196C10.2363 13.2198 10.7103 12.5173 11.3154 11.9122C11.9248 11.3028 12.6294 10.8267 13.4292 10.4839C14.2332 10.1412 15.0923 9.96978 16.0063 9.96978C16.2052 9.97402 16.3745 10.046 16.5142 10.1856C16.658 10.3253 16.73 10.4945 16.73 10.6934C16.73 10.8923 16.658 11.0637 16.5142 11.2076C16.3745 11.3515 16.2052 11.4234 16.0063 11.4234C15.2912 11.4234 14.6204 11.5567 13.9941 11.8233C13.3678 12.0899 12.8177 12.4602 12.3438 12.9341C11.8698 13.4081 11.4995 13.9582 11.2329 14.5845C10.9663 15.2066 10.833 15.8752 10.833 16.5904C10.833 17.3013 10.9663 17.9699 11.2329 18.5962C11.4995 19.2183 11.8698 19.7684 12.3438 20.2466C12.8177 20.7206 13.3657 21.0909 13.9878 21.3575C14.6141 21.6241 15.2848 21.7574 16 21.7574C16.7152 21.7574 17.3838 21.6241 18.0059 21.3575C18.6322 21.0909 19.1802 20.7206 19.6499 20.2466C20.1239 19.7684 20.4941 19.2183 20.7607 18.5962C21.0316 17.9699 21.167 17.3013 21.167 16.5904C21.167 16.0445 21.0866 15.5282 20.9258 15.0416C20.7692 14.5549 20.547 14.1042 20.2593 13.6895C19.9715 13.2748 19.6309 12.9109 19.2373 12.5977C19.0765 12.4454 18.9749 12.274 18.9326 12.0836C18.8903 11.8889 18.9368 11.7048 19.0723 11.5313C19.195 11.3705 19.36 11.2816 19.5674 11.2647C19.779 11.2478 19.9779 11.3218 20.1641 11.4869C20.6719 11.8974 21.1099 12.3713 21.478 12.9087C21.8462 13.442 22.1276 14.0217 22.3223 14.648C22.5212 15.2701 22.6206 15.9175 22.6206 16.5904C22.6206 17.5045 22.4471 18.3614 22.1001 19.1612C21.7573 19.961 21.2834 20.6635 20.6782 21.2686C20.0731 21.8738 19.3706 22.3477 18.5708 22.6905C17.771 23.0375 16.9141 23.211 16 23.211Z" fill="#1F2937"/>
</svg>
