<svg width="24" height="24" viewBox="0 0 24 24" fill="none" xmlns="http://www.w3.org/2000/svg">
<path d="M10.5083 19.0585C10.394 19.2108 10.2671 19.3018 10.1274 19.3315C9.99202 19.3653 9.8693 19.3526 9.75928 19.2934C9.64925 19.2384 9.57096 19.1453 9.52441 19.0141C9.47786 18.8829 9.48844 18.7242 9.55615 18.538L11.4287 13.536H7.77246C7.62858 13.536 7.50798 13.4916 7.41064 13.4027C7.31331 13.3096 7.26465 13.1954 7.26465 13.06C7.26465 12.9119 7.32601 12.7637 7.44873 12.6156L13.498 4.94132C13.6123 4.79321 13.7371 4.70222 13.8726 4.66837C14.0122 4.63451 14.137 4.64721 14.2471 4.70645C14.3571 4.76147 14.4333 4.85668 14.4756 4.9921C14.5221 5.12328 14.5116 5.27986 14.4438 5.46183L12.5776 10.4638H16.2275C16.3757 10.4638 16.4963 10.5103 16.5894 10.6034C16.6867 10.6923 16.7354 10.8066 16.7354 10.9462C16.7354 11.0901 16.6761 11.2361 16.5576 11.3842L10.5083 19.0585ZM10.8765 17.2621L10.6226 17.1542L14.8628 11.5492H10.8955L13.1235 6.74405L13.3774 6.85196L9.13721 12.4569H13.1108L10.8765 17.2621Z" fill="#0F6FC6"/>
</svg>
