<svg width="24" height="24" viewBox="0 0 24 24" fill="none" xmlns="http://www.w3.org/2000/svg">
<path d="M7.15186 17.978C6.44938 17.978 5.91406 17.7961 5.5459 17.4321C5.18197 17.0724 5 16.5456 5 15.8516V8.11377C5 7.42399 5.17562 6.89925 5.52686 6.53955C5.87809 6.17985 6.36475 6 6.98682 6H8.77051C8.99902 6 9.1958 6.01693 9.36084 6.05078C9.53011 6.0804 9.68245 6.13118 9.81787 6.20312C9.95752 6.27507 10.1056 6.3724 10.2622 6.49512L10.605 6.77441C10.7912 6.92253 10.9668 7.02832 11.1318 7.0918C11.2969 7.15104 11.4979 7.18066 11.7349 7.18066H17.4985C18.1968 7.18066 18.7279 7.36263 19.0918 7.72656C19.46 8.09049 19.644 8.61947 19.644 9.31348V15.8516C19.644 16.5456 19.4663 17.0724 19.1108 17.4321C18.7596 17.7961 18.2666 17.978 17.6318 17.978H7.15186ZM7.26611 16.5688H17.3779C17.653 16.5688 17.8646 16.499 18.0127 16.3594C18.1608 16.2155 18.2349 15.9976 18.2349 15.7056V9.46582C18.2349 9.1696 18.1608 8.95166 18.0127 8.81201C17.8646 8.66813 17.653 8.59619 17.3779 8.59619H11.354C11.1255 8.59619 10.9266 8.58138 10.7573 8.55176C10.5923 8.5179 10.4378 8.46501 10.2939 8.39307C10.1543 8.32113 10.0083 8.2238 9.85596 8.10107L9.51318 7.82178C9.32699 7.66943 9.15137 7.56364 8.98633 7.50439C8.82552 7.44092 8.62874 7.40918 8.396 7.40918H7.25977C6.98893 7.40918 6.77946 7.48324 6.63135 7.63135C6.48324 7.77523 6.40918 7.98258 6.40918 8.25342V15.7056C6.40918 15.9976 6.48112 16.2155 6.625 16.3594C6.77311 16.499 6.98682 16.5688 7.26611 16.5688ZM7.18359 10.4434V9.94189C7.18359 9.743 7.23226 9.59912 7.32959 9.51025C7.42692 9.41716 7.57503 9.37061 7.77393 9.37061H16.8701C17.069 9.37061 17.2171 9.41716 17.3145 9.51025C17.4118 9.59912 17.4604 9.743 17.4604 9.94189V10.4434H7.18359Z" fill="#0F6FC6"/>
</svg>
