<svg width="24" height="24" viewBox="0 0 24 24" fill="none" xmlns="http://www.w3.org/2000/svg">
<path d="M12.0032 18.4907C11.9439 18.4907 11.872 18.478 11.7874 18.4526C11.7069 18.4315 11.6244 18.3997 11.5398 18.3574C10.6215 17.8665 9.84497 17.4222 9.21021 17.0244C8.57967 16.6309 8.06974 16.2458 7.68042 15.8691C7.29533 15.4883 7.01392 15.0799 6.83618 14.644C6.66268 14.2082 6.57593 13.7004 6.57593 13.1206V8.36621C6.57593 7.95573 6.65422 7.65316 6.81079 7.4585C6.9716 7.2596 7.2255 7.08822 7.57251 6.94434C7.70369 6.88509 7.89201 6.80892 8.13745 6.71582C8.38713 6.62272 8.66219 6.52327 8.96265 6.41748C9.26733 6.30745 9.56779 6.19954 9.86401 6.09375C10.1645 5.98796 10.4353 5.89486 10.6765 5.81445C10.922 5.72982 11.1103 5.66846 11.2415 5.63037C11.3642 5.60075 11.4911 5.57324 11.6223 5.54785C11.7535 5.52246 11.8805 5.50977 12.0032 5.50977C12.1217 5.50977 12.2486 5.52246 12.384 5.54785C12.5194 5.56901 12.6464 5.59652 12.7649 5.63037C12.8918 5.67269 13.078 5.73617 13.3235 5.8208C13.5689 5.90544 13.8419 6.00065 14.1423 6.10645C14.4428 6.21224 14.7411 6.31803 15.0374 6.42383C15.3378 6.52962 15.6108 6.62907 15.8562 6.72217C16.1059 6.81104 16.2984 6.88509 16.4338 6.94434C16.7851 7.09245 17.0369 7.26383 17.1892 7.4585C17.3458 7.65316 17.4241 7.95573 17.4241 8.36621V13.1206C17.4241 13.7004 17.3373 14.2103 17.1638 14.6504C16.9945 15.0863 16.7153 15.4946 16.3259 15.8755C15.9408 16.2521 15.4309 16.6372 14.7961 17.0308C14.1614 17.4243 13.3827 17.8665 12.4602 18.3574C12.3798 18.3997 12.2973 18.4315 12.2126 18.4526C12.1322 18.478 12.0624 18.4907 12.0032 18.4907ZM12.0032 17.0244C12.0455 17.0244 12.0899 17.0138 12.1365 16.9927C12.1873 16.9715 12.2571 16.9334 12.3459 16.8784C13.0527 16.4595 13.6451 16.0977 14.1233 15.793C14.6057 15.4883 14.9908 15.2005 15.2786 14.9297C15.5706 14.6546 15.78 14.3584 15.907 14.041C16.0339 13.7236 16.0974 13.3385 16.0974 12.8857V8.57568C16.0974 8.46143 16.0805 8.37467 16.0466 8.31543C16.017 8.25618 15.9599 8.20964 15.8752 8.17578C15.6848 8.10807 15.4669 8.0319 15.2214 7.94727C14.9802 7.8584 14.7263 7.76742 14.4597 7.67432C14.1973 7.58122 13.9371 7.48812 13.679 7.39502C13.4208 7.30192 13.1796 7.21517 12.9553 7.13477C12.731 7.05013 12.5427 6.97819 12.3904 6.91895C12.3057 6.88932 12.2317 6.86816 12.1682 6.85547C12.109 6.84277 12.054 6.83643 12.0032 6.83643C11.9482 6.83643 11.891 6.84277 11.8318 6.85547C11.7725 6.86816 11.6985 6.88932 11.6096 6.91895C11.4573 6.97819 11.269 7.04801 11.0447 7.12842C10.8204 7.20882 10.5771 7.29557 10.3147 7.38867C10.0566 7.47754 9.79419 7.56852 9.52759 7.66162C9.26522 7.75472 9.01343 7.8457 8.77222 7.93457C8.53101 8.02344 8.31942 8.10384 8.13745 8.17578C8.04435 8.21387 7.98299 8.26253 7.95337 8.32178C7.92375 8.37679 7.90894 8.46143 7.90894 8.57568V12.8857C7.90894 13.3301 7.9703 13.7088 8.09302 14.022C8.21574 14.3351 8.41886 14.6271 8.70239 14.8979C8.98592 15.1646 9.3689 15.4523 9.85132 15.7612C10.338 16.0659 10.9389 16.4383 11.6541 16.8784C11.7429 16.9334 11.8127 16.9715 11.8635 16.9927C11.9143 17.0138 11.9609 17.0244 12.0032 17.0244Z" fill="#0F6FC6"/>
</svg>
