<svg width="24" height="24" viewBox="0 0 24 24" fill="none" xmlns="http://www.w3.org/2000/svg">
<path d="M10.1401 17.0051C10.0005 17.0051 9.88835 16.9649 9.80371 16.8845C9.71908 16.7999 9.67464 16.6899 9.67041 16.5544L9.47998 10.0037C9.47575 9.86825 9.51595 9.76034 9.60059 9.67993C9.68522 9.5953 9.79736 9.55298 9.93701 9.55298C10.0767 9.55298 10.1888 9.5953 10.2734 9.67993C10.3623 9.76034 10.4089 9.86613 10.4131 9.99731L10.6035 16.5481C10.6035 16.6835 10.5612 16.7935 10.4766 16.8782C10.3919 16.9628 10.2798 17.0051 10.1401 17.0051ZM12 17.0051C11.8604 17.0051 11.7461 16.9649 11.6572 16.8845C11.5726 16.7999 11.5303 16.6899 11.5303 16.5544V10.0037C11.5303 9.86825 11.5726 9.76034 11.6572 9.67993C11.7461 9.5953 11.8604 9.55298 12 9.55298C12.1439 9.55298 12.2581 9.5953 12.3428 9.67993C12.4316 9.76034 12.4761 9.86825 12.4761 10.0037V16.5544C12.4761 16.6899 12.4316 16.7999 12.3428 16.8845C12.2581 16.9649 12.1439 17.0051 12 17.0051ZM13.8662 17.0051C13.7223 17.0051 13.6081 16.9628 13.5234 16.8782C13.4388 16.7935 13.3986 16.6835 13.4028 16.5481L13.5933 10.0037C13.5975 9.86825 13.6419 9.76034 13.7266 9.67993C13.8112 9.5953 13.9233 9.55298 14.063 9.55298C14.2069 9.55298 14.319 9.5953 14.3994 9.67993C14.484 9.76034 14.5243 9.86825 14.52 10.0037L14.3359 16.5544C14.3317 16.6899 14.2852 16.7999 14.1963 16.8845C14.1117 16.9649 14.0016 17.0051 13.8662 17.0051ZM9.04199 7.69946V6.35376C9.04199 5.85441 9.19434 5.46509 9.49902 5.18579C9.80794 4.90649 10.2375 4.76685 10.7876 4.76685H13.2061C13.7562 4.76685 14.1836 4.90649 14.4883 5.18579C14.7972 5.46509 14.9517 5.85441 14.9517 6.35376V7.69946H13.6567V6.41089C13.6567 6.26278 13.606 6.14429 13.5044 6.05542C13.4071 5.96232 13.2759 5.91577 13.1108 5.91577H10.8828C10.7178 5.91577 10.5845 5.96232 10.4829 6.05542C10.3856 6.14429 10.3369 6.26278 10.3369 6.41089V7.69946H9.04199ZM6.28711 8.53101C6.11361 8.53101 5.96549 8.47176 5.84277 8.35327C5.72005 8.23478 5.65869 8.08667 5.65869 7.90894C5.65869 7.73543 5.72005 7.58944 5.84277 7.47095C5.96549 7.35246 6.11361 7.29321 6.28711 7.29321H17.7192C17.8927 7.29321 18.0387 7.35246 18.1572 7.47095C18.2799 7.58521 18.3413 7.7312 18.3413 7.90894C18.3413 8.08667 18.2821 8.23478 18.1636 8.35327C18.0451 8.47176 17.897 8.53101 17.7192 8.53101H6.28711ZM9.08008 19.2332C8.56803 19.2332 8.15967 19.0914 7.85498 18.8079C7.55029 18.5243 7.38737 18.1265 7.36621 17.6145L6.93457 8.40405H8.21045L8.63574 17.3606C8.64421 17.5468 8.70133 17.697 8.80713 17.8113C8.91716 17.9255 9.05892 17.9827 9.23242 17.9827H14.7612C14.939 17.9827 15.0807 17.9255 15.1865 17.8113C15.2965 17.7013 15.3558 17.551 15.3643 17.3606L15.7769 8.40405H17.0718L16.6401 17.6082C16.619 18.1244 16.4539 18.5243 16.145 18.8079C15.8403 19.0914 15.4341 19.2332 14.9263 19.2332H9.08008Z" fill="#DC2626"/>
</svg>
