<svg width="24" height="24" viewBox="0 0 24 24" fill="none" xmlns="http://www.w3.org/2000/svg">
<path d="M8.95947 18.9253C8.0708 18.9253 7.38525 18.6841 6.90283 18.2017C6.42464 17.7235 6.18555 17.04 6.18555 16.1514V11.2573C6.18555 10.3644 6.42464 9.67887 6.90283 9.20068C7.38525 8.72249 8.0708 8.4834 8.95947 8.4834H10.1465V9.89258H9.0166C8.5638 9.89258 8.21257 10.0174 7.96289 10.2671C7.71745 10.5125 7.59473 10.8617 7.59473 11.3145V16.0942C7.59473 16.547 7.71745 16.8962 7.96289 17.1416C8.21257 17.3913 8.5638 17.5161 9.0166 17.5161H14.9771C15.4341 17.5161 15.7853 17.3913 16.0308 17.1416C16.2762 16.8962 16.3989 16.547 16.3989 16.0942V11.3145C16.3989 10.8617 16.2762 10.5125 16.0308 10.2671C15.7853 10.0174 15.4341 9.89258 14.9771 9.89258H13.8472V8.4834H15.0342C15.9271 8.4834 16.6126 8.72249 17.0908 9.20068C17.5732 9.67887 17.8145 10.3644 17.8145 11.2573V16.1514C17.8145 17.04 17.5732 17.7235 17.0908 18.2017C16.6126 18.6841 15.9271 18.9253 15.0342 18.9253H8.95947ZM12 5.07471C12.182 5.07471 12.3343 5.13818 12.457 5.26514C12.584 5.39209 12.6475 5.54232 12.6475 5.71582V12.019L12.5269 13.9297C12.5142 14.0736 12.4591 14.1984 12.3618 14.3042C12.2645 14.4058 12.1439 14.4565 12 14.4565C11.8561 14.4565 11.7355 14.4058 11.6382 14.3042C11.5409 14.1984 11.4858 14.0736 11.4731 13.9297L11.3462 12.019V5.71582C11.3462 5.54232 11.4097 5.39209 11.5366 5.26514C11.6636 5.13818 11.818 5.07471 12 5.07471ZM9.79736 11.4414C9.97087 11.4414 10.1169 11.5049 10.2354 11.6318L11.0859 12.5332L12 13.7266L12.9141 12.5332L13.7646 11.6318C13.8747 11.5049 14.0186 11.4414 14.1963 11.4414C14.3486 11.4414 14.4819 11.4922 14.5962 11.5938C14.7104 11.6953 14.7676 11.8265 14.7676 11.9873C14.7676 12.1396 14.7062 12.2751 14.5835 12.3936L12.5015 14.3994C12.4168 14.484 12.3322 14.5433 12.2476 14.5771C12.1672 14.6068 12.0846 14.6216 12 14.6216C11.9111 14.6216 11.8265 14.6068 11.7461 14.5771C11.6657 14.5433 11.5832 14.484 11.4985 14.3994L9.41016 12.3936C9.29167 12.2751 9.23242 12.1396 9.23242 11.9873C9.23242 11.8265 9.28743 11.6953 9.39746 11.5938C9.51172 11.4922 9.64502 11.4414 9.79736 11.4414Z" fill="#4B5563"/>
</svg>
