<svg width="24" height="24" viewBox="0 0 24 24" fill="none" xmlns="http://www.w3.org/2000/svg">
<path d="M8.22087 17.3954L9.63639 15.9862H17.7931C17.9878 15.9862 18.1528 16.056 18.2882 16.1957C18.4279 16.3353 18.4977 16.5004 18.4977 16.6908C18.4977 16.8855 18.4279 17.0505 18.2882 17.1859C18.1528 17.3256 17.9878 17.3954 17.7931 17.3954H8.22087ZM7.4528 16.7987L5.86589 17.4018C5.76432 17.4441 5.67122 17.4208 5.58659 17.3319C5.50195 17.2473 5.48079 17.1521 5.52311 17.0463L6.15153 15.4975L13.445 8.204L14.7463 9.51161L7.4528 16.7987ZM15.3874 8.87685L14.0798 7.56923L14.797 6.85829C14.9748 6.68479 15.1589 6.59169 15.3493 6.579C15.5439 6.5663 15.7217 6.64247 15.8825 6.80751L16.1554 7.08046C16.3205 7.2455 16.3988 7.42324 16.3903 7.61366C16.3818 7.79986 16.2887 7.98394 16.111 8.16591L15.3874 8.87685Z" fill="#4B5563"/>
</svg>
