<svg width="24" height="24" viewBox="0 0 24 24" fill="none" xmlns="http://www.w3.org/2000/svg">
<path d="M8.45557 19.2759C7.81234 19.2759 7.32357 19.0939 6.98926 18.73C6.65918 18.3703 6.49414 17.8942 6.49414 17.3018C6.49414 16.7982 6.62321 16.2544 6.88135 15.6704C7.13949 15.0864 7.50342 14.5109 7.97314 13.9438C8.44287 13.3768 9.00146 12.8605 9.64893 12.395C10.3006 11.9253 11.02 11.5508 11.8071 11.2715C12.5942 10.9922 13.4279 10.8525 14.3081 10.8525C14.7567 10.8525 15.11 10.9583 15.3682 11.1699C15.6305 11.3773 15.7617 11.665 15.7617 12.0332C15.7617 12.1644 15.7448 12.2935 15.7109 12.4204C15.6813 12.5431 15.6496 12.6553 15.6157 12.7568C15.5819 12.8584 15.5649 12.9409 15.5649 13.0044C15.5649 13.0679 15.5946 13.0996 15.6538 13.0996C15.7342 13.0996 15.8569 13.034 16.022 12.9028C16.187 12.7674 16.3817 12.6024 16.606 12.4077C16.8302 12.2088 17.0672 12.0099 17.3169 11.811C17.5708 11.6121 17.8268 11.4471 18.085 11.3159C18.3431 11.1805 18.5843 11.1128 18.8086 11.1128C19.0837 11.1128 19.2889 11.1826 19.4243 11.3223C19.564 11.4619 19.6613 11.6354 19.7163 11.8428C19.7756 12.0459 19.8179 12.2511 19.8433 12.4585C19.8729 12.6659 19.9089 12.8394 19.9512 12.979C19.9935 13.1144 20.0739 13.1821 20.1924 13.1821C20.2812 13.1821 20.3722 13.1567 20.4653 13.106C20.5584 13.0509 20.66 13.0234 20.77 13.0234C20.9266 13.0234 21.0514 13.0806 21.1445 13.1948C21.2419 13.3091 21.2905 13.4424 21.2905 13.5947C21.2905 13.7174 21.2609 13.8254 21.2017 13.9185C21.1466 14.0116 21.0726 14.0877 20.9795 14.147C20.8398 14.2401 20.6854 14.3078 20.5161 14.3501C20.3468 14.3924 20.1882 14.4136 20.04 14.4136C19.7227 14.4136 19.4751 14.3501 19.2974 14.2231C19.1196 14.092 18.9906 13.9312 18.9102 13.7407C18.8298 13.5503 18.7726 13.3599 18.7388 13.1694C18.7049 12.979 18.6711 12.8203 18.6372 12.6934C18.6076 12.5622 18.5526 12.4966 18.4722 12.4966C18.3791 12.4966 18.2458 12.5706 18.0723 12.7188C17.8988 12.8626 17.6956 13.0425 17.4629 13.2583C17.2301 13.4699 16.9805 13.6836 16.7139 13.8994C16.4473 14.1152 16.1722 14.2951 15.8887 14.439C15.6094 14.5828 15.3364 14.6548 15.0698 14.6548C14.799 14.6548 14.5768 14.5765 14.4033 14.4199C14.2298 14.2633 14.1431 14.0518 14.1431 13.7852C14.1431 13.5905 14.1685 13.4106 14.2192 13.2456C14.27 13.0763 14.3208 12.9155 14.3716 12.7632C14.4224 12.6066 14.4478 12.4416 14.4478 12.2681C14.4478 12.1326 14.3568 12.0649 14.1748 12.0649C13.4554 12.0649 12.772 12.1834 12.1245 12.4204C11.4813 12.6574 10.8931 12.9684 10.3599 13.3535C9.83089 13.7386 9.37174 14.1576 8.98242 14.6104C8.59733 15.0632 8.29688 15.5117 8.08105 15.9561C7.86947 16.4004 7.76367 16.7961 7.76367 17.1431C7.76367 17.4181 7.8335 17.6382 7.97314 17.8032C8.11279 17.9725 8.32227 18.0571 8.60156 18.0571C9.05013 18.0571 9.46273 17.8921 9.83936 17.562C10.2202 17.2362 10.5503 16.7791 10.8296 16.1909C11.1131 15.6069 11.3332 14.9277 11.4897 14.1533C11.6463 13.3747 11.7246 12.5389 11.7246 11.646C11.7246 10.8885 11.6506 10.1818 11.5024 9.52588C11.3543 8.86995 11.1449 8.29443 10.874 7.79932C10.6032 7.3042 10.2773 6.91699 9.89648 6.6377C9.51562 6.3584 9.09456 6.21875 8.6333 6.21875C8.28206 6.21875 7.96891 6.30973 7.69385 6.4917C7.41878 6.66943 7.20296 6.91276 7.04639 7.22168C6.88981 7.5306 6.81152 7.88184 6.81152 8.27539C6.81152 8.90592 6.93848 9.48779 7.19238 10.021C7.44629 10.5542 7.7679 11.0324 8.15723 11.4556C8.55078 11.8787 8.95915 12.2448 9.38232 12.5537C9.8055 12.8584 10.1885 13.1038 10.5312 13.29C10.6455 13.3577 10.7259 13.436 10.7725 13.5249C10.8232 13.6095 10.8486 13.7005 10.8486 13.7979C10.8486 13.946 10.7915 14.0729 10.6772 14.1787C10.5672 14.2803 10.436 14.3311 10.2837 14.3311C10.1737 14.3311 10.0679 14.3057 9.96631 14.2549C9.55583 14.0518 9.14323 13.8042 8.72852 13.5122C8.3138 13.2202 7.91813 12.888 7.5415 12.5156C7.16911 12.1432 6.8348 11.7349 6.53857 11.2905C6.24658 10.8462 6.01595 10.3722 5.84668 9.86865C5.67741 9.36507 5.59277 8.8361 5.59277 8.28174C5.59277 7.65544 5.72396 7.09473 5.98633 6.59961C6.2487 6.10449 6.6084 5.71517 7.06543 5.43164C7.52246 5.14388 8.04508 5 8.6333 5C9.28076 5 9.86686 5.16927 10.3916 5.50781C10.9206 5.84635 11.3755 6.3182 11.7563 6.92334C12.1372 7.52848 12.4292 8.23519 12.6323 9.04346C12.8354 9.84749 12.937 10.715 12.937 11.646C12.937 12.742 12.8333 13.7534 12.626 14.6802C12.4229 15.6069 12.1266 16.4131 11.7373 17.0986C11.348 17.7884 10.8761 18.3237 10.3218 18.7046C9.77165 19.0854 9.14958 19.2759 8.45557 19.2759ZM2.58398 16.8955C2.42318 16.8955 2.28564 16.8341 2.17139 16.7114C2.05713 16.5929 2 16.4533 2 16.2925C2 16.1359 2.05713 15.9984 2.17139 15.8799C2.28564 15.7614 2.42318 15.7021 2.58398 15.7021H20.9541C21.1191 15.7021 21.2588 15.7593 21.373 15.8735C21.4873 15.992 21.5444 16.1317 21.5444 16.2925C21.5444 16.4533 21.4873 16.5929 21.373 16.7114C21.2588 16.8341 21.1191 16.8955 20.9541 16.8955H2.58398ZM2.31738 14.4453C2.22005 14.348 2.17139 14.2358 2.17139 14.1089C2.17139 13.9777 2.22005 13.8634 2.31738 13.7661L4.48828 11.6016C4.58138 11.5085 4.69352 11.4619 4.82471 11.4619C4.95589 11.4577 5.06803 11.5042 5.16113 11.6016C5.25846 11.6989 5.30713 11.8132 5.30713 11.9443C5.30713 12.0713 5.25846 12.1834 5.16113 12.2808L2.99023 14.4453C2.89714 14.5384 2.78499 14.5871 2.65381 14.5913C2.52262 14.5913 2.41048 14.5426 2.31738 14.4453ZM4.48828 14.4453L2.31738 12.2808C2.22005 12.1877 2.17139 12.0755 2.17139 11.9443C2.17139 11.8089 2.22005 11.6947 2.31738 11.6016C2.41048 11.5042 2.52262 11.4556 2.65381 11.4556C2.78499 11.4556 2.89714 11.5042 2.99023 11.6016L5.16113 13.7598C5.25846 13.8571 5.30713 13.9714 5.30713 14.1025C5.30713 14.2337 5.25846 14.348 5.16113 14.4453C5.06803 14.5426 4.95589 14.5913 4.82471 14.5913C4.69352 14.5913 4.58138 14.5426 4.48828 14.4453Z" fill="#4B5563"/>
</svg>
