<svg width="24" height="24" viewBox="0 0 24 24" fill="none" xmlns="http://www.w3.org/2000/svg">
<path d="M6.89648 17.3828C6.32943 17.3828 5.89779 17.2284 5.60156 16.9194C5.30957 16.6105 5.15511 16.1598 5.13818 15.5674L7.51855 13.4473C7.64974 13.3288 7.78092 13.242 7.91211 13.187C8.04329 13.1278 8.18506 13.0981 8.3374 13.0981C8.48128 13.0981 8.62516 13.1299 8.76904 13.1934C8.91715 13.2526 9.05892 13.3394 9.19434 13.4536L10.3623 14.5073L13.2251 11.9492C13.3732 11.8223 13.5256 11.7292 13.6821 11.6699C13.8387 11.6064 14.0037 11.5747 14.1772 11.5747C14.3465 11.5747 14.5116 11.6064 14.6724 11.6699C14.8332 11.7334 14.9834 11.8307 15.123 11.9619L18.8745 15.4785C18.9253 16.0964 18.7835 16.5682 18.4492 16.894C18.1191 17.2199 17.6113 17.3828 16.9258 17.3828H6.89648ZM9.51807 12.1587C9.23454 12.1587 8.9764 12.0889 8.74365 11.9492C8.5109 11.8096 8.32471 11.6234 8.18506 11.3906C8.04541 11.1536 7.97559 10.8934 7.97559 10.6099C7.97559 10.3306 8.04541 10.0745 8.18506 9.8418C8.32471 9.60482 8.5109 9.4165 8.74365 9.27686C8.9764 9.13721 9.23454 9.06738 9.51807 9.06738C9.8016 9.06738 10.0576 9.13721 10.2861 9.27686C10.5189 9.4165 10.7051 9.60482 10.8447 9.8418C10.9844 10.0745 11.0542 10.3306 11.0542 10.6099C11.0542 10.8934 10.9844 11.1536 10.8447 11.3906C10.7051 11.6234 10.5189 11.8096 10.2861 11.9492C10.0576 12.0889 9.8016 12.1587 9.51807 12.1587ZM6.61084 17.9858C5.90837 17.9858 5.37305 17.8039 5.00488 17.4399C4.64095 17.076 4.45898 16.5492 4.45898 15.8594V8.14697C4.45898 7.44873 4.64095 6.91976 5.00488 6.56006C5.37305 6.19613 5.90837 6.01416 6.61084 6.01416H17.3955C18.098 6.01416 18.6312 6.19613 18.9951 6.56006C19.359 6.92399 19.541 7.45296 19.541 8.14697V15.8594C19.541 16.5492 19.359 17.076 18.9951 17.4399C18.6312 17.8039 18.098 17.9858 17.3955 17.9858H6.61084ZM6.7251 16.5703H17.2749C17.55 16.5703 17.7616 16.5005 17.9097 16.3608C18.0578 16.217 18.1318 15.999 18.1318 15.707V8.29297C18.1318 8.00098 18.0578 7.78304 17.9097 7.63916C17.7616 7.49528 17.55 7.42334 17.2749 7.42334H6.7251C6.4458 7.42334 6.2321 7.49528 6.08398 7.63916C5.9401 7.78304 5.86816 8.00098 5.86816 8.29297V15.707C5.86816 15.999 5.9401 16.217 6.08398 16.3608C6.2321 16.5005 6.4458 16.5703 6.7251 16.5703Z" fill="#6B7280"/>
</svg>
