<svg width="24" height="24" viewBox="0 0 24 24" fill="none" xmlns="http://www.w3.org/2000/svg">
<path d="M11.9587 17.6367C11.3494 17.6367 10.7463 17.55 10.1497 17.3765C9.55298 17.203 9.0367 16.9152 8.60083 16.5132C8.37655 16.3058 8.17977 16.0519 8.0105 15.7515C7.84123 15.451 7.75659 15.1527 7.75659 14.8564C7.75659 14.6237 7.83488 14.4375 7.99146 14.2979C8.14803 14.154 8.35327 14.082 8.60718 14.082C8.9965 14.082 9.27791 14.2852 9.45142 14.6914C9.55721 15.0342 9.73071 15.3156 9.97192 15.5356C10.2131 15.7557 10.5051 15.9186 10.8479 16.0244C11.1907 16.1302 11.5694 16.1831 11.9841 16.1831C12.2973 16.1831 12.602 16.1535 12.8982 16.0942C13.1944 16.035 13.461 15.9419 13.698 15.8149C13.935 15.6838 14.1212 15.5145 14.2566 15.3071C14.3962 15.0998 14.4661 14.8459 14.4661 14.5454C14.4661 14.1984 14.3793 13.9191 14.2058 13.7075C14.0365 13.4959 13.7911 13.3245 13.4695 13.1934C13.1521 13.0579 12.7734 12.9416 12.3333 12.8442L11.1145 12.5713C10.539 12.4401 10.0058 12.256 9.51489 12.019C9.02401 11.7778 8.62834 11.4562 8.32788 11.0542C8.03166 10.6479 7.88354 10.138 7.88354 9.52441C7.88354 9.00391 7.99357 8.54476 8.21362 8.14697C8.43791 7.74919 8.74048 7.41699 9.12134 7.15039C9.50643 6.87956 9.9423 6.67855 10.429 6.54736C10.9198 6.41195 11.4277 6.34424 11.9524 6.34424C12.511 6.34424 13.0463 6.42253 13.5583 6.5791C14.0704 6.73145 14.5274 6.97477 14.9294 7.30908C15.2257 7.52913 15.4775 7.8042 15.6848 8.13428C15.8964 8.46012 16.0022 8.78809 16.0022 9.11816C16.0022 9.35091 15.9239 9.53076 15.7673 9.65771C15.615 9.78044 15.4246 9.8418 15.196 9.8418C14.9802 9.8418 14.8004 9.7889 14.6565 9.68311C14.5168 9.57308 14.4005 9.42497 14.3074 9.23877C14.2185 9.00179 14.0979 8.79443 13.9456 8.6167C13.7974 8.43473 13.6218 8.28451 13.4187 8.16602C13.2198 8.04753 12.9976 7.95866 12.7522 7.89941C12.511 7.84017 12.2507 7.81055 11.9714 7.81055C11.6667 7.81055 11.3769 7.8444 11.1018 7.91211C10.8267 7.97559 10.5813 8.07292 10.3655 8.2041C10.1497 8.33529 9.97827 8.49821 9.85132 8.69287C9.7286 8.88753 9.66724 9.11182 9.66724 9.36572C9.66724 9.67464 9.75187 9.9349 9.92114 10.1465C10.0946 10.3538 10.3316 10.5273 10.6321 10.667C10.9368 10.8024 11.288 10.9146 11.6858 11.0034L12.9045 11.2891C13.3616 11.3949 13.7911 11.5239 14.1931 11.6763C14.5951 11.8286 14.9506 12.0212 15.2595 12.2539C15.5684 12.4824 15.8097 12.7702 15.9832 13.1172C16.1567 13.46 16.2434 13.8747 16.2434 14.3613C16.2434 14.9115 16.1292 15.3918 15.9006 15.8022C15.6721 16.2085 15.359 16.547 14.9612 16.8179C14.5634 17.0929 14.1064 17.2982 13.5901 17.4336C13.0738 17.569 12.53 17.6367 11.9587 17.6367ZM11.9778 19.1348C11.8678 19.1348 11.7747 19.0946 11.6985 19.0142C11.6223 18.938 11.5842 18.847 11.5842 18.7412V5.25879C11.5842 5.15299 11.6223 5.06201 11.6985 4.98584C11.7747 4.90544 11.8678 4.86523 11.9778 4.86523C12.0836 4.86523 12.1746 4.90544 12.2507 4.98584C12.3269 5.06201 12.365 5.15299 12.365 5.25879V18.7412C12.365 18.847 12.3269 18.938 12.2507 19.0142C12.1746 19.0946 12.0836 19.1348 11.9778 19.1348Z" fill="#6B7280"/>
</svg>
