<svg width="24" height="24" viewBox="0 0 24 24" fill="none" xmlns="http://www.w3.org/2000/svg">
<path d="M8.23096 15.9155C8.04899 15.9155 7.89453 15.8499 7.76758 15.7188C7.64062 15.5833 7.57715 15.4268 7.57715 15.249C7.57715 15.0628 7.63851 14.9041 7.76123 14.7729C7.88818 14.6418 8.04476 14.5762 8.23096 14.5762H14.9214C15.1076 14.5762 15.2642 14.6418 15.3911 14.7729C15.5223 14.9041 15.5879 15.0628 15.5879 15.249C15.5879 15.431 15.5223 15.5876 15.3911 15.7188C15.2642 15.8499 15.1076 15.9155 14.9214 15.9155H8.23096ZM6.95508 12.6274C6.77311 12.6274 6.61654 12.5618 6.48535 12.4307C6.3584 12.2995 6.29492 12.1429 6.29492 11.9609C6.29492 11.779 6.3584 11.6224 6.48535 11.4912C6.61654 11.3558 6.77311 11.2881 6.95508 11.2881H16.2036C16.3856 11.2881 16.54 11.3537 16.667 11.4849C16.7939 11.616 16.8574 11.7747 16.8574 11.9609C16.8574 12.1429 16.7939 12.2995 16.667 12.4307C16.54 12.5618 16.3856 12.6274 16.2036 12.6274H6.95508ZM5.65381 9.3457C5.47607 9.3457 5.32161 9.28011 5.19043 9.14893C5.06348 9.01351 5 8.85482 5 8.67285C5 8.49089 5.06348 8.33431 5.19043 8.20312C5.31738 8.06771 5.47184 8 5.65381 8H17.4731C17.6636 8 17.8201 8.06559 17.9429 8.19678C18.0698 8.32796 18.1333 8.48665 18.1333 8.67285C18.1333 8.85905 18.0698 9.01774 17.9429 9.14893C17.8159 9.28011 17.6593 9.3457 17.4731 9.3457H5.65381Z" fill="#4B5563"/>
</svg>
