<svg width="24" height="24" viewBox="0 0 24 24" fill="none" xmlns="http://www.w3.org/2000/svg">
<path d="M16.3579 16.7065C16.3537 16.9351 16.2839 17.1064 16.1484 17.2207C16.013 17.3392 15.8649 17.3984 15.7041 17.3984C15.5433 17.3984 15.3973 17.3392 15.2661 17.2207C15.1349 17.1064 15.0651 16.9351 15.0566 16.7065L14.9551 14.5801V6.48682C14.9551 6.27523 15.0249 6.09961 15.1646 5.95996C15.3084 5.81608 15.4883 5.74414 15.7041 5.74414C15.9157 5.74414 16.0913 5.81608 16.231 5.95996C16.3748 6.09961 16.4468 6.27523 16.4468 6.48682V14.5801L16.3579 16.7065ZM12.9746 13.666L14.4219 15.1704L15.7041 16.6494L16.9736 15.1831L18.4272 13.666C18.5627 13.5264 18.734 13.4565 18.9414 13.4565C19.1572 13.4565 19.335 13.5264 19.4746 13.666C19.6143 13.8014 19.6841 13.9771 19.6841 14.1929C19.6841 14.4002 19.6058 14.5822 19.4492 14.7388L16.2563 18.0078C16.0998 18.1729 15.9136 18.2554 15.6978 18.2554C15.4862 18.2554 15.3021 18.1729 15.1455 18.0078L11.9526 14.7388C11.7961 14.5822 11.7178 14.4002 11.7178 14.1929C11.7178 13.9771 11.7876 13.8014 11.9272 13.666C12.0669 13.5264 12.2446 13.4565 12.4604 13.4565C12.6678 13.4565 12.8392 13.5264 12.9746 13.666ZM8.9502 7.29297L9.03906 9.41309V17.5063C9.03906 17.7222 8.96924 17.8999 8.82959 18.0396C8.68994 18.1834 8.51221 18.2554 8.29639 18.2554C8.08057 18.2554 7.90072 18.1834 7.75684 18.0396C7.61719 17.8999 7.54736 17.7222 7.54736 17.5063V9.41309L7.64893 7.29297C7.65739 7.06445 7.72721 6.89307 7.8584 6.77881C7.99382 6.66032 8.14193 6.60107 8.30273 6.60107C8.46354 6.60107 8.60954 6.66032 8.74072 6.77881C8.87191 6.89307 8.94173 7.06445 8.9502 7.29297ZM5.57324 10.3335C5.43359 10.4689 5.26009 10.5366 5.05273 10.5366C4.83691 10.5366 4.65918 10.4689 4.51953 10.3335C4.38411 10.1981 4.31641 10.0225 4.31641 9.80664C4.31641 9.59505 4.39258 9.41309 4.54492 9.26074L7.74414 5.98535C7.89648 5.82454 8.07845 5.74414 8.29004 5.74414C8.50586 5.74414 8.69206 5.82454 8.84863 5.98535L12.0479 9.26074C12.196 9.41309 12.27 9.59505 12.27 9.80664C12.27 10.0225 12.2002 10.1981 12.0605 10.3335C11.9251 10.4689 11.7516 10.5366 11.54 10.5366C11.3327 10.5366 11.1592 10.4689 11.0195 10.3335L9.55957 8.81641L8.29639 7.3501L7.01416 8.8291L5.57324 10.3335Z" fill="#2B376D"/>
</svg>
