<svg width="56" height="56" viewBox="0 0 56 56" fill="none" xmlns="http://www.w3.org/2000/svg">
<path d="M23.9417 33.9242C23.5863 33.9242 23.295 33.8155 23.0679 33.5983C22.8408 33.3712 22.7272 33.0898 22.7272 32.7541C22.7272 32.5665 22.7618 32.3986 22.8309 32.2505C22.9 32.1024 23.0086 31.9641 23.1567 31.8358L26.9928 28.3403C27.1607 28.1725 27.3286 28.054 27.4964 27.9849C27.6643 27.9059 27.847 27.8664 28.0444 27.8664C28.2419 27.8664 28.4197 27.9059 28.5776 27.9849C28.7455 28.054 28.9183 28.1725 29.096 28.3403L32.9321 31.8358C33.0802 31.9641 33.1889 32.1024 33.258 32.2505C33.3271 32.3986 33.3617 32.5665 33.3617 32.7541C33.3617 33.0898 33.2432 33.3712 33.0062 33.5983C32.7791 33.8155 32.4927 33.9242 32.1471 33.9242C31.9891 33.9242 31.8262 33.8847 31.6584 33.8057C31.5004 33.7267 31.3671 33.6279 31.2585 33.5094L30.3105 32.5319L28.1629 30.2362H27.8963L25.7931 32.5319L24.8304 33.5094C24.7218 33.6279 24.5836 33.7267 24.4157 33.8057C24.2577 33.8847 24.0997 33.9242 23.9417 33.9242ZM28.0444 39.2266C27.6791 39.2266 27.3582 39.1031 27.0817 38.8563C26.8151 38.6094 26.6818 38.3033 26.6818 37.938V33.6131L26.9484 29.8511C26.9682 29.4956 27.0866 29.229 27.3039 29.0513C27.5211 28.8735 27.768 28.7847 28.0444 28.7847C28.3209 28.7847 28.5628 28.8735 28.7702 29.0513C28.9874 29.229 29.1108 29.4956 29.1405 29.8511L29.3923 33.6131V37.938C29.3923 38.3033 29.259 38.6094 28.9923 38.8563C28.7257 39.1031 28.4098 39.2266 28.0444 39.2266ZM20.0908 44.1439C18.4616 44.1439 17.2224 43.7193 16.3732 42.8701C15.5339 42.0209 15.1143 40.7768 15.1143 39.1377V16.8765C15.1143 15.2472 15.5339 14.0031 16.3732 13.144C17.2224 12.285 18.4616 11.8555 20.0908 11.8555H27.3039C27.9654 11.8555 28.548 11.9048 29.0516 12.0036C29.5552 12.0924 30.0143 12.2554 30.429 12.4924C30.8536 12.7293 31.2831 13.0749 31.7176 13.5291L39.2121 21.1273C39.6663 21.5914 40.0119 22.0357 40.2489 22.4603C40.4957 22.8849 40.6636 23.3539 40.7524 23.8673C40.8413 24.3709 40.8857 24.9831 40.8857 25.7039V39.1377C40.8857 40.7768 40.4612 42.0209 39.612 42.8701C38.7628 43.7193 37.5285 44.1439 35.9092 44.1439H20.0908ZM20.4167 40.8558H35.5685C36.2498 40.8558 36.7534 40.683 37.0793 40.3374C37.415 40.0017 37.5828 39.508 37.5828 38.8563V26.326H29.9551C28.7998 26.326 27.9408 26.0446 27.3779 25.4818C26.8151 24.9189 26.5337 24.0599 26.5337 22.9046V15.1584H20.4315C19.7502 15.1584 19.2416 15.3312 18.9059 15.6768C18.5702 16.0224 18.4023 16.5161 18.4023 17.1579V38.8563C18.4023 39.508 18.5702 40.0017 18.9059 40.3374C19.2416 40.683 19.7452 40.8558 20.4167 40.8558ZM30.2365 23.5267H37.2274L29.333 15.5138V22.6232C29.333 22.9392 29.4021 23.1712 29.5404 23.3193C29.6885 23.4576 29.9205 23.5267 30.2365 23.5267Z" fill="#0F6FC6"/>
</svg>
