<svg width="24" height="24" viewBox="0 0 24 24" fill="none" xmlns="http://www.w3.org/2000/svg">
<path d="M6 11.2368C6 10.5174 6.13542 9.84033 6.40625 9.20557C6.67708 8.5708 7.05371 8.01432 7.53613 7.53613C8.01855 7.05371 8.57503 6.67708 9.20557 6.40625C9.84033 6.13542 10.5195 6 11.2432 6C11.9668 6 12.6439 6.13542 13.2744 6.40625C13.9092 6.67708 14.4678 7.05371 14.9502 7.53613C15.4326 8.01432 15.8092 8.5708 16.0801 9.20557C16.3509 9.84033 16.4863 10.5174 16.4863 11.2368C16.4863 11.7785 16.4059 12.2948 16.2451 12.7856C16.0885 13.2765 15.8685 13.7272 15.585 14.1377L18.3208 16.8862C18.4224 16.992 18.4985 17.1084 18.5493 17.2354C18.6043 17.3665 18.6318 17.5062 18.6318 17.6543C18.6318 17.8574 18.5853 18.0415 18.4922 18.2065C18.3991 18.3716 18.2721 18.5007 18.1113 18.5938C17.9505 18.6911 17.7643 18.7397 17.5527 18.7397C17.4089 18.7397 17.2692 18.7144 17.1338 18.6636C16.9984 18.6128 16.8778 18.5345 16.772 18.4287L14.0107 15.6675C13.613 15.9214 13.1792 16.1224 12.7095 16.2705C12.244 16.4144 11.7552 16.4863 11.2432 16.4863C10.5195 16.4863 9.84033 16.3509 9.20557 16.0801C8.57503 15.8092 8.01855 15.4326 7.53613 14.9502C7.05371 14.4678 6.67708 13.9092 6.40625 13.2744C6.13542 12.6396 6 11.9604 6 11.2368ZM7.49805 11.2368C7.49805 11.7573 7.59326 12.244 7.78369 12.6968C7.97835 13.1496 8.24707 13.5474 8.58984 13.8901C8.93685 14.2329 9.33675 14.5016 9.78955 14.6963C10.2424 14.891 10.7269 14.9883 11.2432 14.9883C11.7594 14.9883 12.244 14.891 12.6968 14.6963C13.1496 14.5016 13.5474 14.2329 13.8901 13.8901C14.2329 13.5474 14.5016 13.1496 14.6963 12.6968C14.891 12.244 14.9883 11.7573 14.9883 11.2368C14.9883 10.7205 14.891 10.2381 14.6963 9.78955C14.5016 9.33675 14.2329 8.93896 13.8901 8.59619C13.5474 8.24919 13.1496 7.97835 12.6968 7.78369C12.244 7.58903 11.7594 7.4917 11.2432 7.4917C10.7269 7.4917 10.2424 7.58903 9.78955 7.78369C9.33675 7.97835 8.93685 8.24919 8.58984 8.59619C8.24707 8.93896 7.97835 9.33675 7.78369 9.78955C7.59326 10.2381 7.49805 10.7205 7.49805 11.2368Z" fill="#374151"/>
</svg>
