<svg width="24" height="24" viewBox="0 0 24 24" fill="none" xmlns="http://www.w3.org/2000/svg">
<path d="M12.0032 18.4905C11.9439 18.4905 11.872 18.4778 11.7874 18.4524C11.7069 18.4312 11.6244 18.3995 11.5398 18.3572C10.6215 17.8663 9.84497 17.422 9.21021 17.0242C8.57967 16.6306 8.06974 16.2455 7.68042 15.8689C7.29533 15.488 7.01392 15.0797 6.83618 14.6438C6.66268 14.2079 6.57593 13.7001 6.57593 13.1204V8.36597C6.57593 7.95549 6.65422 7.65291 6.81079 7.45825C6.9716 7.25936 7.2255 7.08797 7.57251 6.94409C7.70369 6.88485 7.89201 6.80868 8.13745 6.71558C8.38713 6.62248 8.66219 6.52303 8.96265 6.41724C9.26733 6.30721 9.56779 6.1993 9.86401 6.09351C10.1645 5.98771 10.4353 5.89461 10.6765 5.81421C10.922 5.72957 11.1103 5.66821 11.2415 5.63013C11.3642 5.6005 11.4911 5.573 11.6223 5.54761C11.7535 5.52222 11.8805 5.50952 12.0032 5.50952C12.1217 5.50952 12.2486 5.52222 12.384 5.54761C12.5194 5.56877 12.6464 5.59627 12.7649 5.63013C12.8918 5.67244 13.078 5.73592 13.3235 5.82056C13.5689 5.90519 13.8419 6.00041 14.1423 6.1062C14.4428 6.212 14.7411 6.31779 15.0374 6.42358C15.3378 6.52938 15.6108 6.62882 15.8562 6.72192C16.1059 6.81079 16.2984 6.88485 16.4338 6.94409C16.7851 7.0922 17.0369 7.26359 17.1892 7.45825C17.3458 7.65291 17.4241 7.95549 17.4241 8.36597V13.1204C17.4241 13.7001 17.3373 14.21 17.1638 14.6501C16.9945 15.086 16.7153 15.4944 16.3259 15.8752C15.9408 16.2519 15.4309 16.637 14.7961 17.0305C14.1614 17.4241 13.3827 17.8663 12.4602 18.3572C12.3798 18.3995 12.2973 18.4312 12.2126 18.4524C12.1322 18.4778 12.0624 18.4905 12.0032 18.4905ZM12.0032 17.0242C12.0455 17.0242 12.0899 17.0136 12.1365 16.9924C12.1873 16.9713 12.2571 16.9332 12.3459 16.8782C13.0527 16.4592 13.6451 16.0974 14.1233 15.7927C14.6057 15.488 14.9908 15.2003 15.2786 14.9294C15.5706 14.6544 15.78 14.3582 15.907 14.0408C16.0339 13.7234 16.0974 13.3383 16.0974 12.8855V8.57544C16.0974 8.46118 16.0805 8.37443 16.0466 8.31519C16.017 8.25594 15.9599 8.20939 15.8752 8.17554C15.6848 8.10783 15.4669 8.03166 15.2214 7.94702C14.9802 7.85815 14.7263 7.76717 14.4597 7.67407C14.1973 7.58097 13.9371 7.48787 13.679 7.39478C13.4208 7.30168 13.1796 7.21493 12.9553 7.13452C12.731 7.04989 12.5427 6.97795 12.3904 6.9187C12.3057 6.88908 12.2317 6.86792 12.1682 6.85522C12.109 6.84253 12.054 6.83618 12.0032 6.83618C11.9482 6.83618 11.891 6.84253 11.8318 6.85522C11.7725 6.86792 11.6985 6.88908 11.6096 6.9187C11.4573 6.97795 11.269 7.04777 11.0447 7.12817C10.8204 7.20858 10.5771 7.29533 10.3147 7.38843C10.0566 7.47729 9.79419 7.56828 9.52759 7.66138C9.26522 7.75448 9.01343 7.84546 8.77222 7.93433C8.53101 8.02319 8.31942 8.1036 8.13745 8.17554C8.04435 8.21362 7.98299 8.26229 7.95337 8.32153C7.92375 8.37655 7.90894 8.46118 7.90894 8.57544V12.8855C7.90894 13.3298 7.9703 13.7086 8.09302 14.0217C8.21574 14.3349 8.41886 14.6269 8.70239 14.8977C8.98592 15.1643 9.3689 15.4521 9.85132 15.761C10.338 16.0657 10.9389 16.4381 11.6541 16.8782C11.7429 16.9332 11.8127 16.9713 11.8635 16.9924C11.9143 17.0136 11.9609 17.0242 12.0032 17.0242Z" fill="white"/>
</svg>
