<svg width="24" height="24" viewBox="0 0 24 24" fill="none" xmlns="http://www.w3.org/2000/svg">
<path d="M8.06104 17.9668C6.94808 17.9668 6.3916 17.5838 6.3916 16.8179C6.3916 16.3735 6.5249 15.9144 6.7915 15.4404C7.05811 14.9622 7.43685 14.52 7.92773 14.1138C8.42285 13.7075 9.01318 13.3796 9.69873 13.1299C10.3885 12.876 11.1545 12.749 11.9966 12.749C12.8429 12.749 13.6089 12.876 14.2944 13.1299C14.9842 13.3796 15.5745 13.7075 16.0654 14.1138C16.5605 14.52 16.9414 14.9622 17.208 15.4404C17.4746 15.9144 17.6079 16.3735 17.6079 16.8179C17.6079 17.5838 17.0514 17.9668 15.9385 17.9668H8.06104ZM7.92139 16.7607H16.0781C16.1458 16.7607 16.1924 16.748 16.2178 16.7227C16.2474 16.7015 16.2622 16.6634 16.2622 16.6084C16.2622 16.3757 16.167 16.109 15.9766 15.8086C15.7904 15.5081 15.5153 15.2183 15.1514 14.939C14.7874 14.6554 14.341 14.4206 13.812 14.2344C13.283 14.0482 12.6779 13.9551 11.9966 13.9551C11.3195 13.9551 10.7144 14.0482 10.1812 14.2344C9.65218 14.4206 9.20573 14.6554 8.8418 14.939C8.47786 15.2183 8.20068 15.5081 8.01025 15.8086C7.82406 16.109 7.73096 16.3757 7.73096 16.6084C7.73096 16.6634 7.74577 16.7015 7.77539 16.7227C7.80501 16.748 7.85368 16.7607 7.92139 16.7607ZM11.9966 12.0381C11.4803 12.0381 11.0106 11.9027 10.5874 11.6318C10.1642 11.361 9.82568 10.9971 9.57178 10.54C9.3221 10.0788 9.19727 9.57096 9.19727 9.0166C9.19727 8.46647 9.32422 7.96712 9.57812 7.51855C9.83203 7.06576 10.1706 6.70605 10.5938 6.43945C11.0169 6.16862 11.4845 6.0332 11.9966 6.0332C12.5171 6.0332 12.9889 6.1665 13.4121 6.43311C13.8353 6.69971 14.1717 7.05729 14.4214 7.50586C14.6753 7.95443 14.8022 8.45378 14.8022 9.00391C14.8022 9.5625 14.6753 10.0724 14.4214 10.5337C14.1717 10.9907 13.8353 11.3568 13.4121 11.6318C12.9889 11.9027 12.5171 12.0381 11.9966 12.0381ZM11.9966 10.8384C12.2843 10.8384 12.5446 10.7601 12.7773 10.6035C13.0143 10.4427 13.2026 10.2227 13.3423 9.94336C13.4862 9.66406 13.5581 9.35091 13.5581 9.00391C13.5581 8.66536 13.4862 8.36279 13.3423 8.09619C13.2026 7.82959 13.0143 7.62012 12.7773 7.46777C12.5446 7.3112 12.2843 7.23291 11.9966 7.23291C11.7173 7.23291 11.4591 7.3112 11.2222 7.46777C10.9894 7.62012 10.8011 7.83171 10.6572 8.10254C10.5133 8.36914 10.4414 8.67171 10.4414 9.01025C10.4414 9.36149 10.5133 9.67464 10.6572 9.94971C10.8011 10.2248 10.9894 10.4427 11.2222 10.6035C11.4591 10.7601 11.7173 10.8384 11.9966 10.8384Z" fill="#2B376D"/>
</svg>
