<svg width="24" height="24" viewBox="0 0 24 24" fill="none" xmlns="http://www.w3.org/2000/svg">
<path d="M12.0034 15.323C11.7537 15.323 11.5252 15.2214 11.3179 15.0183L6.53809 10.1306C6.45768 10.046 6.39632 9.955 6.354 9.85767C6.31592 9.76034 6.29688 9.65243 6.29688 9.53394C6.29688 9.37736 6.33496 9.23348 6.41113 9.10229C6.4873 8.97111 6.58887 8.86743 6.71582 8.79126C6.84701 8.71509 6.99089 8.677 7.14746 8.677C7.38444 8.677 7.5918 8.76375 7.76953 8.93726L12.2954 13.5837H11.7178L16.231 8.93726C16.4087 8.76375 16.616 8.677 16.853 8.677C17.0096 8.677 17.1514 8.71509 17.2783 8.79126C17.4095 8.86743 17.5132 8.97111 17.5894 9.10229C17.6655 9.23348 17.7036 9.37736 17.7036 9.53394C17.7036 9.76668 17.6211 9.96346 17.4561 10.1243L12.689 15.0183C12.5874 15.1199 12.4795 15.196 12.3652 15.2468C12.2552 15.2934 12.1346 15.3188 12.0034 15.323Z" fill="#6B7280"/>
</svg>
