<svg width="24" height="24" viewBox="0 0 24 24" fill="none" xmlns="http://www.w3.org/2000/svg">
<path d="M13.3423 16.7639C13.3423 17.0136 13.283 17.24 13.1646 17.4431C13.0418 17.6462 12.8789 17.8092 12.6758 17.9319C12.4727 18.0504 12.2484 18.1096 12.0029 18.1096C11.7533 18.1096 11.5269 18.0504 11.3237 17.9319C11.1206 17.8092 10.9598 17.6462 10.8413 17.4431C10.7186 17.24 10.6572 17.0136 10.6572 16.7639C10.6572 16.5185 10.7186 16.2942 10.8413 16.0911C10.9598 15.8879 11.1206 15.7271 11.3237 15.6086C11.5269 15.4859 11.7533 15.4246 12.0029 15.4246C12.2484 15.4246 12.4727 15.4859 12.6758 15.6086C12.8789 15.7271 13.0418 15.8879 13.1646 16.0911C13.283 16.2942 13.3423 16.5185 13.3423 16.7639ZM13.3423 12.0032C13.3423 12.2486 13.283 12.4729 13.1646 12.676C13.0418 12.8792 12.8789 13.0421 12.6758 13.1648C12.4727 13.2833 12.2484 13.3425 12.0029 13.3425C11.7533 13.3425 11.5269 13.2833 11.3237 13.1648C11.1206 13.0421 10.9598 12.8792 10.8413 12.676C10.7186 12.4729 10.6572 12.2486 10.6572 12.0032C10.6572 11.7577 10.7186 11.5334 10.8413 11.3303C10.9598 11.123 11.1206 10.96 11.3237 10.8416C11.5269 10.7188 11.7533 10.6575 12.0029 10.6575C12.2484 10.6575 12.4727 10.7188 12.6758 10.8416C12.8789 10.96 13.0418 11.123 13.1646 11.3303C13.283 11.5334 13.3423 11.7577 13.3423 12.0032ZM13.3423 7.23608C13.3423 7.48576 13.283 7.71216 13.1646 7.91528C13.0418 8.11841 12.8789 8.28133 12.6758 8.40405C12.4727 8.52254 12.2484 8.58179 12.0029 8.58179C11.7533 8.58179 11.5269 8.52254 11.3237 8.40405C11.1206 8.28133 10.9598 8.11841 10.8413 7.91528C10.7186 7.71216 10.6572 7.48576 10.6572 7.23608C10.6572 6.99064 10.7186 6.76636 10.8413 6.56323C10.9598 6.36011 11.1206 6.19718 11.3237 6.07446C11.5269 5.95174 11.7533 5.89038 12.0029 5.89038C12.2484 5.89038 12.4727 5.95174 12.6758 6.07446C12.8789 6.19718 13.0418 6.36011 13.1646 6.56323C13.283 6.76636 13.3423 6.99064 13.3423 7.23608Z" fill="#2B376D"/>
</svg>
