<svg width="24" height="24" viewBox="0 0 24 24" fill="none" xmlns="http://www.w3.org/2000/svg">
<path d="M8.95947 18.9253C8.0708 18.9253 7.38525 18.6841 6.90283 18.2017C6.42464 17.7235 6.18555 17.04 6.18555 16.1514V11.2573C6.18555 10.3644 6.42464 9.67887 6.90283 9.20068C7.38525 8.72249 8.0708 8.4834 8.95947 8.4834H10.1465V9.89258H9.0166C8.5638 9.89258 8.21257 10.0174 7.96289 10.2671C7.71745 10.5125 7.59473 10.8617 7.59473 11.3145V16.0942C7.59473 16.547 7.71745 16.8962 7.96289 17.1416C8.21257 17.3913 8.5638 17.5161 9.0166 17.5161H14.9771C15.4341 17.5161 15.7853 17.3913 16.0308 17.1416C16.2762 16.8962 16.3989 16.547 16.3989 16.0942V11.3145C16.3989 10.8617 16.2762 10.5125 16.0308 10.2671C15.7853 10.0174 15.4341 9.89258 14.9771 9.89258H13.8472V8.4834H15.0342C15.9271 8.4834 16.6126 8.72249 17.0908 9.20068C17.5732 9.67887 17.8145 10.3644 17.8145 11.2573V16.1514C17.8145 17.04 17.5732 17.7235 17.0908 18.2017C16.6126 18.6841 15.9271 18.9253 15.0342 18.9253H8.95947Z" fill="white"/>
<path d="M12 13.6216C11.818 13.6216 11.6657 13.5581 11.543 13.4312C11.416 13.3042 11.3525 13.154 11.3525 12.9805V6.67725L11.4731 4.7666C11.4858 4.62272 11.5409 4.49788 11.6382 4.39209C11.7355 4.29053 11.8561 4.23975 12 4.23975C12.1439 4.23975 12.2645 4.29053 12.3618 4.39209C12.4591 4.49788 12.5142 4.62272 12.5269 4.7666L12.6538 6.67725V12.9805C12.6538 13.154 12.5903 13.3042 12.4634 13.4312C12.3364 13.5581 12.182 13.6216 12 13.6216ZM14.2026 7.25488C14.0291 7.25488 13.8831 7.19141 13.7646 7.06445L12.9141 6.16309L12 4.96973L11.0859 6.16309L10.2354 7.06445C10.1253 7.19141 9.98145 7.25488 9.80371 7.25488C9.65137 7.25488 9.51807 7.2041 9.40381 7.10254C9.28955 7.00098 9.23242 6.86979 9.23242 6.70898C9.23242 6.55664 9.29378 6.42122 9.4165 6.30273L11.4985 4.29688C11.5832 4.21224 11.6678 4.153 11.7524 4.11914C11.8328 4.08952 11.9154 4.07471 12 4.07471C12.0889 4.07471 12.1735 4.08952 12.2539 4.11914C12.3343 4.153 12.4168 4.21224 12.5015 4.29688L14.5898 6.30273C14.7083 6.42122 14.7676 6.55664 14.7676 6.70898C14.7676 6.86979 14.7126 7.00098 14.6025 7.10254C14.4883 7.2041 14.355 7.25488 14.2026 7.25488Z" fill="white"/>
</svg>
