<svg width="24" height="24" viewBox="0 0 24 24" fill="none" xmlns="http://www.w3.org/2000/svg">
<path d="M10.4116 17.1338C10.0731 17.1338 9.78532 16.9878 9.54834 16.6958L6.26025 12.646C6.16715 12.536 6.09945 12.4281 6.05713 12.3223C6.01904 12.2165 6 12.1064 6 11.9922C6 11.7383 6.08464 11.5288 6.25391 11.3638C6.42318 11.1987 6.63688 11.1162 6.89502 11.1162C7.18701 11.1162 7.43245 11.241 7.63135 11.4907L10.3862 14.9819L15.7627 6.46338C15.8727 6.29411 15.987 6.17562 16.1055 6.10791C16.224 6.03597 16.3721 6 16.5498 6C16.8079 6 17.0195 6.0804 17.1846 6.24121C17.3496 6.40202 17.4321 6.60726 17.4321 6.85693C17.4321 6.9585 17.4152 7.06006 17.3813 7.16162C17.3475 7.26318 17.2946 7.36898 17.2227 7.479L11.2812 16.6704C11.0781 16.9793 10.7882 17.1338 10.4116 17.1338Z" fill="#6B7280"/>
</svg>
