<svg width="24" height="24" viewBox="0 0 24 24" fill="none" xmlns="http://www.w3.org/2000/svg">
<path d="M7.75 23C9.82 23 11.5 21.3573 11.5 19.3333V15.6667H7.75C5.68 15.6667 4 17.3093 4 19.3333C4 21.3573 5.68 23 7.75 23Z" fill="#0ACF83"/>
<path d="M4 12C4 9.976 5.68 8.33333 7.75 8.33333H11.5V15.6667H7.75C5.68 15.6667 4 14.024 4 12Z" fill="#A259FF"/>
<path d="M4 4.66667C4 2.64267 5.68 1 7.75 1H11.5V8.33333H7.75C5.68 8.33333 4 6.69067 4 4.66667Z" fill="#F24E1E"/>
<path d="M11.5 1H15.25C17.32 1 19 2.64267 19 4.66667C19 6.69067 17.32 8.33333 15.25 8.33333H11.5V1Z" fill="#FF7262"/>
<path d="M19 12C19 14.024 17.32 15.6667 15.25 15.6667C13.18 15.6667 11.5 14.024 11.5 12C11.5 9.976 13.18 8.33333 15.25 8.33333C17.32 8.33333 19 9.976 19 12Z" fill="#1ABCFE"/>
</svg>
