<svg width="24" height="24" viewBox="0 0 24 24" fill="none" xmlns="http://www.w3.org/2000/svg">
<path d="M4.47368 21.7059C4.82105 21.902 5.18772 22 5.57368 22H18.4263C18.7737 22 19.1404 21.902 19.5263 21.7059V15.5882H2.91053" fill="#4285F4"/>
<path d="M8.52632 2.29412C8.87368 2.09804 9.25965 2 9.68421 2H14.3158C14.7789 2 15.1649 2.09804 15.4737 2.29412V8.41176H11.5368" fill="#188038"/>
<path d="M1 15.5882C1 15.1961 1.09649 14.8235 1.28947 14.4706L7.65789 3.23529C7.88947 2.80392 8.17895 2.4902 8.52632 2.29412L12 8.41176L7.83158 15.7647" fill="#34A853"/>
<path d="M15.4737 2.29412C15.8596 2.52941 16.1491 2.84314 16.3421 3.23529L22.5368 14.1765C22.8456 14.6471 23 15.1176 23 15.5882L16.1684 15.7647L12 8.41176" fill="#FBBC04"/>
<path d="M7.93081 15.5882H1C1 15.902 1.05789 16.1961 1.17368 16.4706L3.48947 20.5882C3.75965 21.098 4.08772 21.4706 4.47368 21.7059" fill="#1967D2"/>
<path d="M19.5263 21.7059C19.8737 21.5098 20.1825 21.1765 20.4526 20.7059L22.6526 16.8235C22.8842 16.4314 23 16.0196 23 15.5882H16.07" fill="#EA4335"/>
</svg>
