<svg width="48" height="48" viewBox="0 0 48 48" fill="none" xmlns="http://www.w3.org/2000/svg">
<path d="M0 24C0 10.7452 10.7452 0 24 0C37.2548 0 48 10.7452 48 24C48 37.2548 37.2548 48 24 48C10.7452 48 0 37.2548 0 24Z" fill="#0F6FC6"/>
<path d="M17.3377 29.1685C17.1304 28.9188 17.0182 28.6776 17.0013 28.4448C16.9886 28.2163 17.069 28.0238 17.2425 27.8672C17.3737 27.7572 17.5155 27.6958 17.6678 27.6831C17.8201 27.6662 17.9746 27.6471 18.1312 27.626C18.2878 27.6048 18.4422 27.535 18.5946 27.4165C18.7215 27.3192 18.8083 27.1859 18.8548 27.0166C18.9014 26.8473 18.9479 26.659 18.9945 26.4517C19.041 26.2401 19.1172 26.0243 19.223 25.8042C19.333 25.5841 19.5086 25.3747 19.7498 25.1758C20.118 24.8669 20.5137 24.687 20.9368 24.6362C21.3643 24.5812 21.7853 24.6489 22.2 24.8394C22.619 25.0256 22.9998 25.3281 23.3426 25.7471C23.715 26.1956 23.9435 26.6654 24.0282 27.1562C24.117 27.6471 24.0662 28.1253 23.8758 28.5908C23.6896 29.0563 23.3701 29.4753 22.9173 29.8477C22.5111 30.1777 22.0561 30.4062 21.5526 30.5332C21.0532 30.6602 20.5412 30.6877 20.0164 30.6157C19.4959 30.548 19.0029 30.3914 18.5374 30.146C18.0719 29.9048 17.672 29.5789 17.3377 29.1685ZM18.9183 28.8574C19.1299 29.0605 19.3711 29.2108 19.6419 29.3081C19.9128 29.4097 20.1921 29.4604 20.4798 29.4604C20.7718 29.4604 21.0553 29.4097 21.3304 29.3081C21.6097 29.2108 21.8636 29.0669 22.0921 28.8765C22.3545 28.6564 22.5449 28.4131 22.6634 28.1465C22.7861 27.8799 22.8284 27.609 22.7904 27.334C22.7565 27.0547 22.638 26.7944 22.4349 26.5532C22.2529 26.3374 22.054 26.1808 21.8382 26.0835C21.6224 25.9862 21.4045 25.9502 21.1844 25.9756C20.9686 25.9967 20.7718 26.0814 20.5941 26.2295C20.4206 26.3776 20.2936 26.5384 20.2132 26.7119C20.137 26.8854 20.0757 27.0632 20.0291 27.2451C19.9868 27.4271 19.9318 27.6069 19.8641 27.7847C19.7964 27.9624 19.68 28.1317 19.515 28.2925C19.4388 28.3729 19.3584 28.4321 19.2738 28.4702C19.1934 28.5125 19.1193 28.5464 19.0516 28.5718C18.9881 28.5972 18.9394 28.6226 18.9056 28.6479C18.876 28.6776 18.8612 28.7114 18.8612 28.7495C18.8654 28.7876 18.8844 28.8236 18.9183 28.8574ZM23.6854 27.5181L23.4505 26.2041C23.696 26.1872 23.9287 26.1216 24.1488 26.0073C24.3688 25.8888 24.6164 25.6942 24.8914 25.4233C25.2004 25.1144 25.5304 24.7568 25.8817 24.3506C26.2329 23.9443 26.5884 23.5169 26.9481 23.0684C27.312 22.6156 27.6611 22.1691 27.9954 21.729C28.334 21.2847 28.6429 20.8678 28.9222 20.4785C29.2057 20.0892 29.4448 19.7528 29.6395 19.4692C29.8384 19.1857 29.9759 18.9805 30.0521 18.8535C30.0944 18.7943 30.105 18.7393 30.0838 18.6885C30.0669 18.6335 30.033 18.5975 29.9823 18.5806C29.9315 18.5594 29.8786 18.57 29.8236 18.6123C29.6966 18.7012 29.4914 18.8472 29.2078 19.0503C28.9243 19.2534 28.5858 19.4967 28.1922 19.7803C27.8029 20.0638 27.3861 20.3727 26.9417 20.707C26.4974 21.0413 26.0488 21.3862 25.596 21.7417C25.1432 22.0972 24.7137 22.4484 24.3075 22.7954C23.9012 23.1424 23.5415 23.4725 23.2283 23.7856C22.9364 24.0734 22.7332 24.3379 22.619 24.5791C22.5047 24.8161 22.4582 25.0615 22.4793 25.3154L21.1463 24.9409C21.1844 24.5685 21.2987 24.2131 21.4891 23.8745C21.6838 23.5317 21.963 23.1784 22.327 22.8145C22.6782 22.4548 23.0866 22.0781 23.5521 21.6846C24.0218 21.2868 24.5127 20.8869 25.0247 20.4849C25.541 20.0828 26.0467 19.6999 26.5418 19.3359C27.0412 18.972 27.4982 18.6419 27.9129 18.3457C28.3319 18.0495 28.6768 17.8083 28.9476 17.6221C29.2184 17.4316 29.3835 17.3153 29.4427 17.2729C29.7008 17.091 29.9611 17 30.2235 17C30.4901 17 30.7313 17.0656 30.9471 17.1968C31.1672 17.328 31.3428 17.5015 31.474 17.7173C31.6051 17.9331 31.6686 18.1743 31.6644 18.4409C31.6644 18.7033 31.5734 18.9614 31.3914 19.2153C31.3449 19.2746 31.2264 19.4417 31.036 19.7168C30.8455 19.9919 30.6022 20.3389 30.306 20.7578C30.0098 21.1725 29.6776 21.6296 29.3094 22.1289C28.9455 22.6283 28.5625 23.1361 28.1605 23.6523C27.7585 24.1686 27.3564 24.6616 26.9544 25.1313C26.5566 25.5968 26.1821 26.0073 25.8309 26.3628C25.4712 26.7225 25.1178 26.9976 24.7708 27.188C24.4281 27.3742 24.0662 27.4842 23.6854 27.5181ZM24.8089 25.709C24.792 25.4889 24.7243 25.271 24.6058 25.0552C24.4915 24.8394 24.3434 24.6426 24.1615 24.4648C23.9837 24.2871 23.7869 24.1432 23.5711 24.0332C23.3595 23.9232 23.1458 23.8639 22.93 23.8555L23.241 22.8843C23.55 22.8927 23.8525 22.9731 24.1488 23.1255C24.4492 23.2778 24.72 23.4788 24.9613 23.7285C25.2067 23.974 25.4014 24.249 25.5452 24.5537C25.6934 24.8584 25.7716 25.1673 25.7801 25.4805L24.8089 25.709Z" fill="white"/>
</svg>
