<svg width="24" height="24" viewBox="0 0 24 24" fill="none" xmlns="http://www.w3.org/2000/svg">
<path d="M14.9987 1.05271L2.8192 1.94953C1.85294 2.03632 1.5 2.67278 1.5 3.44231V16.7906C1.5 17.3865 1.71987 17.913 2.22325 18.5958L5.08152 22.3104C5.5444 22.9063 5.98413 23.0336 6.88674 22.9931L21.0219 22.1368C22.208 22.05 22.561 21.5003 22.561 20.5514V5.53684C22.561 5.05082 22.3642 4.92352 21.8146 4.50115L17.8165 1.68916C16.8676 1.00642 16.4741 0.919629 14.9987 1.05271ZM7.1934 5.29383C6.04778 5.38062 5.78741 5.38062 5.12781 4.85409L3.45566 3.53489C3.28208 3.36131 3.36887 3.14144 3.8086 3.1183L15.5078 2.26198C16.4972 2.17519 17.0006 2.52813 17.3767 2.81164L19.3787 4.26392C19.4655 4.31021 19.6853 4.57058 19.425 4.57058L7.35541 5.29383H7.1934ZM5.85105 20.4184V7.68922C5.85105 7.13955 6.02463 6.8734 6.5338 6.8329L20.4086 6.01707C20.8714 5.97079 21.0913 6.28323 21.0913 6.8329V19.4753C21.0913 20.0249 21.0045 20.5109 20.235 20.5514L6.95618 21.321C6.18664 21.3673 5.85684 21.1011 5.85684 20.4184H5.85105ZM18.9563 8.37197C19.0431 8.76541 18.9563 9.1415 18.5628 9.18779L17.9264 9.32087V18.7289C17.3767 19.0355 16.8502 19.1917 16.4336 19.1917C15.7509 19.1917 15.5773 18.9719 15.0681 18.3354L10.8906 11.7625V18.1155L12.2098 18.4222C12.2098 18.4222 12.2098 19.1917 11.1336 19.1917L8.18859 19.3653C8.1018 19.1917 8.18859 18.7694 8.49524 18.6826L9.26478 18.4627V10.0441L8.18859 9.95732C8.1018 9.56388 8.32167 9.01421 8.91184 8.96792L12.0768 8.74805L16.4278 15.4077V9.51759L15.3285 9.38451C15.2417 8.92163 15.5946 8.56869 16.0112 8.52819L18.9563 8.35461V8.37197Z" fill="black"/>
</svg>
