<svg width="24" height="24" viewBox="0 0 24 24" fill="none" xmlns="http://www.w3.org/2000/svg">
<path d="M14.8669 9.25691L19.6543 8.02487C19.8169 7.98135 19.9686 7.99495 20.1095 8.06566C20.2558 8.13638 20.3641 8.24245 20.4346 8.38387C20.505 8.51986 20.5186 8.67216 20.4752 8.84079L19.2398 13.6547C19.191 13.8397 19.1043 13.9865 18.9797 14.0953C18.855 14.1987 18.7169 14.2503 18.5651 14.2503C18.4188 14.2449 18.2807 14.1769 18.1506 14.0464L14.4768 10.3502C14.3467 10.2197 14.279 10.0783 14.2736 9.92596C14.2736 9.77366 14.325 9.63767 14.428 9.518C14.5364 9.39289 14.6827 9.30586 14.8669 9.25691ZM8.08001 11.2151C8.29134 11.2151 8.49725 11.2614 8.69774 11.3538C8.90365 11.4463 9.10414 11.5959 9.29921 11.8026L12.1359 14.7725C12.2063 14.8432 12.2768 14.8786 12.3472 14.8786C12.3851 14.8786 12.4204 14.8704 12.4529 14.8541C12.4908 14.8324 12.5287 14.8052 12.5667 14.7725L16.4437 10.799C16.6117 10.6249 16.8176 10.5406 17.0615 10.5461C17.3053 10.5461 17.5139 10.6304 17.6873 10.799C17.8499 10.9622 17.9312 11.1662 17.9312 11.4109C17.9312 11.6557 17.8499 11.8624 17.6873 12.031L13.5664 16.1922C13.1709 16.5893 12.7645 16.7879 12.3472 16.7879C12.1359 16.7879 11.9273 16.7416 11.7214 16.6492C11.5154 16.5512 11.3177 16.3989 11.128 16.1922L8.29134 13.2304C8.22631 13.1543 8.15587 13.1162 8.08001 13.1162C8.00957 13.1162 7.93912 13.1543 7.86868 13.2304L4.48743 16.7389C4.31945 16.913 4.11354 17 3.8697 17C3.62586 16.9946 3.41995 16.9075 3.25197 16.7389C3.08399 16.5648 3 16.3581 3 16.1188C3 15.874 3.08399 15.6673 3.25197 15.4987L6.86081 11.8026C7.06672 11.5904 7.26721 11.4409 7.46228 11.3538C7.66277 11.2614 7.86868 11.2151 8.08001 11.2151Z" fill="#10B981"/>
</svg>
