<svg width="24" height="24" viewBox="0 0 24 24" fill="none" xmlns="http://www.w3.org/2000/svg">
<path d="M13.7314 12.8013C13.8457 12.8013 13.9409 12.8415 14.0171 12.9219C14.0975 12.998 14.1377 13.0933 14.1377 13.2075C14.1377 13.3218 14.0975 13.4212 14.0171 13.5059C13.9409 13.5863 13.8457 13.6265 13.7314 13.6265H9.20557C9.08708 13.6265 8.98763 13.5863 8.90723 13.5059C8.82682 13.4212 8.78662 13.3218 8.78662 13.2075C8.78662 13.0933 8.82682 12.998 8.90723 12.9219C8.98763 12.8415 9.08708 12.8013 9.20557 12.8013H13.7314ZM13.7314 14.8706C13.8457 14.8706 13.9409 14.9108 14.0171 14.9912C14.0975 15.0716 14.1377 15.1711 14.1377 15.2896C14.1377 15.3996 14.0975 15.4948 14.0171 15.5752C13.9409 15.6514 13.8457 15.6895 13.7314 15.6895H9.20557C9.08708 15.6895 8.98763 15.6514 8.90723 15.5752C8.82682 15.4948 8.78662 15.3996 8.78662 15.2896C8.78662 15.1711 8.82682 15.0716 8.90723 14.9912C8.98763 14.9108 9.08708 14.8706 9.20557 14.8706H13.7314ZM8.13281 18.8379C7.43457 18.8379 6.90348 18.6559 6.53955 18.292C6.17985 17.9281 6 17.3949 6 16.6924V7.15186C6 6.45361 6.17985 5.92041 6.53955 5.55225C6.90348 5.18408 7.43457 5 8.13281 5H11.2241C11.5076 5 11.7573 5.02116 11.9731 5.06348C12.189 5.10156 12.3857 5.17139 12.5635 5.27295C12.7454 5.37451 12.9295 5.52262 13.1157 5.71729L16.3276 8.97363C16.5223 9.17253 16.6704 9.36296 16.772 9.54492C16.8778 9.72689 16.9497 9.9279 16.9878 10.1479C17.0259 10.3638 17.0449 10.6261 17.0449 10.9351V16.6924C17.0449 17.3949 16.863 17.9281 16.499 18.292C16.1351 18.6559 15.6061 18.8379 14.9121 18.8379H8.13281ZM8.27246 17.4287H14.7661C15.0581 17.4287 15.2739 17.3547 15.4136 17.2065C15.5575 17.0627 15.6294 16.8511 15.6294 16.5718V11.2017H12.3604C11.8652 11.2017 11.4971 11.0811 11.2559 10.8398C11.0146 10.5986 10.894 10.2305 10.894 9.73535V6.41553H8.27881C7.98682 6.41553 7.76888 6.48958 7.625 6.6377C7.48112 6.78581 7.40918 6.9974 7.40918 7.27246V16.5718C7.40918 16.8511 7.48112 17.0627 7.625 17.2065C7.76888 17.3547 7.9847 17.4287 8.27246 17.4287ZM12.481 10.002H15.4771L12.0938 6.56787V9.61475C12.0938 9.75016 12.1234 9.84961 12.1826 9.91309C12.2461 9.97233 12.3455 10.002 12.481 10.002Z" fill="#6366F1"/>
</svg>
