<svg width="24" height="24" viewBox="0 0 24 24" fill="none" xmlns="http://www.w3.org/2000/svg">
<path d="M7.15186 17.9653C6.44938 17.9653 5.91406 17.7834 5.5459 17.4194C5.18197 17.0597 5 16.5329 5 15.8389V8.12646C5 7.43245 5.18197 6.9056 5.5459 6.5459C5.91406 6.18197 6.44938 6 7.15186 6H15.9307C16.6331 6 17.1663 6.18197 17.5303 6.5459C17.8942 6.9056 18.0762 7.43245 18.0762 8.12646V15.8389C18.0762 16.5329 17.8942 17.0597 17.5303 17.4194C17.1663 17.7834 16.6331 17.9653 15.9307 17.9653H7.15186ZM7.18994 16.5562H15.8799C16.1338 16.5562 16.3285 16.4927 16.4639 16.3657C16.5993 16.2345 16.667 16.0356 16.667 15.769V9.99268C16.667 9.73031 16.5993 9.53564 16.4639 9.40869C16.3285 9.27751 16.1338 9.21191 15.8799 9.21191H7.18994C6.94027 9.21191 6.74772 9.27751 6.6123 9.40869C6.47689 9.53564 6.40918 9.73031 6.40918 9.99268V15.769C6.40918 16.0356 6.47689 16.2345 6.6123 16.3657C6.74772 16.4927 6.94027 16.5562 7.18994 16.5562ZM10.332 11.3511C10.2178 11.3511 10.1374 11.3299 10.0908 11.2876C10.0443 11.241 10.021 11.1628 10.021 11.0527V10.6782C10.021 10.564 10.0443 10.4857 10.0908 10.4434C10.1374 10.401 10.2178 10.3799 10.332 10.3799H10.7002C10.8145 10.3799 10.8949 10.401 10.9414 10.4434C10.988 10.4857 11.0112 10.564 11.0112 10.6782V11.0527C11.0112 11.1628 10.988 11.241 10.9414 11.2876C10.8949 11.3299 10.8145 11.3511 10.7002 11.3511H10.332ZM12.3823 11.3511C12.2681 11.3511 12.1877 11.3299 12.1411 11.2876C12.0988 11.241 12.0776 11.1628 12.0776 11.0527V10.6782C12.0776 10.564 12.0988 10.4857 12.1411 10.4434C12.1877 10.401 12.2681 10.3799 12.3823 10.3799H12.7568C12.8711 10.3799 12.9494 10.401 12.9917 10.4434C13.0382 10.4857 13.0615 10.564 13.0615 10.6782V11.0527C13.0615 11.1628 13.0382 11.241 12.9917 11.2876C12.9494 11.3299 12.8711 11.3511 12.7568 11.3511H12.3823ZM14.4326 11.3511C14.3184 11.3511 14.238 11.3299 14.1914 11.2876C14.1449 11.241 14.1216 11.1628 14.1216 11.0527V10.6782C14.1216 10.564 14.1449 10.4857 14.1914 10.4434C14.238 10.401 14.3184 10.3799 14.4326 10.3799H14.8008C14.9193 10.3799 14.9997 10.401 15.042 10.4434C15.0885 10.4857 15.1118 10.564 15.1118 10.6782V11.0527C15.1118 11.1628 15.0885 11.241 15.042 11.2876C14.9997 11.3299 14.9193 11.3511 14.8008 11.3511H14.4326ZM8.28174 13.3696C8.16325 13.3696 8.08073 13.3485 8.03418 13.3062C7.99186 13.2596 7.9707 13.1792 7.9707 13.0649V12.6968C7.9707 12.5825 7.99186 12.5042 8.03418 12.4619C8.08073 12.4196 8.16325 12.3984 8.28174 12.3984H8.65625C8.77051 12.3984 8.8488 12.4196 8.89111 12.4619C8.93343 12.5042 8.95459 12.5825 8.95459 12.6968V13.0649C8.95459 13.1792 8.93343 13.2596 8.89111 13.3062C8.8488 13.3485 8.77051 13.3696 8.65625 13.3696H8.28174ZM10.332 13.3696C10.2178 13.3696 10.1374 13.3485 10.0908 13.3062C10.0443 13.2596 10.021 13.1792 10.021 13.0649V12.6968C10.021 12.5825 10.0443 12.5042 10.0908 12.4619C10.1374 12.4196 10.2178 12.3984 10.332 12.3984H10.7002C10.8145 12.3984 10.8949 12.4196 10.9414 12.4619C10.988 12.5042 11.0112 12.5825 11.0112 12.6968V13.0649C11.0112 13.1792 10.988 13.2596 10.9414 13.3062C10.8949 13.3485 10.8145 13.3696 10.7002 13.3696H10.332ZM12.3823 13.3696C12.2681 13.3696 12.1877 13.3485 12.1411 13.3062C12.0988 13.2596 12.0776 13.1792 12.0776 13.0649V12.6968C12.0776 12.5825 12.0988 12.5042 12.1411 12.4619C12.1877 12.4196 12.2681 12.3984 12.3823 12.3984H12.7568C12.8711 12.3984 12.9494 12.4196 12.9917 12.4619C13.0382 12.5042 13.0615 12.5825 13.0615 12.6968V13.0649C13.0615 13.1792 13.0382 13.2596 12.9917 13.3062C12.9494 13.3485 12.8711 13.3696 12.7568 13.3696H12.3823ZM14.4326 13.3696C14.3184 13.3696 14.238 13.3485 14.1914 13.3062C14.1449 13.2596 14.1216 13.1792 14.1216 13.0649V12.6968C14.1216 12.5825 14.1449 12.5042 14.1914 12.4619C14.238 12.4196 14.3184 12.3984 14.4326 12.3984H14.8008C14.9193 12.3984 14.9997 12.4196 15.042 12.4619C15.0885 12.5042 15.1118 12.5825 15.1118 12.6968V13.0649C15.1118 13.1792 15.0885 13.2596 15.042 13.3062C14.9997 13.3485 14.9193 13.3696 14.8008 13.3696H14.4326ZM8.28174 15.3882C8.16325 15.3882 8.08073 15.367 8.03418 15.3247C7.99186 15.2824 7.9707 15.202 7.9707 15.0835V14.7153C7.9707 14.6011 7.99186 14.5228 8.03418 14.4805C8.08073 14.4382 8.16325 14.417 8.28174 14.417H8.65625C8.77051 14.417 8.8488 14.4382 8.89111 14.4805C8.93343 14.5228 8.95459 14.6011 8.95459 14.7153V15.0835C8.95459 15.202 8.93343 15.2824 8.89111 15.3247C8.8488 15.367 8.77051 15.3882 8.65625 15.3882H8.28174ZM10.332 15.3882C10.2178 15.3882 10.1374 15.367 10.0908 15.3247C10.0443 15.2824 10.021 15.202 10.021 15.0835V14.7153C10.021 14.6011 10.0443 14.5228 10.0908 14.4805C10.1374 14.4382 10.2178 14.417 10.332 14.417H10.7002C10.8145 14.417 10.8949 14.4382 10.9414 14.4805C10.988 14.5228 11.0112 14.6011 11.0112 14.7153V15.0835C11.0112 15.202 10.988 15.2824 10.9414 15.3247C10.8949 15.367 10.8145 15.3882 10.7002 15.3882H10.332ZM12.3823 15.3882C12.2681 15.3882 12.1877 15.367 12.1411 15.3247C12.0988 15.2824 12.0776 15.202 12.0776 15.0835V14.7153C12.0776 14.6011 12.0988 14.5228 12.1411 14.4805C12.1877 14.4382 12.2681 14.417 12.3823 14.417H12.7568C12.8711 14.417 12.9494 14.4382 12.9917 14.4805C13.0382 14.5228 13.0615 14.6011 13.0615 14.7153V15.0835C13.0615 15.202 13.0382 15.2824 12.9917 15.3247C12.9494 15.367 12.8711 15.3882 12.7568 15.3882H12.3823Z" fill="#0F6FC6"/>
</svg>
