<svg width="24" height="24" viewBox="0 0 24 24" fill="none" xmlns="http://www.w3.org/2000/svg">
<path d="M10.1687 17.7732V13.825C10.1687 13.6768 10.2131 13.5583 10.302 13.4695C10.3951 13.3806 10.5178 13.3362 10.6702 13.3362H13.3362C13.4843 13.3362 13.6028 13.3806 13.6917 13.4695C13.7847 13.5583 13.8313 13.6768 13.8313 13.825V17.7732H10.1687ZM4.84302 12.2952C4.62297 12.2952 4.44735 12.2296 4.31616 12.0984C4.18498 11.963 4.11938 11.8 4.11938 11.6096C4.11938 11.3896 4.2146 11.2013 4.40503 11.0447L11.0193 5.49048C11.3197 5.23234 11.6456 5.10327 11.9968 5.10327C12.3523 5.10327 12.6803 5.23234 12.9807 5.49048L19.595 11.0447C19.7854 11.2013 19.8806 11.3896 19.8806 11.6096C19.8806 11.8 19.815 11.963 19.6838 12.0984C19.5569 12.2296 19.3792 12.2952 19.1506 12.2952C19.0448 12.2952 18.9433 12.2719 18.8459 12.2253C18.7486 12.1746 18.6576 12.1132 18.573 12.0413L12.3015 6.7854C12.2084 6.70077 12.1069 6.65845 11.9968 6.65845C11.891 6.65845 11.7916 6.70077 11.6985 6.7854L5.427 12.0413C5.34237 12.1132 5.25138 12.1746 5.15405 12.2253C5.05672 12.2719 4.95304 12.2952 4.84302 12.2952ZM15.9514 8.37866V6.94409C15.9514 6.79598 15.9958 6.67961 16.0847 6.59497C16.1736 6.5061 16.2878 6.46167 16.4275 6.46167H17.4177C17.5658 6.46167 17.6822 6.5061 17.7668 6.59497C17.8515 6.67961 17.8938 6.79598 17.8938 6.94409V10.01L15.9514 8.37866ZM7.70581 18.8967C7.20223 18.8967 6.80868 18.7592 6.52515 18.4841C6.24585 18.2091 6.1062 17.8282 6.1062 17.3416V10.2449L7.51538 9.28638V16.8718C7.51538 17.0707 7.56616 17.2209 7.66772 17.3225C7.77352 17.4283 7.92375 17.4812 8.11841 17.4812H15.8816C16.0763 17.4812 16.2244 17.4283 16.3259 17.3225C16.4317 17.2209 16.4846 17.0707 16.4846 16.8718V9.28638L17.8938 10.2449V17.3416C17.8938 17.824 17.7542 18.2027 17.4749 18.4778C17.1956 18.7571 16.802 18.8967 16.2942 18.8967H7.70581Z" fill="#0F6FC6"/>
</svg>
