<svg width="24" height="24" viewBox="0 0 24 24" fill="none" xmlns="http://www.w3.org/2000/svg">
<path d="M11.3345 17.9336C10.2215 17.9336 9.66504 17.5506 9.66504 16.7847C9.66504 16.3403 9.79834 15.8812 10.0649 15.4072C10.3315 14.929 10.7103 14.4868 11.2012 14.0806C11.6963 13.6743 12.2866 13.3464 12.9722 13.0967C13.6619 12.8428 14.4279 12.7158 15.27 12.7158C16.1164 12.7158 16.8823 12.8428 17.5679 13.0967C18.2576 13.3464 18.848 13.6743 19.3389 14.0806C19.834 14.4868 20.2148 14.929 20.4814 15.4072C20.748 15.8812 20.8813 16.3403 20.8813 16.7847C20.8813 17.5506 20.3228 17.9336 19.2056 17.9336H11.3345ZM11.1948 16.7275H19.3452C19.4172 16.7275 19.4658 16.7148 19.4912 16.6895C19.5208 16.6683 19.5356 16.6302 19.5356 16.5752C19.5356 16.3424 19.4404 16.0758 19.25 15.7754C19.0638 15.4749 18.7887 15.1851 18.4248 14.9058C18.0609 14.6222 17.6144 14.3874 17.0854 14.2012C16.5565 14.015 15.9513 13.9219 15.27 13.9219C14.5887 13.9219 13.9836 14.015 13.4546 14.2012C12.9256 14.3874 12.4792 14.6222 12.1152 14.9058C11.7513 15.1851 11.4741 15.4749 11.2837 15.7754C11.0975 16.0758 11.0044 16.3424 11.0044 16.5752C11.0044 16.6302 11.0192 16.6683 11.0488 16.6895C11.0785 16.7148 11.1271 16.7275 11.1948 16.7275ZM15.2764 12.0049C14.7559 12.0049 14.284 11.8695 13.8608 11.5986C13.4377 11.3278 13.0991 10.9639 12.8452 10.5068C12.5955 10.0456 12.4707 9.53776 12.4707 8.9834C12.4707 8.43327 12.5977 7.93392 12.8516 7.48535C13.1055 7.03255 13.444 6.67285 13.8672 6.40625C14.2904 6.13542 14.7601 6 15.2764 6C15.7926 6 16.2624 6.1333 16.6855 6.3999C17.1087 6.6665 17.4451 7.02409 17.6948 7.47266C17.9487 7.92122 18.0757 8.42057 18.0757 8.9707C18.0757 9.5293 17.9487 10.0392 17.6948 10.5005C17.4451 10.9575 17.1087 11.3236 16.6855 11.5986C16.2624 11.8695 15.7926 12.0049 15.2764 12.0049ZM15.2764 10.8052C15.5599 10.8052 15.818 10.7248 16.0508 10.564C16.2878 10.3989 16.4761 10.1789 16.6157 9.90381C16.7596 9.62451 16.8315 9.31348 16.8315 8.9707C16.8315 8.63639 16.7617 8.33594 16.6221 8.06934C16.4824 7.80273 16.2941 7.59115 16.0571 7.43457C15.8201 7.27799 15.5599 7.19971 15.2764 7.19971C14.9928 7.19971 14.7326 7.27799 14.4956 7.43457C14.2629 7.59115 14.0745 7.80485 13.9307 8.07568C13.7868 8.34652 13.7148 8.64697 13.7148 8.97705C13.7148 9.31982 13.7868 9.63086 13.9307 9.91016C14.0745 10.1852 14.2629 10.4032 14.4956 10.564C14.7326 10.7248 14.9928 10.8052 15.2764 10.8052ZM4.41553 17.9336C3.9458 17.9336 3.59245 17.832 3.35547 17.6289C3.11849 17.4258 3 17.1253 3 16.7275C3 16.2028 3.12695 15.6992 3.38086 15.2168C3.63477 14.7344 3.98389 14.3049 4.42822 13.9282C4.87679 13.5516 5.39518 13.2554 5.9834 13.0396C6.57585 12.8195 7.2085 12.7095 7.88135 12.7095C8.20296 12.7095 8.52458 12.7391 8.84619 12.7983C9.16781 12.8534 9.48096 12.9359 9.78564 13.0459C10.0903 13.1517 10.376 13.2829 10.6426 13.4395C10.4479 13.5664 10.2765 13.7039 10.1284 13.8521C9.98454 13.9959 9.8597 14.1546 9.75391 14.3281C9.58464 14.235 9.39632 14.1567 9.18896 14.0933C8.98161 14.0256 8.76579 13.9748 8.5415 13.9409C8.32145 13.9028 8.1014 13.8838 7.88135 13.8838C7.38623 13.8838 6.92074 13.96 6.48486 14.1123C6.04899 14.2646 5.66178 14.4699 5.32324 14.728C4.98893 14.9862 4.72656 15.2782 4.53613 15.604C4.34993 15.9256 4.25684 16.2578 4.25684 16.6006C4.25684 16.6514 4.26742 16.6895 4.28857 16.7148C4.31396 16.7402 4.35628 16.7529 4.41553 16.7529H8.75732C8.73193 16.9772 8.77002 17.2015 8.87158 17.4258C8.97738 17.6543 9.12337 17.8236 9.30957 17.9336H4.41553ZM7.8877 12.0874C7.43913 12.0874 7.02865 11.9689 6.65625 11.7319C6.28809 11.4907 5.99398 11.1691 5.77393 10.7671C5.55387 10.3651 5.44385 9.91862 5.44385 9.42773C5.44385 8.94531 5.55387 8.50732 5.77393 8.11377C5.99821 7.71598 6.29443 7.3986 6.6626 7.16162C7.03076 6.92464 7.43913 6.80615 7.8877 6.80615C8.33626 6.80615 8.74463 6.92464 9.11279 7.16162C9.48519 7.39437 9.78141 7.70964 10.0015 8.10742C10.2215 8.50098 10.3315 8.93685 10.3315 9.41504C10.3315 9.90592 10.2215 10.3545 10.0015 10.7607C9.78141 11.167 9.48519 11.4907 9.11279 11.7319C8.74463 11.9689 8.33626 12.0874 7.8877 12.0874ZM7.8877 10.9004C8.11621 10.9004 8.32568 10.8348 8.51611 10.7036C8.71077 10.5724 8.86523 10.3947 8.97949 10.1704C9.09798 9.94613 9.15723 9.69434 9.15723 9.41504C9.15723 9.14844 9.09798 8.90934 8.97949 8.69775C8.86523 8.48193 8.71289 8.31055 8.52246 8.18359C8.33203 8.05241 8.12044 7.98682 7.8877 7.98682C7.65918 7.98682 7.44759 8.05241 7.25293 8.18359C7.0625 8.31055 6.91016 8.48405 6.7959 8.7041C6.68164 8.91992 6.62451 9.16113 6.62451 9.42773C6.62451 9.7028 6.68164 9.95247 6.7959 10.1768C6.91439 10.401 7.06885 10.5788 7.25928 10.71C7.44971 10.8369 7.65918 10.9004 7.8877 10.9004Z" fill="#0F6FC6"/>
</svg>
