<svg width="24" height="24" viewBox="0 0 24 24" fill="none" xmlns="http://www.w3.org/2000/svg">
<path d="M11.6616 18.8857C10.244 18.8857 8.97445 18.6382 7.85303 18.1431C7.51449 18.3758 7.12939 18.5578 6.69775 18.689C6.26611 18.8201 5.84082 18.8857 5.42188 18.8857C5.19759 18.8857 5.02409 18.8244 4.90137 18.7017C4.77865 18.5789 4.7194 18.4329 4.72363 18.2637C4.7321 18.0944 4.81673 17.9378 4.97754 17.7939C5.13835 17.6458 5.25049 17.4998 5.31396 17.356C5.37744 17.2078 5.40918 17.0386 5.40918 16.8481C5.40918 16.6789 5.37109 16.5054 5.29492 16.3276C5.22298 16.1457 5.11296 15.9404 4.96484 15.7119C4.77865 15.4284 4.61149 15.1216 4.46338 14.7915C4.3195 14.4572 4.20524 14.0954 4.12061 13.7061C4.0402 13.3167 4 12.8936 4 12.4365C4 11.5013 4.19043 10.6423 4.57129 9.85938C4.95215 9.07227 5.48535 8.39095 6.1709 7.81543C6.86068 7.23568 7.67106 6.78923 8.60205 6.47607C9.53727 6.15869 10.5571 6 11.6616 6C12.7619 6 13.7775 6.15869 14.7085 6.47607C15.6395 6.78923 16.4499 7.23568 17.1396 7.81543C17.8337 8.39095 18.3711 9.07227 18.752 9.85938C19.1328 10.6423 19.3232 11.5013 19.3232 12.4365C19.3232 13.3675 19.1328 14.2266 18.752 15.0137C18.3711 15.7965 17.8358 16.4779 17.146 17.0576C16.4604 17.6374 15.6501 18.0859 14.7148 18.4033C13.7839 18.7249 12.7661 18.8857 11.6616 18.8857ZM11.6616 17.4956C12.5841 17.4956 13.4284 17.3708 14.1943 17.1211C14.9645 16.8672 15.6289 16.5138 16.1875 16.061C16.7461 15.604 17.1756 15.0687 17.4761 14.4551C17.7808 13.8372 17.9331 13.1644 17.9331 12.4365C17.9331 11.7087 17.7808 11.0379 17.4761 10.4243C17.1756 9.81071 16.7461 9.27751 16.1875 8.82471C15.6289 8.36768 14.9645 8.01432 14.1943 7.76465C13.4284 7.51497 12.5841 7.39014 11.6616 7.39014C10.7349 7.39014 9.88851 7.51497 9.12256 7.76465C8.35661 8.01432 7.69434 8.36556 7.13574 8.81836C6.57715 9.27116 6.14551 9.80648 5.84082 10.4243C5.54036 11.0379 5.39014 11.7087 5.39014 12.4365C5.39014 12.9147 5.45573 13.3696 5.58691 13.8013C5.7181 14.2329 5.90853 14.6286 6.1582 14.9883C6.3571 15.2887 6.50732 15.5744 6.60889 15.8452C6.71468 16.1118 6.76758 16.3657 6.76758 16.6069C6.76758 16.7254 6.75277 16.8333 6.72314 16.9307C6.69352 17.0238 6.65755 17.119 6.61523 17.2163C6.74219 17.1867 6.86279 17.1465 6.97705 17.0957C7.09554 17.0407 7.20345 16.9836 7.30078 16.9243C7.50391 16.8185 7.69645 16.7593 7.87842 16.7466C8.06038 16.7297 8.26139 16.7699 8.48145 16.8672C8.93848 17.0703 9.43359 17.2269 9.9668 17.3369C10.5 17.4427 11.0649 17.4956 11.6616 17.4956Z" fill="white"/>
</svg>
