<svg width="24" height="24" viewBox="0 0 24 24" fill="none" xmlns="http://www.w3.org/2000/svg">
<path d="M12.0032 15.323C11.7535 15.323 11.525 15.2214 11.3176 15.0183L6.53784 10.1306C6.45744 10.046 6.39608 9.955 6.35376 9.85767C6.31567 9.76034 6.29663 9.65243 6.29663 9.53394C6.29663 9.37736 6.33472 9.23348 6.41089 9.10229C6.48706 8.97111 6.58862 8.86743 6.71558 8.79126C6.84676 8.71509 6.99064 8.677 7.14722 8.677C7.3842 8.677 7.59155 8.76375 7.76929 8.93726L12.2952 13.5837H11.7175L16.2307 8.93726C16.4084 8.76375 16.6158 8.677 16.8528 8.677C17.0094 8.677 17.1511 8.71509 17.2781 8.79126C17.4093 8.86743 17.5129 8.97111 17.5891 9.10229C17.6653 9.23348 17.7034 9.37736 17.7034 9.53394C17.7034 9.76668 17.6208 9.96346 17.4558 10.1243L12.6887 15.0183C12.5872 15.1199 12.4792 15.196 12.365 15.2468C12.255 15.2934 12.1344 15.3188 12.0032 15.323Z" fill="#4B5563"/>
</svg>
