<svg width="24" height="24" viewBox="0 0 24 24" fill="none" xmlns="http://www.w3.org/2000/svg">
<path d="M6.53784 13.8757L11.3176 8.98804C11.5165 8.78068 11.745 8.677 12.0032 8.677C12.1344 8.677 12.255 8.70451 12.365 8.75952C12.4792 8.8103 12.5872 8.88647 12.6887 8.98804L17.4558 13.8757C17.6208 14.0323 17.7034 14.2291 17.7034 14.4661C17.7034 14.6269 17.6653 14.7729 17.5891 14.9041C17.5129 15.031 17.4093 15.1326 17.2781 15.2087C17.1511 15.2849 17.0094 15.323 16.8528 15.323C16.6073 15.323 16.4 15.2362 16.2307 15.0627L11.7175 10.4226H12.2952L7.76929 15.0627C7.60002 15.2362 7.39266 15.323 7.14722 15.323C6.99064 15.323 6.84676 15.2849 6.71558 15.2087C6.58862 15.1326 6.48706 15.031 6.41089 14.9041C6.33472 14.7729 6.29663 14.6269 6.29663 14.4661C6.29663 14.3518 6.31567 14.2439 6.35376 14.1423C6.39608 14.0408 6.45744 13.9519 6.53784 13.8757Z" fill="white"/>
</svg>
