<svg width="240" height="48" viewBox="0 0 240 48" fill="none" xmlns="http://www.w3.org/2000/svg">
<g clip-path="url(#clip0_32_1080)">
<path d="M173.796 10.47C172.756 9.91124 171.46 9.63184 169.907 9.63184H156.819C155.266 9.63184 153.892 9.91971 152.698 10.4921C151.502 11.0661 150.563 11.8806 149.881 12.9339C149.198 13.9889 148.793 15.2606 148.67 16.749L147.365 31.8674C147.209 33.3253 147.389 34.5649 147.901 35.5894C148.412 36.6122 149.205 37.4029 150.276 37.9618C151.346 38.5206 152.657 38.7983 154.211 38.7983H167.251C168.802 38.7983 170.161 38.5189 171.326 37.9618C172.49 37.4029 173.422 36.6054 174.122 35.5657C174.819 34.5276 175.246 33.2949 175.402 31.8674L176.707 16.749C176.861 15.2301 176.676 13.9431 176.148 12.8882C175.619 11.8349 174.835 11.0272 173.796 10.47ZM169.721 18.5186L168.65 29.9623C168.587 30.8615 168.355 31.505 167.952 31.8928C167.549 32.2805 166.942 32.4736 166.136 32.4736H156.589C155.75 32.4736 155.137 32.2568 154.749 31.8216C154.361 31.3881 154.197 30.7684 154.26 29.9606L155.33 18.5169C155.391 17.6482 155.656 17.0047 156.121 16.5865C156.587 16.1682 157.27 15.9582 158.171 15.9582H167.393C168.232 15.9582 168.845 16.1597 169.233 16.5628C169.621 16.9658 169.783 17.6177 169.722 18.5169L169.721 18.5186Z" fill="#2B376D"/>
<path d="M124.434 17.5889C124.465 17.0928 124.659 16.6982 125.017 16.4019C125.372 16.1072 125.801 15.9599 126.297 15.9599H144.228L144.833 9.63351H125.086C123.658 9.63351 122.423 9.8655 121.383 10.3312C120.343 10.7969 119.513 11.4877 118.891 12.4022C118.27 13.3166 117.914 14.4562 117.821 15.8211L117.402 20.3339C117.279 21.9155 117.565 23.1652 118.265 24.0779C118.962 24.9923 120.026 25.6205 121.454 25.9626C121.671 26.0252 121.92 26.0862 122.2 26.1489L136.869 28.4281H136.915C137.195 28.4908 137.412 28.6533 137.567 28.9175C137.722 29.1817 137.754 29.4678 137.661 29.7777V30.6617C137.598 31.2205 137.412 31.6624 137.102 31.9876C136.792 32.3127 136.356 32.4769 135.797 32.4769H117.121L116.562 38.8033H137.008C138.343 38.8033 139.531 38.5629 140.571 38.082C141.611 37.6011 142.465 36.9034 143.132 35.989C143.799 35.0746 144.181 34.0281 144.274 32.8495L144.692 28.2435C144.846 26.5688 144.545 25.2429 143.784 24.2658C143.024 23.2888 141.836 22.6775 140.222 22.4285L140.129 22.3828L125.318 20.0561H125.273C124.93 19.9935 124.683 19.8309 124.527 19.5668C124.371 19.3043 124.31 19.0164 124.341 18.7065L124.434 17.5906V17.5889Z" fill="#2B376D"/>
<path d="M232.501 38.8017H239.998L229.845 9.63351H222.625L207.256 38.8017H214.801L217.474 33.6843H230.77L232.499 38.8017H232.501ZM220.78 27.3579L225.547 18.2307L228.634 27.3579H220.78Z" fill="#2B376D"/>
<path d="M87.7985 38.8017H94.6912L95.7161 27.2648H112.995L113.554 20.9384H96.2751L96.6952 15.9599H115.883L116.488 9.63351H90.4072L87.7985 38.8017Z" fill="#2B376D"/>
<path d="M206.908 25.0075C207.543 23.9695 207.94 22.752 208.096 21.3567L208.514 16.1936C208.638 14.7983 208.445 13.6112 207.931 12.6341C207.42 11.6571 206.634 10.9137 205.58 10.4006C204.525 9.88921 203.251 9.63351 201.762 9.63351H181.084L178.475 38.8017H185.368L186.299 28.2419H194.691L199.385 38.8017H206.697L202.192 28.1149C202.971 27.9828 203.69 27.7457 204.345 27.4036C205.416 26.8448 206.27 26.0473 206.907 25.0075H206.908ZM187.372 15.9599H199.621C200.054 15.9599 200.427 16.0378 200.739 16.1919C201.049 16.3477 201.281 16.5712 201.437 16.8659C201.591 17.1605 201.638 17.5093 201.576 17.9124L201.437 19.9596C201.374 20.6116 201.142 21.1077 200.739 21.4481C200.336 21.7902 199.792 21.9595 199.109 21.9595H186.86L187.372 15.9582V15.9599Z" fill="#2B376D"/>
<path d="M58.3184 38.8017H84.5393L85.0983 32.4753H65.7701L66.2817 27.1242H83.3281L83.8397 20.7521H66.795L67.2134 15.9599H86.5416L87.1463 9.63351H60.9271L58.3184 38.8017Z" fill="#2B376D"/>
<path d="M36.422 16.3494C36.998 17.5347 38.3853 18.1257 39.6202 17.6092C41.3142 16.8455 43.0099 16.0852 44.7174 15.352C45.5627 14.8508 45.6762 13.8178 45.2459 12.9762C44.8309 12.077 43.9839 11.3591 42.9591 11.5555C41.1584 12.0499 39.3848 12.6528 37.6264 13.281C36.378 13.7552 35.8918 15.164 36.422 16.3494Z" fill="#2B376D"/>
<path d="M0.989255 18.9589L1.10275 19.0283L1.15188 19.0401L1.25521 19.0317C1.37209 18.9893 1.47881 18.9182 1.5669 18.8302C5.06325 15.2809 10.0096 12.9898 14.4953 10.9916C15.6997 10.4328 16.6653 9.14075 16.4857 7.77252C16.2418 6.53975 14.9086 6.24341 13.8702 6.72263C9.58954 8.58702 4.85489 10.8477 1.81422 14.5172C1.18406 15.4096 0.868983 16.5492 0.770733 17.6313C0.694504 18.0902 0.769039 18.5694 0.985867 18.9606L0.989255 18.9589Z" fill="#2B376D"/>
<path d="M11.1819 18.334C11.5884 19.7124 13.0673 20.3847 14.3716 19.7547C22.7957 15.6365 31.7043 11.9467 40.8501 9.77915C41.7868 9.52853 42.0748 8.58872 41.6242 7.76913C41.1211 6.85472 40.1505 6.26373 39.1019 6.28236C29.9849 7.28822 21.0154 10.7207 12.8098 14.6763C11.4851 15.3317 10.7923 16.915 11.1819 18.334Z" fill="#2B376D"/>
<path d="M2.91191 26.623C3.79447 25.7763 3.77753 24.3505 3.52343 23.2261C3.36251 22.332 2.77978 21.2974 1.80575 21.7529C1.20439 22.2999 0.623357 22.8875 0.208335 23.5868C-0.118602 24.5368 -0.00510569 25.5731 0.167679 26.5519C0.264236 27.1429 0.4709 27.7135 0.772427 28.2249L0.818164 28.2554L0.980785 28.296C1.01466 28.291 1.04516 28.2791 1.07395 28.2588L1.12138 28.2148C1.65668 27.6221 2.27498 27.1073 2.91191 26.623Z" fill="#2B376D"/>
<path d="M6.30324 18.3238C5.19199 19.118 4.81932 20.6183 5.13101 21.907C5.40205 23.0551 6.47602 24.0372 7.6635 23.4124C8.85097 22.6233 9.21348 21.062 8.86113 19.7361C8.57316 18.5931 7.46869 17.6787 6.30324 18.3255V18.3238Z" fill="#2B376D"/>
<path d="M10.5788 31.4576C15.1915 29.1326 19.8414 26.8804 24.5049 24.6621C25.8838 23.9881 26.5343 22.3253 25.9076 20.9147C25.2503 19.5075 23.5648 18.9165 22.1469 19.5278C17.3022 21.7377 12.471 23.9983 7.81257 26.5841C5.72898 27.7406 2.48164 29.1326 1.2027 31.2493C1.34329 31.7962 1.54488 32.3381 1.7922 32.8495C2.17673 33.769 2.59683 34.6732 3.14737 35.5064C5.3309 33.8198 8.12426 32.6937 10.5771 31.4576H10.5788Z" fill="#2B376D"/>
<path d="M18.7116 7.45755C19.0775 8.79361 20.602 9.09842 21.7861 8.67846C22.9634 8.2348 24.0154 7.10872 23.7173 5.78112C23.2921 4.57037 21.8844 4.2825 20.7613 4.64827C19.5653 5.01742 18.488 6.13842 18.7116 7.45924V7.45755Z" fill="#2B376D"/>
<path d="M33.8184 17.4501C33.1848 16.1309 31.6044 15.5417 30.2475 16.0801C28.8534 16.666 28.1639 18.246 28.7856 19.6413C29.4395 21.018 31.103 21.5192 32.4649 20.9079C33.754 20.2763 34.4096 18.7895 33.8184 17.4501Z" fill="#2B376D"/>
<path d="M10.3552 6.31284C13.0723 4.89719 15.9487 3.76433 18.8657 2.83298C19.855 2.52141 20.9205 1.84067 21.0967 0.756924C20.7359 -0.10669 19.728 -0.118544 18.8928 0.162554C16.1876 0.902553 13.528 1.91688 11.0413 3.21907C10.0605 3.7474 9.16435 4.589 8.78829 5.65412C8.67141 6.66506 9.56413 6.80899 10.3535 6.31115L10.3552 6.31284Z" fill="#2B376D"/>
<path d="M43.33 21.2347C42.8218 20.1341 41.5683 19.6311 40.4605 20.1713C34.8687 23.0348 29.2362 25.8237 23.5868 28.5704C22.2232 29.246 21.7133 30.9055 22.5095 32.2111C23.3361 33.5116 25.0165 33.9366 26.4022 33.2881C31.8229 30.4602 37.2301 27.6068 42.4187 24.3675C43.4452 23.6952 43.7993 22.3524 43.3317 21.2347H43.33Z" fill="#2B376D"/>
<path d="M46.0268 33.0408C45.4492 32.3212 44.5057 32.6209 43.8704 33.1899C43.1251 33.8486 42.5118 34.8883 42.9506 35.8654C43.6265 36.5207 44.5565 36.1465 45.1409 35.4911C45.7948 34.8561 46.2471 33.9485 46.0285 33.0408H46.0268Z" fill="#2B376D"/>
<path d="M38.0872 37.4944C32.2633 41.3146 25.3553 45.6327 18.3203 46.6182C18.1966 46.6182 18.0814 46.6572 17.9899 46.7351L17.9747 46.7588L17.9611 46.8536C17.9696 46.901 17.9916 46.9433 18.0238 46.9806C18.3203 47.1906 18.6557 47.3514 19.0046 47.4564C19.9533 47.7697 20.9629 47.9712 21.9606 48.0017C28.3401 47.8391 35.1702 43.4973 40.1013 39.794C40.8856 39.2504 41.4751 38.3106 41.0076 37.4046C40.1945 36.6274 38.9511 36.9169 38.0872 37.4961V37.4944Z" fill="#2B376D"/>
<path d="M13.0351 36.3564C12.327 35.3303 11.0667 34.4142 9.78265 34.8798C8.41223 35.5335 7.04181 36.1888 5.66631 36.8306L5.49183 36.9847L5.46303 37.0372C5.45117 37.8229 5.84417 38.5358 6.34559 39.1386C6.9317 39.8871 7.70415 40.7135 8.67818 40.7897C10.1011 40.4239 11.4766 39.86 12.8335 39.3029C13.9668 38.6797 13.6618 37.2607 13.0351 36.3581V36.3564Z" fill="#2B376D"/>
<path d="M15.8064 31.7065C14.4936 32.3635 14.3513 34.0044 15.1 35.1457C15.8809 36.3226 17.4174 37.0033 18.7675 36.4089C20.043 35.7587 20.2853 34.1788 19.5552 33.0171C18.7827 31.7962 17.1802 31.1019 15.8064 31.7065Z" fill="#2B376D"/>
<path d="M41.365 30.4009C40.7179 29.3104 39.2865 29.2071 38.2685 29.859C30.5948 34.3447 22.7314 38.9151 14.3123 41.8785C12.8826 42.3814 11.3682 42.9419 9.83178 42.9335C9.80129 42.9335 9.77249 42.9385 9.74369 42.9487L9.75894 43.0164C10.7109 44.0765 12.1356 44.8232 13.4128 45.421C16.1774 46.2033 19.8211 44.4473 22.3096 43.4347C26.4716 41.7413 30.4609 39.6416 34.3266 37.3572C36.3831 36.1431 38.4429 34.8781 40.3724 33.471C41.3735 32.7953 41.8868 31.5253 41.3616 30.4009H41.365Z" fill="#2B376D"/>
</g>
<defs>
<clipPath id="clip0_32_1080">
<rect width="240" height="48" fill="white"/>
</clipPath>
</defs>
</svg>
