<svg width="46" height="48" viewBox="0 0 46 48" fill="none" xmlns="http://www.w3.org/2000/svg">
<path d="M36.3556 16.3495C36.9305 17.5348 38.3153 18.1258 39.548 17.6093C41.2388 16.8456 42.9314 16.0854 44.6358 15.3522C45.4795 14.851 45.5928 13.8181 45.1633 12.9765C44.7491 12.0774 43.9036 11.3595 42.8806 11.5559C41.0833 12.0503 39.3129 12.6531 37.5578 13.2813C36.3116 13.7554 35.8264 15.1642 36.3556 16.3495Z" fill="#1B1F3B"/>
<path d="M0.987806 18.9588L1.10109 19.0283L1.15013 19.0401L1.25327 19.0316C1.36994 18.9893 1.47647 18.9182 1.56439 18.8301C5.05433 15.2811 9.99166 12.9901 14.4691 10.992C15.6713 10.4333 16.6351 9.1413 16.4558 7.77314C16.2123 6.54044 14.8816 6.24412 13.8451 6.72332C9.57232 8.5876 4.84636 10.8481 1.81126 14.5174C1.18226 15.4098 0.867755 16.5493 0.769685 17.6313C0.693596 18.0902 0.767994 18.5694 0.984425 18.9605L0.987806 18.9588Z" fill="#1B1F3B"/>
<path d="M11.1617 18.334C11.5675 19.7123 13.0437 20.3846 14.3456 19.7547C22.7543 15.6367 31.6465 11.947 40.7755 9.77966C41.7106 9.52905 41.998 8.58929 41.5482 7.76975C41.0461 6.85539 40.0772 6.26444 39.0305 6.28307C29.9303 7.28887 20.9772 10.7211 12.7867 14.6766C11.4644 15.3319 10.7728 16.9151 11.1617 18.334Z" fill="#1B1F3B"/>
<path d="M2.90694 26.6225C3.78788 25.7759 3.77097 24.3502 3.51734 23.2259C3.35671 22.3318 2.77505 21.2972 1.8028 21.7527C1.20255 22.2996 0.62258 22.8872 0.208318 23.5865C-0.118019 24.5364 -0.00473079 25.5727 0.167737 26.5514C0.264117 27.1424 0.470402 27.713 0.771376 28.2244L0.817029 28.2549L0.979352 28.2955C1.01317 28.2904 1.0436 28.2786 1.07235 28.2582L1.11969 28.2142C1.65401 27.6216 2.27117 27.1068 2.90694 26.6225Z" fill="#1B1F3B"/>
<path d="M6.29205 18.3239C5.18284 19.118 4.81085 20.6182 5.12197 21.9068C5.39251 23.0548 6.46451 24.0369 7.64981 23.4121C8.8351 22.6231 9.19695 21.0619 8.84525 19.736C8.5578 18.5931 7.45536 17.6787 6.29205 18.3256V18.3239Z" fill="#1B1F3B"/>
<path d="M10.5598 31.4568C15.164 29.132 19.8054 26.8799 24.4604 24.6617C25.8367 23.9878 26.486 22.325 25.8604 20.9146C25.2044 19.5075 23.5219 18.9165 22.1067 19.5278C17.2708 21.7375 12.4485 23.998 7.7986 26.5836C5.71884 27.7401 2.47746 29.132 1.20086 31.2485C1.3412 31.7955 1.54241 32.3373 1.78928 32.8487C2.1731 33.7681 2.59244 34.6723 3.14197 35.5054C5.32149 33.8189 8.10972 32.6929 10.5581 31.4568H10.5598Z" fill="#1B1F3B"/>
<path d="M18.6776 7.45819C19.0428 8.79418 20.5646 9.09896 21.7465 8.67904C22.9217 8.2354 23.9717 7.10938 23.6741 5.78186C23.2497 4.57118 21.8446 4.28332 20.7236 4.64907C19.5298 5.0182 18.4544 6.13914 18.6776 7.45989V7.45819Z" fill="#1B1F3B"/>
<path d="M33.7567 17.4501C33.1244 16.1311 31.5468 15.5418 30.1924 16.0803C28.8008 16.6662 28.1126 18.246 28.7332 19.6412C29.3859 21.0178 31.0463 21.5191 32.4057 20.9078C33.6925 20.2762 34.3469 18.7895 33.7567 17.4501Z" fill="#1B1F3B"/>
<path d="M10.3366 6.31355C13.0487 4.89798 15.9198 3.76518 18.8315 2.83389C19.819 2.52233 20.8825 1.84164 21.0584 0.757948C20.6982 -0.105616 19.6921 -0.117469 18.8585 0.163613C16.1582 0.903569 13.5036 1.91783 11.0214 3.21995C10.0424 3.74825 9.14791 4.5898 8.77254 5.65487C8.65587 6.66574 9.54696 6.80967 10.3349 6.31185L10.3366 6.31355Z" fill="#1B1F3B"/>
<path d="M43.2509 21.2346C42.7437 20.134 41.4924 19.6311 40.3866 20.1712C34.8051 23.0345 29.183 25.8233 23.5439 28.5698C22.1828 29.2454 21.6738 30.9048 22.4685 32.2103C23.2937 33.5107 24.971 33.9358 26.3541 33.2872C31.7649 30.4595 37.1621 27.6063 42.3413 24.3671C43.3659 23.6949 43.7193 22.3521 43.2526 21.2346H43.2509Z" fill="#1B1F3B"/>
<path d="M45.9428 33.04C45.3662 32.3204 44.4244 32.6201 43.7903 33.189C43.0463 33.8477 42.4343 34.8874 42.8722 35.8644C43.5468 36.5197 44.4751 36.1455 45.0585 35.4902C45.7112 34.8552 46.1626 33.9476 45.9445 33.04H45.9428Z" fill="#1B1F3B"/>
<path d="M38.0177 37.4933C32.2045 41.3133 25.3092 45.6311 18.287 46.6166C18.1636 46.6166 18.0486 46.6555 17.9573 46.7334L17.9421 46.7571L17.9286 46.852C17.937 46.8994 17.959 46.9417 17.9911 46.979C18.287 47.1889 18.6218 47.3498 18.9701 47.4548C19.917 47.768 20.9248 47.9695 21.9207 48C28.2885 47.8374 35.1061 43.4959 40.0282 39.7928C40.811 39.2492 41.3994 38.3095 40.9328 37.4036C40.1212 36.6264 38.8801 36.9159 38.0177 37.495V37.4933Z" fill="#1B1F3B"/>
<path d="M13.0115 36.3554C12.3048 35.3293 11.0468 34.4133 9.76508 34.8789C8.39717 35.5325 7.02926 36.1878 5.65628 36.8295L5.48212 36.9836L5.45338 37.0361C5.44154 37.8218 5.83382 38.5347 6.33432 39.1375C6.91936 39.8859 7.69039 40.7122 8.66264 40.7884C10.083 40.4226 11.4559 39.8588 12.8103 39.3017C13.9415 38.6786 13.6372 37.2596 13.0115 36.3571V36.3554Z" fill="#1B1F3B"/>
<path d="M15.7778 31.7057C14.4674 32.3627 14.3253 34.0035 15.0727 35.1447C15.8522 36.3216 17.3858 37.0023 18.7334 36.4079C20.0066 35.7577 20.2484 34.1779 19.5197 33.0163C18.7486 31.7955 17.1491 31.1012 15.7778 31.7057Z" fill="#1B1F3B"/>
<path d="M41.2895 30.4002C40.6436 29.3098 39.2149 29.2065 38.1986 29.8584C30.539 34.3438 22.69 38.914 14.2864 41.8772C12.8594 42.3801 11.3477 42.9405 9.81411 42.9321C9.78368 42.9321 9.75493 42.9371 9.72619 42.9473L9.74141 43.015C10.6917 44.075 12.1137 44.8217 13.3886 45.4195C16.1481 46.2018 19.7851 44.4458 22.269 43.4333C26.4235 41.74 30.4055 39.6404 34.264 37.3561C36.3167 36.1421 38.3728 34.8772 40.2987 33.4701C41.298 32.7945 41.8103 31.5245 41.2862 30.4002H41.2895Z" fill="#1B1F3B"/>
</svg>
