<svg width="160" height="35" viewBox="0 0 160 35" fill="none" xmlns="http://www.w3.org/2000/svg">
<path d="M24.2824 10.8469C24.6663 11.6324 25.5903 12.0251 26.4147 11.682C27.5437 11.176 28.674 10.671 29.8128 10.1845C30.3757 9.85217 30.4516 9.16714 30.1641 8.6093C29.8876 8.01261 29.3236 7.53583 28.6403 7.66639C27.4396 7.99429 26.2574 8.39455 25.085 8.81105C24.2531 9.12505 23.9288 10.0604 24.2824 10.8469Z" fill="#2B376D"/>
<path d="M0.65968 12.5775L0.73556 12.6238L0.76821 12.6314L0.837559 12.626C0.915659 12.598 0.986183 12.5504 1.04469 12.4922C3.37553 10.1381 6.67387 8.61797 9.66412 7.29195C10.4667 6.92195 11.1109 6.06427 10.9905 5.15683C10.829 4.33902 9.93956 4.14272 9.24763 4.45984C6.39399 5.69739 3.23671 7.19697 1.20951 9.63102C0.78989 10.2233 0.579491 10.9785 0.514321 11.697C0.463387 12.0013 0.513277 12.3196 0.65746 12.5785L0.65968 12.5775Z" fill="#2B376D"/>
<path d="M7.45474 12.1632C7.72586 13.078 8.71177 13.5236 9.58158 13.1061C15.1977 10.3734 21.1371 7.92527 27.2335 6.48817C27.8583 6.32201 28.0503 5.69844 27.7498 5.15475C27.4147 4.54728 26.7671 4.15559 26.0687 4.16858C19.9906 4.83529 14.0112 7.11293 8.54042 9.73678C7.65756 10.1715 7.19549 11.2213 7.45474 12.1632Z" fill="#2B376D"/>
<path d="M1.94169 17.6622C2.53057 17.1001 2.51869 16.154 2.34956 15.4084C2.24207 14.8151 1.85379 14.1289 1.20418 14.4309C0.80389 14.7946 0.415613 15.184 0.13913 15.6479C-0.0789746 16.278 -0.00296466 16.9653 0.111964 17.6148C0.177004 18.0064 0.314788 18.3851 0.515391 18.7249L0.545822 18.7444L0.654221 18.7713C0.677076 18.7681 0.697711 18.7605 0.716126 18.7475L0.748646 18.7184C1.10545 18.3247 1.51763 17.9838 1.94169 17.6622Z" fill="#2B376D"/>
<path d="M3.42109 14.5335C3.60223 15.2952 4.31806 15.9468 5.10976 15.5325C5.9016 15.0082 6.1423 13.9725 5.90813 13.0931C5.71615 12.3347 4.97968 11.7284 4.20313 12.1578V12.1567C3.46236 12.6831 3.21395 13.679 3.42109 14.5335Z" fill="#2B376D"/>
<path d="M7.05342 20.8687C10.1283 19.327 13.2281 17.8328 16.3376 16.3611C17.2563 15.9145 17.6901 14.8107 17.2726 13.8753C16.8344 12.9421 15.7107 12.5495 14.7649 12.955C11.535 14.4212 8.31477 15.921 5.20855 17.6363C3.82026 18.4035 1.65541 19.327 0.802845 20.7306C0.896095 21.0942 1.03061 21.4534 1.19543 21.7922C1.45141 22.4028 1.73129 23.0028 2.09893 23.5552C3.55448 22.4364 5.41673 21.6897 7.05238 20.8687H7.05342Z" fill="#2B376D"/>
<path d="M12.4754 4.94862V4.94758C12.7195 5.83437 13.7357 6.03612 14.5242 5.75785C15.3094 5.46321 16.0111 4.71672 15.8116 3.83527C15.5286 3.03253 14.5903 2.84157 13.842 3.08425C13.0437 3.32926 12.3257 4.07262 12.4754 4.94862Z" fill="#2B376D"/>
<path d="M20.1652 10.6678C19.2357 11.0563 18.7769 12.1049 19.1912 13.0305C19.6273 13.9433 20.7357 14.2756 21.6435 13.8711C22.5036 13.4513 22.9407 12.4653 22.5459 11.5762C22.124 10.7012 21.0698 10.3107 20.1652 10.6678Z" fill="#2B376D"/>
<path d="M6.90267 4.18693L6.90372 4.18797C8.71502 3.24935 10.6326 2.49741 12.5773 1.88032C13.2367 1.67311 13.9472 1.22102 14.0654 0.502598C13.8247 -0.0703179 13.1522 -0.0778585 12.5957 0.108697C10.7921 0.599638 9.01985 1.27181 7.36147 2.13599C6.70742 2.48663 6.10979 3.04435 5.8593 3.75107C5.7812 4.42207 6.37661 4.51704 6.90267 4.18693Z" fill="#2B376D"/>
<path d="M28.8887 14.0879H28.8876C28.5481 13.3575 27.713 13.0242 26.9743 13.3823C23.2466 15.2811 19.4916 17.1315 15.7248 18.9536C14.816 19.4025 14.4764 20.503 15.0068 21.3692C15.5578 22.2314 16.6782 22.514 17.6022 22.0835C21.2162 20.2073 24.8203 18.315 28.2802 16.1658C28.9645 15.7192 29.1999 14.829 28.8887 14.0879Z" fill="#2B376D"/>
<path d="M113.149 12.284L113.148 12.285L112.435 19.8771C112.392 20.4738 112.238 20.9011 111.969 21.1578C111.7 21.4147 111.296 21.543 110.759 21.543H104.393C103.835 21.543 103.426 21.3995 103.167 21.1104C102.909 20.8234 102.799 20.4124 102.84 19.8761L103.555 12.284C103.595 11.7078 103.771 11.2817 104.082 11.0033C104.392 10.7261 104.848 10.5869 105.449 10.5869H111.596C112.155 10.5869 112.564 10.7206 112.823 10.9882C113.081 11.2559 113.189 11.6885 113.149 12.284ZM117.432 8.5499C117.08 7.85188 116.557 7.31573 115.865 6.9456C115.172 6.57561 114.308 6.38996 113.272 6.38996H104.547C103.512 6.38996 102.596 6.58093 101.799 6.9608C101.002 7.34157 100.377 7.88214 99.9216 8.58016C99.466 9.2804 99.196 10.124 99.1135 11.1113L98.2448 21.1405C98.1406 22.1083 98.2599 22.9305 98.6016 23.6102C98.9422 24.2887 99.4704 24.8131 100.184 25.1842C100.899 25.5543 101.772 25.7388 102.808 25.7388H111.502C112.535 25.7388 113.441 25.5532 114.219 25.1842C114.994 24.8131 115.616 24.2844 116.082 23.5939C116.547 22.9057 116.832 22.0879 116.936 21.1405L117.806 11.1113C117.908 10.1035 117.785 9.25013 117.432 8.5499Z" fill="#2B376D"/>
<path d="M82.9573 11.6701V11.6691C82.9767 11.34 83.1069 11.0778 83.3455 10.8814C83.5821 10.6861 83.8683 10.5879 84.1992 10.5879H96.1526L96.556 6.39108H83.3911C82.44 6.39108 81.6166 6.54541 80.9225 6.85396C80.2295 7.1625 79.6763 7.62097 79.262 8.22844C78.8478 8.83474 78.6102 9.59109 78.5483 10.4963L78.2686 13.4902C78.1861 14.5388 78.377 15.3686 78.8433 15.9737C79.3087 16.5802 80.018 16.9965 80.9703 17.2243C81.1145 17.2652 81.2805 17.3062 81.467 17.3472L91.2469 18.8599H91.2772C91.4639 18.9008 91.608 19.0087 91.7123 19.1845C91.8152 19.3594 91.837 19.5492 91.774 19.7552V20.3411C91.7328 20.7123 91.608 21.0046 91.4019 21.2204C91.1948 21.4362 90.9053 21.5452 90.5321 21.5452H78.0819L77.7089 25.742H91.3402C92.2296 25.742 93.0213 25.5823 93.7144 25.2641C94.4085 24.9447 94.9769 24.4818 95.4226 23.8755C95.8673 23.2692 96.1211 22.5745 96.183 21.7923L96.4627 18.7368C96.5647 17.6256 96.364 16.7463 95.8575 16.0978C95.3499 15.4506 94.5582 15.0448 93.4823 14.8797L93.4204 14.8496L83.5461 13.3057H83.5158C83.2881 13.2636 83.1233 13.1558 83.019 12.9809C82.915 12.8072 82.8749 12.6163 82.8943 12.4102L82.9573 11.6701Z" fill="#2B376D"/>
<path d="M150.365 12.0941L152.423 18.1499H147.187L150.365 12.0941ZM143.202 25.7409L144.984 22.3468H153.847L155.001 25.7409H160L153.231 6.39105H148.417L138.171 25.7409H143.202Z" fill="#2B376D"/>
<path d="M58.5331 25.741H63.1285L63.8118 18.0873H75.3304L75.7035 13.8904H64.1838L64.4647 10.588H77.2556L77.659 6.39107H60.2716L58.5331 25.741Z" fill="#2B376D"/>
<path d="M134.385 11.8837L134.293 13.2421C134.25 13.6735 134.095 14.0026 133.827 14.2292C133.558 14.4557 133.196 14.568 132.741 14.568H124.575L124.915 10.5869V10.588H133.081C133.371 10.588 133.619 10.6398 133.827 10.7423C134.033 10.8458 134.189 10.9937 134.293 11.1889C134.395 11.3842 134.426 11.6161 134.385 11.8837ZM134.796 18.6515C135.315 18.5642 135.794 18.4066 136.231 18.1801C136.945 17.8089 137.514 17.2803 137.939 16.5898H137.94C138.363 15.9015 138.628 15.0945 138.732 14.1688L139.011 10.7433C139.093 9.81758 138.964 9.03005 138.622 8.38166C138.281 7.73326 137.757 7.24024 137.054 6.90039C136.351 6.56054 135.502 6.39113 134.51 6.39113H120.723L118.985 25.741H123.58L124.2 18.7357H129.795L132.925 25.741H137.799L134.796 18.6515Z" fill="#2B376D"/>
<path d="M30.6848 21.9195C30.2998 21.4416 29.6707 21.6411 29.2476 22.0188C28.751 22.4557 28.3421 23.1451 28.6349 23.7935C29.085 24.2283 29.7054 23.9802 30.0947 23.5454C30.5308 23.1236 30.8322 22.5215 30.6858 21.9195H30.6848Z" fill="#2B376D"/>
<path d="M25.3919 24.8746V24.8736C21.509 27.4078 16.9039 30.2734 12.214 30.9271C12.1316 30.9271 12.0545 30.9519 11.9938 31.0038L11.984 31.02L11.9743 31.0825C11.9807 31.1138 11.9948 31.1419 12.0166 31.1667C12.214 31.3058 12.4374 31.4126 12.6706 31.4828C13.3029 31.691 13.9754 31.8238 14.6413 31.8442C18.8941 31.7364 23.4473 28.8568 26.7346 26.3991C27.2574 26.0388 27.6512 25.4152 27.3388 24.8142C26.7965 24.2984 25.9679 24.4906 25.3919 24.8746Z" fill="#2B376D"/>
<path d="M38.88 25.741H56.3606L56.7326 21.5441H43.8475L44.1881 17.9945H55.5526L55.8943 13.7674H44.5308L44.8096 10.588H57.6946L58.0982 6.39107H40.6186L38.88 25.741Z" fill="#2B376D"/>
<path d="M8.69118 24.1205V24.1194C8.21827 23.4386 7.37877 22.8302 6.52202 23.1397C5.60873 23.5734 4.69556 24.0082 3.77796 24.4333L3.66185 24.5358L3.64239 24.5704C3.63482 25.0914 3.89615 25.5651 4.23128 25.9643C4.62177 26.4616 5.13686 27.0097 5.78556 27.0604C6.73451 26.8177 7.65211 26.4433 8.55666 26.0732C9.31153 25.6601 9.10871 24.7192 8.69118 24.1205Z" fill="#2B376D"/>
<path d="M10.5383 21.0348C9.66297 21.4707 9.56867 22.5582 10.0676 23.3156C10.5881 24.0968 11.6121 24.5477 12.5123 24.1539C13.3625 23.7224 13.5242 22.6747 13.0372 21.9033C12.522 21.0942 11.4536 20.6335 10.5383 21.0348Z" fill="#2B376D"/>
<path d="M27.5774 20.1685C27.1458 19.4445 26.1913 19.3765 25.5134 19.8092C20.3973 22.7848 15.1543 25.8165 9.54266 27.7822C8.58927 28.1155 7.57946 28.4877 6.55554 28.4824C6.53504 28.4824 6.51545 28.4857 6.49599 28.4922L6.50683 28.5375C7.14129 29.2408 8.09142 29.7361 8.94281 30.132C10.7856 30.6509 13.215 29.4869 14.8734 28.8147C17.6489 27.6916 20.3084 26.2987 22.8854 24.7829C24.2563 23.9781 25.6295 23.1387 26.9158 22.2044C27.5829 21.7567 27.9256 20.9139 27.5752 20.1685H27.5774Z" fill="#2B376D"/>
<path d="M114.752 34.152H105.328C105.226 34.152 105.149 34.1249 105.097 34.071C105.044 34.0171 105.024 33.9394 105.034 33.838L105.722 27.3042C105.732 27.2028 105.713 27.1241 105.666 27.0659C105.617 27.0087 105.542 26.9795 105.44 26.9795H105.092C104.99 26.9795 104.907 27.0087 104.843 27.0659C104.778 27.123 104.742 27.2028 104.731 27.3042L103.968 34.5544C103.953 34.6912 103.982 34.7989 104.054 34.8788C104.124 34.957 104.232 34.9968 104.378 34.9968H114.662C114.766 34.9968 114.846 34.9687 114.906 34.9104C114.967 34.8532 115.003 34.7735 115.014 34.672L115.034 34.4767C115.044 34.3753 115.026 34.2966 114.978 34.2382C114.93 34.1811 114.854 34.152 114.752 34.152Z" fill="#2B376D"/>
<path d="M104.054 34.8791L104.054 34.8788C104.053 34.8786 104.053 34.8783 104.053 34.8781L104.054 34.8791Z" fill="#2B376D"/>
<path d="M127.289 32.2887C127.237 32.3243 127.169 32.3416 127.081 32.3416H121.177C121.089 32.3416 121.025 32.3243 120.986 32.2887C120.944 32.2521 120.929 32.2068 120.935 32.1474C120.943 32.06 120.968 31.9963 121.01 31.9521L124.321 28.2353C124.37 28.1781 124.412 28.1393 124.447 28.122C124.48 28.1037 124.524 28.0951 124.575 28.0951C124.618 28.0951 124.654 28.1037 124.681 28.122C124.708 28.1393 124.741 28.1781 124.777 28.2353L127.327 31.9521C127.366 32.0028 127.381 32.0675 127.373 32.1474C127.366 32.2045 127.338 32.2521 127.287 32.2887H127.289ZM125.206 27.2601C125.136 27.1586 125.068 27.0874 125 27.0431C124.931 26.9989 124.84 26.9784 124.723 26.9784H124.648C124.539 26.9784 124.443 27.0022 124.362 27.0486C124.281 27.096 124.195 27.1673 124.106 27.2601L117.48 34.6181C117.429 34.6828 117.401 34.7454 117.396 34.8025C117.39 34.8597 117.408 34.9071 117.452 34.9429C117.494 34.9785 117.56 34.9968 117.647 34.9968H118.029C118.109 34.9968 118.181 34.9805 118.247 34.9482C118.312 34.9158 118.378 34.863 118.443 34.7907L119.712 33.3925C119.77 33.3276 119.832 33.2792 119.897 33.2468C119.961 33.2155 120.038 33.1982 120.124 33.1982H127.937C128.024 33.1982 128.095 33.2133 128.155 33.2468C128.214 33.2792 128.264 33.3276 128.308 33.3925L129.272 34.7907C129.323 34.863 129.377 34.9158 129.436 34.9482C129.493 34.9805 129.563 34.9968 129.643 34.9968H130.025C130.112 34.9968 130.181 34.9785 130.231 34.9429C130.282 34.9071 130.311 34.8607 130.317 34.8025C130.323 34.7454 130.308 34.6828 130.271 34.6181L125.206 27.2601Z" fill="#2B376D"/>
<path d="M144.542 28.9495L144.522 29.1448C144.499 29.3551 144.401 29.5624 144.227 29.7684C144.053 29.9744 143.835 30.1438 143.574 30.2777V30.2754C143.313 30.4104 143.051 30.4762 142.791 30.4762H134.925C134.822 30.4762 134.745 30.4491 134.693 30.3952C134.64 30.3413 134.62 30.2636 134.63 30.1633L134.843 28.148C134.853 28.0465 134.89 27.9678 134.955 27.9095C135.018 27.8523 135.102 27.8232 135.204 27.8232H143.298C143.682 27.8232 143.995 27.931 144.234 28.148C144.473 28.3648 144.576 28.6313 144.542 28.9495ZM144.193 32.6782L144.168 32.9166C144.13 33.278 143.972 33.5737 143.693 33.8045L143.695 33.8035C143.416 34.0354 143.077 34.1509 142.678 34.1509H134.54C134.437 34.1509 134.36 34.1239 134.308 34.0699C134.255 34.016 134.235 33.9383 134.245 33.8369L134.475 31.6478C134.486 31.5464 134.523 31.4666 134.587 31.4094C134.652 31.3523 134.734 31.3231 134.835 31.3231H142.745C142.999 31.3231 143.243 31.3867 143.477 31.513C143.709 31.6403 143.894 31.8075 144.028 32.018C144.163 32.2261 144.218 32.4462 144.193 32.6782ZM144.733 27.2287C144.438 27.0626 144.094 26.9796 143.703 26.9796H134.432C134.286 26.9796 134.169 27.0184 134.081 27.0982C133.993 27.1769 133.942 27.2859 133.927 27.4229L133.177 34.5544C133.161 34.6914 133.191 34.7993 133.262 34.8792L133.261 34.8802C133.333 34.96 133.441 34.9988 133.587 34.9988H142.89C143.246 34.9988 143.59 34.9093 143.922 34.7281C144.254 34.5469 144.527 34.3095 144.744 34.0128C144.961 33.7161 145.087 33.3978 145.122 33.0591L145.151 32.7882C145.19 32.4193 145.126 32.0805 144.959 31.7687C144.792 31.4591 144.576 31.2163 144.31 31.0436C144.236 30.9865 144.202 30.939 144.205 30.9034C144.209 30.8667 144.254 30.8203 144.339 30.7631C144.632 30.6045 144.894 30.3694 145.122 30.0586C145.35 29.7468 145.484 29.4145 145.522 29.0606L145.541 28.8654C145.578 28.518 145.526 28.1997 145.386 27.9117C145.245 27.6225 145.027 27.3949 144.733 27.2287Z" fill="#2B376D"/>
<path d="M159.523 26.9806H150.61C150.241 26.9806 149.894 27.0573 149.568 27.2082C149.243 27.3603 148.978 27.5729 148.771 27.848C148.565 28.122 148.442 28.436 148.406 28.7899L148.339 29.4082C148.294 29.8483 148.415 30.2248 148.706 30.5345C148.996 30.8451 149.393 31.0373 149.892 31.1085C149.944 31.1085 149.99 31.1127 150.032 31.1203L157.832 31.8571L157.981 31.8777C158.245 31.9283 158.451 32.0406 158.6 32.2143C158.747 32.3869 158.812 32.5779 158.79 32.7882L158.755 33.1238C158.72 33.4486 158.578 33.701 158.326 33.8822C158.075 34.0635 157.724 34.1531 157.274 34.1531H148.351C148.256 34.1531 148.175 34.1854 148.106 34.2512C148.038 34.316 147.999 34.3958 147.989 34.4885L147.969 34.673C147.96 34.7659 147.984 34.8446 148.043 34.9061V34.9083C148.102 34.9697 148.179 35 148.273 35H157.501C157.871 35 158.22 34.9276 158.548 34.7832C158.875 34.6396 159.144 34.4346 159.352 34.1714C159.563 33.907 159.685 33.605 159.721 33.2651L159.785 32.6588C159.832 32.2175 159.72 31.8453 159.451 31.5421C159.181 31.239 158.795 31.0664 158.292 31.0221L150.331 30.2636C150.008 30.228 149.753 30.1158 149.565 29.9281C149.378 29.7403 149.299 29.4987 149.332 29.202L149.371 28.8223C149.398 28.5698 149.527 28.34 149.759 28.134C149.992 27.929 150.311 27.8254 150.718 27.8254H159.445C159.531 27.8254 159.609 27.7929 159.678 27.7272C159.747 27.6625 159.785 27.5837 159.796 27.4887L159.814 27.3054C159.825 27.2115 159.8 27.1338 159.742 27.0723C159.683 27.0107 159.609 26.9806 159.523 26.9806Z" fill="#2B376D"/>
</svg>
