<svg width="24" height="24" viewBox="0 0 24 24" fill="none" xmlns="http://www.w3.org/2000/svg">
<path fill-rule="evenodd" clip-rule="evenodd" d="M12 1C5.92422 1 1 5.82007 1 11.7674C1 16.5328 4.14961 20.5579 8.51953 21.9837C9.06953 22.0763 9.27578 21.7566 9.27578 21.4706C9.27578 21.214 9.26289 20.3686 9.26289 19.4643C6.5 19.9606 5.78242 18.804 5.56328 18.1983C5.43867 17.8871 4.90156 16.9323 4.4375 16.6758C4.05078 16.4739 3.50078 15.9776 4.42461 15.9607C5.29258 15.9481 5.91133 16.7431 6.11758 17.0627C7.10586 18.6904 8.68711 18.232 9.32305 17.9502C9.41758 17.252 9.70977 16.7809 10.0234 16.5117C7.57422 16.2425 5.01758 15.313 5.01758 11.1953C5.01758 10.0261 5.44297 9.05449 6.14336 8.30161C6.03164 8.03243 5.64922 6.93046 6.25508 5.44995C6.25508 5.44995 7.17461 5.16814 9.28008 6.55192C10.1609 6.30797 11.0934 6.1902 12.0301 6.1902C12.9668 6.1902 13.8992 6.31218 14.7801 6.55192C16.8855 5.15132 17.8051 5.44995 17.8051 5.44995C18.4109 6.93046 18.0242 8.03243 17.9168 8.30161C18.6172 9.05449 19.0426 10.0092 19.0426 11.1953C19.0426 15.3256 16.473 16.2425 14.0238 16.5117C14.4234 16.8482 14.7672 17.4959 14.7672 18.5054C14.7672 19.9438 14.7543 21.1047 14.7543 21.4664C14.7543 21.7482 14.9605 22.0847 15.5105 21.9795C19.8504 20.5579 23 16.5201 23 11.7674C23 5.82007 18.0758 1 12 1Z" fill="black"/>
</svg>
