<svg width="24" height="24" viewBox="0 0 24 24" fill="none" xmlns="http://www.w3.org/2000/svg">
<path d="M11.6206 18.2412C10.7065 18.2412 9.84961 18.0677 9.0498 17.7207C8.25 17.3779 7.54541 16.904 6.93604 16.2988C6.33089 15.6937 5.85693 14.9912 5.51416 14.1914C5.17139 13.3916 5 12.5347 5 11.6206C5 10.7065 5.17139 9.84961 5.51416 9.0498C5.85693 8.25 6.33089 7.54753 6.93604 6.94238C7.54541 6.33301 8.25 5.85693 9.0498 5.51416C9.84961 5.17139 10.7065 5 11.6206 5C12.5347 5 13.3916 5.17139 14.1914 5.51416C14.9912 5.85693 15.6937 6.33301 16.2988 6.94238C16.904 7.54753 17.3779 8.25 17.7207 9.0498C18.0677 9.84961 18.2412 10.7065 18.2412 11.6206C18.2412 12.5347 18.0677 13.3916 17.7207 14.1914C17.3779 14.9912 16.904 15.6937 16.2988 16.2988C15.6937 16.904 14.9912 17.3779 14.1914 17.7207C13.3916 18.0677 12.5347 18.2412 11.6206 18.2412ZM11.6206 16.7876C12.3358 16.7876 13.0044 16.6543 13.6265 16.3877C14.2528 16.1211 14.8008 15.7508 15.2705 15.2769C15.7445 14.7987 16.1147 14.2485 16.3813 13.6265C16.6522 13.0002 16.7876 12.3315 16.7876 11.6206C16.7876 10.9054 16.6522 10.2368 16.3813 9.61475C16.1147 8.98844 15.7445 8.43831 15.2705 7.96436C14.8008 7.4904 14.2528 7.12012 13.6265 6.85352C13.0044 6.58691 12.3358 6.45361 11.6206 6.45361C10.9054 6.45361 10.2347 6.58691 9.6084 6.85352C8.98633 7.12012 8.43831 7.4904 7.96436 7.96436C7.4904 8.43831 7.12012 8.98844 6.85352 9.61475C6.58691 10.2368 6.45361 10.9054 6.45361 11.6206C6.45361 12.3315 6.58691 13.0002 6.85352 13.6265C7.12012 14.2485 7.4904 14.7987 7.96436 15.2769C8.43831 15.7508 8.98633 16.1211 9.6084 16.3877C10.2347 16.6543 10.9054 16.7876 11.6206 16.7876ZM11.4746 12.8521C11.026 12.8521 10.8018 12.6595 10.8018 12.2744C10.8018 12.266 10.8018 12.2575 10.8018 12.249C10.8018 12.2363 10.8018 12.2236 10.8018 12.2109C10.8018 11.9401 10.8737 11.7158 11.0176 11.5381C11.1615 11.3604 11.3455 11.1953 11.5698 11.043C11.8322 10.8568 12.029 10.7023 12.1602 10.5796C12.2956 10.4569 12.3633 10.3003 12.3633 10.1099C12.3633 9.9152 12.2892 9.75439 12.1411 9.62744C11.9972 9.49626 11.8068 9.43066 11.5698 9.43066C11.4556 9.43066 11.3477 9.44971 11.2461 9.48779C11.1445 9.52588 11.0514 9.58089 10.9668 9.65283C10.8822 9.72477 10.8039 9.81576 10.7319 9.92578L10.6431 10.04C10.5796 10.1289 10.5034 10.1966 10.4146 10.2432C10.3257 10.2897 10.2199 10.313 10.0972 10.313C9.95329 10.313 9.82633 10.2643 9.71631 10.167C9.61051 10.0697 9.55762 9.93848 9.55762 9.77344C9.55762 9.71419 9.56185 9.65706 9.57031 9.60205C9.58301 9.54704 9.59993 9.48991 9.62109 9.43066C9.72689 9.13021 9.95964 8.87419 10.3193 8.6626C10.679 8.45101 11.1297 8.34521 11.6714 8.34521C12.0607 8.34521 12.4141 8.41292 12.7314 8.54834C13.0531 8.68376 13.3112 8.87842 13.5059 9.13232C13.7005 9.382 13.7979 9.68245 13.7979 10.0337C13.7979 10.3976 13.7069 10.6875 13.5249 10.9033C13.3472 11.1149 13.0996 11.3223 12.7822 11.5254C12.5833 11.6566 12.4268 11.7814 12.3125 11.8999C12.1982 12.0184 12.1348 12.1538 12.1221 12.3062C12.1221 12.3146 12.12 12.3273 12.1157 12.3442C12.1157 12.3569 12.1157 12.3696 12.1157 12.3823C12.0988 12.5135 12.0332 12.6257 11.9189 12.7188C11.8047 12.8076 11.6566 12.8521 11.4746 12.8521ZM11.4619 14.8325C11.2461 14.8325 11.0599 14.7648 10.9033 14.6294C10.751 14.494 10.6748 14.3205 10.6748 14.1089C10.6748 13.8973 10.751 13.7238 10.9033 13.5884C11.0557 13.453 11.2419 13.3853 11.4619 13.3853C11.682 13.3853 11.8682 13.453 12.0205 13.5884C12.1729 13.7238 12.249 13.8973 12.249 14.1089C12.249 14.3205 12.1729 14.494 12.0205 14.6294C11.8682 14.7648 11.682 14.8325 11.4619 14.8325Z" fill="#4B5563"/>
</svg>
