<svg width="24" height="24" viewBox="0 0 24 24" fill="none" xmlns="http://www.w3.org/2000/svg">
<path d="M9.82533 16.2418C9.62129 16.2418 9.42309 16.2142 9.23071 16.1588C9.04125 16.1035 8.87657 16.0204 8.73666 15.9097C8.59675 15.799 8.49764 15.6606 8.43935 15.4946C8.41312 15.4247 8.4 15.3635 8.4 15.311C8.4 15.2207 8.42915 15.1508 8.48744 15.1013C8.54574 15.0488 8.61861 15.0226 8.70605 15.0226C8.77892 15.0226 8.83867 15.0416 8.88531 15.0794C8.93195 15.1144 8.97421 15.1683 9.0121 15.2411C9.07914 15.413 9.18116 15.5354 9.31815 15.6082C9.45806 15.6781 9.63149 15.7131 9.83844 15.7131C9.97835 15.7131 10.1095 15.6971 10.2319 15.665C10.3573 15.63 10.4578 15.5747 10.5336 15.4989C10.6094 15.4203 10.6473 15.3154 10.6473 15.1843C10.6473 15.0124 10.5759 14.8901 10.4331 14.8172C10.2931 14.7444 10.1299 14.6861 9.94337 14.6424L9.52802 14.5463C9.34147 14.5055 9.16367 14.4458 8.99461 14.3671C8.82847 14.2885 8.69293 14.1807 8.588 14.0438C8.48599 13.9039 8.43498 13.7248 8.43498 13.5063C8.43498 13.2703 8.50056 13.0722 8.63172 12.912C8.76289 12.7517 8.9334 12.6294 9.14327 12.5449C9.35605 12.4604 9.5834 12.4182 9.82533 12.4182C10.0527 12.4182 10.2713 12.459 10.4811 12.5405C10.691 12.6192 10.8644 12.7299 11.0014 12.8726C11.1384 13.0125 11.2069 13.1742 11.2069 13.3577C11.2069 13.448 11.1749 13.515 11.1107 13.5587C11.0495 13.6024 10.981 13.6243 10.9052 13.6243C10.8353 13.6243 10.7741 13.6053 10.7216 13.5675C10.6692 13.5296 10.6254 13.4757 10.5905 13.4058C10.5322 13.2484 10.4374 13.1334 10.3063 13.0605C10.1751 12.9848 10.0162 12.9469 9.8297 12.9469C9.70145 12.9469 9.57903 12.9659 9.46244 13.0037C9.34876 13.0387 9.25549 13.0926 9.18262 13.1654C9.11266 13.2383 9.07769 13.3329 9.07769 13.4495C9.07769 13.5514 9.10538 13.6359 9.16076 13.7029C9.21905 13.7699 9.29775 13.8253 9.39685 13.869C9.49887 13.9127 9.61546 13.9491 9.74663 13.9782L10.1576 14.0744C10.3646 14.121 10.554 14.1851 10.726 14.2666C10.898 14.3453 11.035 14.4531 11.137 14.59C11.239 14.7269 11.29 14.9046 11.29 15.1231C11.29 15.3824 11.22 15.5951 11.0801 15.7611C10.9431 15.9243 10.7624 16.0452 10.538 16.1238C10.3165 16.2025 10.0789 16.2418 9.82533 16.2418ZM9.83407 16.74C9.79909 16.74 9.76849 16.7269 9.74225 16.7007C9.71602 16.6715 9.7029 16.6395 9.7029 16.6045V12.0555C9.7029 12.0205 9.71602 11.9899 9.74225 11.9637C9.76849 11.9346 9.79909 11.92 9.83407 11.92C9.87196 11.92 9.90402 11.9346 9.93026 11.9637C9.95649 11.9899 9.96961 12.0205 9.96961 12.0555V16.6045C9.96961 16.6395 9.95649 16.6715 9.93026 16.7007C9.90402 16.7269 9.87196 16.74 9.83407 16.74Z" fill="#4B5563"/>
<path d="M14.028 12.8025C14.1422 12.8025 14.2374 12.8427 14.3135 12.9231C14.3939 12.9993 14.4341 13.0945 14.4341 13.2088C14.4341 13.323 14.3939 13.4225 14.3135 13.5072C14.2374 13.5876 14.1422 13.6278 14.028 13.6278H12.4041C12.2857 13.6278 12.1863 13.5876 12.1059 13.5072C12.0256 13.4225 11.9854 13.323 11.9854 13.2088C11.9854 13.0945 12.0256 12.9993 12.1059 12.9231C12.1863 12.8427 12.2857 12.8025 12.4041 12.8025H14.028ZM14.028 14.8721C14.1422 14.8721 14.2374 14.9123 14.3135 14.9927C14.3939 15.0731 14.4341 15.1726 14.4341 15.2911C14.4341 15.4012 14.3939 15.4964 14.3135 15.5768C14.2374 15.653 14.1422 15.6911 14.028 15.6911H12.4041C12.2857 15.6911 12.1863 15.653 12.1059 15.5768C12.0256 15.4964 11.9854 15.4012 11.9854 15.2911C11.9854 15.1726 12.0256 15.0731 12.1059 14.9927C12.1863 14.9123 12.2857 14.8721 12.4041 14.8721H14.028ZM8.13186 18.84C7.43393 18.84 6.90308 18.658 6.53931 18.294C6.17977 17.93 6 17.3967 6 16.6942V7.15218C6 6.45383 6.17977 5.92055 6.53931 5.55233C6.90308 5.18411 7.43393 5 8.13186 5H11.2218C11.5052 5 11.7548 5.02116 11.9705 5.06349C12.1862 5.10158 12.3829 5.17141 12.5606 5.27299C12.7424 5.37457 12.9264 5.5227 13.1126 5.71739L16.323 8.97424C16.5176 9.17316 16.6657 9.36362 16.7672 9.54561C16.8729 9.72761 16.9448 9.92865 16.9829 10.1487C17.021 10.3646 17.04 10.627 17.04 10.936V16.6942C17.04 17.3967 16.8581 17.93 16.4943 18.294C16.1306 18.658 15.6018 18.84 14.9081 18.84H8.13186ZM8.27145 17.4306H14.7622C15.0541 17.4306 15.2698 17.3565 15.4094 17.2084C15.5532 17.0645 15.6251 16.8529 15.6251 16.5735V11.2026H12.3575C11.8626 11.2026 11.4946 11.082 11.2535 10.8407C11.0124 10.5995 10.8919 10.2313 10.8919 9.73607V6.41574H8.27779C7.98593 6.41574 7.76809 6.48981 7.62428 6.63794C7.48046 6.78608 7.40855 6.9977 7.40855 7.27281V16.5735C7.40855 16.8529 7.48046 17.0645 7.62428 17.2084C7.76809 17.3565 7.98382 17.4306 8.27145 17.4306ZM12.4781 10.0027H15.4728L12.091 6.56811V9.61545C12.091 9.75089 12.1206 9.85035 12.1799 9.91383C12.2433 9.97309 12.3427 10.0027 12.4781 10.0027Z" fill="#4B5563"/>
</svg>
