<svg width="24" height="24" viewBox="0 0 24 24" fill="none" xmlns="http://www.w3.org/2000/svg">
<path d="M1.26944 14.5348C1.2206 14.326 1.4692 14.1947 1.62078 14.3463L9.65344 22.3788C9.80524 22.5306 9.67368 22.7792 9.4649 22.7301C5.41139 21.7791 2.22028 18.5883 1.26944 14.5348ZM1.00038 11.3154C0.998563 11.3462 1.00331 11.377 1.01431 11.4059C1.02531 11.4347 1.04231 11.4608 1.06418 11.4826L12.517 22.9358C12.5612 22.9798 12.6221 23.0034 12.6842 22.9996C13.2056 22.9668 13.7171 22.8984 14.216 22.7957C14.3843 22.7611 14.4426 22.5546 14.3212 22.4331L1.56666 9.67841C1.44522 9.55719 1.23864 9.61549 1.2041 9.78379C1.10042 10.2889 1.03235 10.8007 1.00038 11.3154ZM1.92614 7.53499C1.90839 7.57522 1.90327 7.61988 1.91144 7.66309C1.91961 7.7063 1.94069 7.74601 1.9719 7.77698L16.2227 22.0275C16.2862 22.0913 16.3824 22.1099 16.4647 22.0732C16.8561 21.8988 17.237 21.7017 17.6054 21.4827C17.6336 21.4658 17.6576 21.4426 17.6754 21.4149C17.6933 21.3873 17.7046 21.3559 17.7085 21.3232C17.7124 21.2905 17.7088 21.2574 17.6979 21.2263C17.687 21.1952 17.6691 21.167 17.6456 21.1439L2.85586 6.35383C2.83276 6.33032 2.80458 6.31241 2.77349 6.30148C2.74239 6.29055 2.7092 6.28689 2.67647 6.29078C2.64374 6.29467 2.61234 6.306 2.58467 6.32391C2.557 6.34181 2.53379 6.36582 2.51684 6.39409C2.29792 6.76246 2.10075 7.14334 1.92636 7.53477L1.92614 7.53499ZM3.78471 4.97621C3.74531 4.93722 3.72234 4.88464 3.7205 4.82924C3.71865 4.77385 3.73809 4.71985 3.77481 4.67834C5.79155 2.42117 8.72438 1 11.9894 1C18.0702 1 23 5.92945 23 12.0104C23 15.2751 21.5788 18.2081 19.3216 20.2246C19.2801 20.2613 19.2261 20.2807 19.1707 20.2789C19.1153 20.277 19.0627 20.2541 19.0237 20.2147L3.78493 4.97621H3.78471Z" fill="#5E6AD2"/>
</svg>
