<svg width="24" height="24" viewBox="0 0 24 24" fill="none" xmlns="http://www.w3.org/2000/svg">
<path d="M8.06128 17.9668C6.94832 17.9668 6.39185 17.5838 6.39185 16.8179C6.39185 16.3735 6.52515 15.9144 6.79175 15.4404C7.05835 14.9622 7.43709 14.52 7.92798 14.1138C8.4231 13.7075 9.01343 13.3796 9.69897 13.1299C10.3888 12.876 11.1547 12.749 11.9968 12.749C12.8432 12.749 13.6091 12.876 14.2947 13.1299C14.9845 13.3796 15.5748 13.7075 16.0657 14.1138C16.5608 14.52 16.9417 14.9622 17.2083 15.4404C17.4749 15.9144 17.6082 16.3735 17.6082 16.8179C17.6082 17.5838 17.0517 17.9668 15.9387 17.9668H8.06128ZM7.92163 16.7607H16.0784C16.1461 16.7607 16.1926 16.748 16.218 16.7227C16.2476 16.7015 16.2625 16.6634 16.2625 16.6084C16.2625 16.3757 16.1672 16.109 15.9768 15.8086C15.7906 15.5081 15.5155 15.2183 15.1516 14.939C14.7877 14.6554 14.3412 14.4206 13.8123 14.2344C13.2833 14.0482 12.6781 13.9551 11.9968 13.9551C11.3197 13.9551 10.7146 14.0482 10.1814 14.2344C9.65243 14.4206 9.20597 14.6554 8.84204 14.939C8.47811 15.2183 8.20093 15.5081 8.0105 15.8086C7.8243 16.109 7.7312 16.3757 7.7312 16.6084C7.7312 16.6634 7.74601 16.7015 7.77563 16.7227C7.80526 16.748 7.85392 16.7607 7.92163 16.7607ZM11.9968 12.0381C11.4806 12.0381 11.0108 11.9027 10.5876 11.6318C10.1645 11.361 9.82593 10.9971 9.57202 10.54C9.32235 10.0788 9.19751 9.57096 9.19751 9.0166C9.19751 8.46647 9.32446 7.96712 9.57837 7.51855C9.83228 7.06576 10.1708 6.70605 10.594 6.43945C11.0172 6.16862 11.4848 6.0332 11.9968 6.0332C12.5173 6.0332 12.9892 6.1665 13.4124 6.43311C13.8355 6.69971 14.172 7.05729 14.4216 7.50586C14.6755 7.95443 14.8025 8.45378 14.8025 9.00391C14.8025 9.5625 14.6755 10.0724 14.4216 10.5337C14.172 10.9907 13.8355 11.3568 13.4124 11.6318C12.9892 11.9027 12.5173 12.0381 11.9968 12.0381ZM11.9968 10.8384C12.2846 10.8384 12.5448 10.7601 12.7776 10.6035C13.0146 10.4427 13.2029 10.2227 13.3425 9.94336C13.4864 9.66406 13.5583 9.35091 13.5583 9.00391C13.5583 8.66536 13.4864 8.36279 13.3425 8.09619C13.2029 7.82959 13.0146 7.62012 12.7776 7.46777C12.5448 7.3112 12.2846 7.23291 11.9968 7.23291C11.7175 7.23291 11.4594 7.3112 11.2224 7.46777C10.9897 7.62012 10.8014 7.83171 10.6575 8.10254C10.5136 8.36914 10.4417 8.67171 10.4417 9.01025C10.4417 9.36149 10.5136 9.67464 10.6575 9.94971C10.8014 10.2248 10.9897 10.4427 11.2224 10.6035C11.4594 10.7601 11.7175 10.8384 11.9968 10.8384Z" fill="#6B7280"/>
</svg>
