<svg width="32" height="32" viewBox="0 0 32 32" fill="none" xmlns="http://www.w3.org/2000/svg">
<path d="M0 16C0 7.16344 7.16344 0 16 0C24.8366 0 32 7.16344 32 16C32 24.8366 24.8366 32 16 32C7.16344 32 0 24.8366 0 16Z" fill="#EF4444"/>
<path d="M19.8086 20.729L11.2837 12.2041L12.1978 11.2964L20.7227 19.8149L19.8086 20.729ZM16 22.6206C15.0859 22.6206 14.229 22.4471 13.4292 22.1001C12.6294 21.7573 11.9248 21.2834 11.3154 20.6782C10.7103 20.0731 10.2363 19.3706 9.89355 18.5708C9.55078 17.771 9.37939 16.9141 9.37939 16C9.37939 15.0859 9.55078 14.229 9.89355 13.4292C10.2363 12.6294 10.7103 11.9269 11.3154 11.3218C11.9248 10.7124 12.6294 10.2363 13.4292 9.89355C14.229 9.55078 15.0859 9.37939 16 9.37939C16.9141 9.37939 17.771 9.55078 18.5708 9.89355C19.3706 10.2363 20.0731 10.7124 20.6782 11.3218C21.2834 11.9269 21.7573 12.6294 22.1001 13.4292C22.4471 14.229 22.6206 15.0859 22.6206 16C22.6206 16.9141 22.4471 17.771 22.1001 18.5708C21.7573 19.3706 21.2834 20.0731 20.6782 20.6782C20.0731 21.2834 19.3706 21.7573 18.5708 22.1001C17.771 22.4471 16.9141 22.6206 16 22.6206ZM16 21.167C16.7152 21.167 17.3838 21.0337 18.0059 20.7671C18.6322 20.5005 19.1802 20.1302 19.6499 19.6562C20.1239 19.1781 20.4941 18.6279 20.7607 18.0059C21.0316 17.3796 21.167 16.7109 21.167 16C21.167 15.2848 21.0316 14.6162 20.7607 13.9941C20.4941 13.3678 20.1239 12.8177 19.6499 12.3438C19.1802 11.8698 18.6322 11.4995 18.0059 11.2329C17.3838 10.9663 16.7152 10.833 16 10.833C15.2848 10.833 14.6141 10.9663 13.9878 11.2329C13.3657 11.4995 12.8177 11.8698 12.3438 12.3438C11.8698 12.8177 11.4995 13.3678 11.2329 13.9941C10.9663 14.6162 10.833 15.2848 10.833 16C10.833 16.7109 10.9663 17.3796 11.2329 18.0059C11.4995 18.6279 11.8698 19.1781 12.3438 19.6562C12.8177 20.1302 13.3657 20.5005 13.9878 20.7671C14.6141 21.0337 15.2848 21.167 16 21.167Z" fill="#7F1D1D"/>
</svg>
