<svg width="32" height="32" viewBox="0 0 32 32" fill="none" xmlns="http://www.w3.org/2000/svg">
<path d="M0 16C0 7.16344 7.16344 0 16 0C24.8366 0 32 7.16344 32 16C32 24.8366 24.8366 32 16 32C7.16344 32 0 24.8366 0 16Z" fill="#E5E7EB"/>
<path d="M11.1519 21.9653C10.4494 21.9653 9.91406 21.7834 9.5459 21.4194C9.18197 21.0597 9 20.5329 9 19.8389V12.1265C9 11.4325 9.18197 10.9056 9.5459 10.5459C9.91406 10.182 10.4494 10 11.1519 10H19.9307C20.6331 10 21.1663 10.182 21.5303 10.5459C21.8942 10.9056 22.0762 11.4325 22.0762 12.1265V19.8389C22.0762 20.5329 21.8942 21.0597 21.5303 21.4194C21.1663 21.7834 20.6331 21.9653 19.9307 21.9653H11.1519ZM11.1899 20.5562H19.8799C20.1338 20.5562 20.3285 20.4927 20.4639 20.3657C20.5993 20.2345 20.667 20.0356 20.667 19.769V13.9927C20.667 13.7303 20.5993 13.5356 20.4639 13.4087C20.3285 13.2775 20.1338 13.2119 19.8799 13.2119H11.1899C10.9403 13.2119 10.7477 13.2775 10.6123 13.4087C10.4769 13.5356 10.4092 13.7303 10.4092 13.9927V19.769C10.4092 20.0356 10.4769 20.2345 10.6123 20.3657C10.7477 20.4927 10.9403 20.5562 11.1899 20.5562ZM14.332 15.3511C14.2178 15.3511 14.1374 15.3299 14.0908 15.2876C14.0443 15.241 14.021 15.1628 14.021 15.0527V14.6782C14.021 14.564 14.0443 14.4857 14.0908 14.4434C14.1374 14.401 14.2178 14.3799 14.332 14.3799H14.7002C14.8145 14.3799 14.8949 14.401 14.9414 14.4434C14.988 14.4857 15.0112 14.564 15.0112 14.6782V15.0527C15.0112 15.1628 14.988 15.241 14.9414 15.2876C14.8949 15.3299 14.8145 15.3511 14.7002 15.3511H14.332ZM16.3823 15.3511C16.2681 15.3511 16.1877 15.3299 16.1411 15.2876C16.0988 15.241 16.0776 15.1628 16.0776 15.0527V14.6782C16.0776 14.564 16.0988 14.4857 16.1411 14.4434C16.1877 14.401 16.2681 14.3799 16.3823 14.3799H16.7568C16.8711 14.3799 16.9494 14.401 16.9917 14.4434C17.0382 14.4857 17.0615 14.564 17.0615 14.6782V15.0527C17.0615 15.1628 17.0382 15.241 16.9917 15.2876C16.9494 15.3299 16.8711 15.3511 16.7568 15.3511H16.3823ZM18.4326 15.3511C18.3184 15.3511 18.238 15.3299 18.1914 15.2876C18.1449 15.241 18.1216 15.1628 18.1216 15.0527V14.6782C18.1216 14.564 18.1449 14.4857 18.1914 14.4434C18.238 14.401 18.3184 14.3799 18.4326 14.3799H18.8008C18.9193 14.3799 18.9997 14.401 19.042 14.4434C19.0885 14.4857 19.1118 14.564 19.1118 14.6782V15.0527C19.1118 15.1628 19.0885 15.241 19.042 15.2876C18.9997 15.3299 18.9193 15.3511 18.8008 15.3511H18.4326ZM12.2817 17.3696C12.1632 17.3696 12.0807 17.3485 12.0342 17.3062C11.9919 17.2596 11.9707 17.1792 11.9707 17.0649V16.6968C11.9707 16.5825 11.9919 16.5042 12.0342 16.4619C12.0807 16.4196 12.1632 16.3984 12.2817 16.3984H12.6562C12.7705 16.3984 12.8488 16.4196 12.8911 16.4619C12.9334 16.5042 12.9546 16.5825 12.9546 16.6968V17.0649C12.9546 17.1792 12.9334 17.2596 12.8911 17.3062C12.8488 17.3485 12.7705 17.3696 12.6562 17.3696H12.2817ZM14.332 17.3696C14.2178 17.3696 14.1374 17.3485 14.0908 17.3062C14.0443 17.2596 14.021 17.1792 14.021 17.0649V16.6968C14.021 16.5825 14.0443 16.5042 14.0908 16.4619C14.1374 16.4196 14.2178 16.3984 14.332 16.3984H14.7002C14.8145 16.3984 14.8949 16.4196 14.9414 16.4619C14.988 16.5042 15.0112 16.5825 15.0112 16.6968V17.0649C15.0112 17.1792 14.988 17.2596 14.9414 17.3062C14.8949 17.3485 14.8145 17.3696 14.7002 17.3696H14.332ZM16.3823 17.3696C16.2681 17.3696 16.1877 17.3485 16.1411 17.3062C16.0988 17.2596 16.0776 17.1792 16.0776 17.0649V16.6968C16.0776 16.5825 16.0988 16.5042 16.1411 16.4619C16.1877 16.4196 16.2681 16.3984 16.3823 16.3984H16.7568C16.8711 16.3984 16.9494 16.4196 16.9917 16.4619C17.0382 16.5042 17.0615 16.5825 17.0615 16.6968V17.0649C17.0615 17.1792 17.0382 17.2596 16.9917 17.3062C16.9494 17.3485 16.8711 17.3696 16.7568 17.3696H16.3823ZM18.4326 17.3696C18.3184 17.3696 18.238 17.3485 18.1914 17.3062C18.1449 17.2596 18.1216 17.1792 18.1216 17.0649V16.6968C18.1216 16.5825 18.1449 16.5042 18.1914 16.4619C18.238 16.4196 18.3184 16.3984 18.4326 16.3984H18.8008C18.9193 16.3984 18.9997 16.4196 19.042 16.4619C19.0885 16.5042 19.1118 16.5825 19.1118 16.6968V17.0649C19.1118 17.1792 19.0885 17.2596 19.042 17.3062C18.9997 17.3485 18.9193 17.3696 18.8008 17.3696H18.4326ZM12.2817 19.3882C12.1632 19.3882 12.0807 19.367 12.0342 19.3247C11.9919 19.2824 11.9707 19.202 11.9707 19.0835V18.7153C11.9707 18.6011 11.9919 18.5228 12.0342 18.4805C12.0807 18.4382 12.1632 18.417 12.2817 18.417H12.6562C12.7705 18.417 12.8488 18.4382 12.8911 18.4805C12.9334 18.5228 12.9546 18.6011 12.9546 18.7153V19.0835C12.9546 19.202 12.9334 19.2824 12.8911 19.3247C12.8488 19.367 12.7705 19.3882 12.6562 19.3882H12.2817ZM14.332 19.3882C14.2178 19.3882 14.1374 19.367 14.0908 19.3247C14.0443 19.2824 14.021 19.202 14.021 19.0835V18.7153C14.021 18.6011 14.0443 18.5228 14.0908 18.4805C14.1374 18.4382 14.2178 18.417 14.332 18.417H14.7002C14.8145 18.417 14.8949 18.4382 14.9414 18.4805C14.988 18.5228 15.0112 18.6011 15.0112 18.7153V19.0835C15.0112 19.202 14.988 19.2824 14.9414 19.3247C14.8949 19.367 14.8145 19.3882 14.7002 19.3882H14.332ZM16.3823 19.3882C16.2681 19.3882 16.1877 19.367 16.1411 19.3247C16.0988 19.2824 16.0776 19.202 16.0776 19.0835V18.7153C16.0776 18.6011 16.0988 18.5228 16.1411 18.4805C16.1877 18.4382 16.2681 18.417 16.3823 18.417H16.7568C16.8711 18.417 16.9494 18.4382 16.9917 18.4805C17.0382 18.5228 17.0615 18.6011 17.0615 18.7153V19.0835C17.0615 19.202 17.0382 19.2824 16.9917 19.3247C16.9494 19.367 16.8711 19.3882 16.7568 19.3882H16.3823Z" fill="#9CA3AF"/>
</svg>
