<svg width="32" height="32" viewBox="0 0 32 32" fill="none" xmlns="http://www.w3.org/2000/svg">
<path d="M0 16C0 7.16344 7.16344 0 16 0C24.8366 0 32 7.16344 32 16C32 24.8366 24.8366 32 16 32C7.16344 32 0 24.8366 0 16Z" fill="#FFECD1"/>
<path d="M18.8669 13.2569L23.6543 12.0249C23.8169 11.9814 23.9686 11.9949 24.1095 12.0657C24.2558 12.1364 24.3641 12.2424 24.4346 12.3839C24.505 12.5199 24.5186 12.6722 24.4752 12.8408L23.2398 17.6547C23.191 17.8397 23.1043 17.9865 22.9797 18.0953C22.855 18.1987 22.7169 18.2503 22.5651 18.2503C22.4188 18.2449 22.2807 18.1769 22.1506 18.0464L18.4768 14.3502C18.3467 14.2197 18.279 14.0783 18.2736 13.926C18.2736 13.7737 18.325 13.6377 18.428 13.518C18.5364 13.3929 18.6827 13.3059 18.8669 13.2569ZM12.08 15.2151C12.2913 15.2151 12.4972 15.2614 12.6977 15.3538C12.9036 15.4463 13.1041 15.5959 13.2992 15.8026L16.1359 18.7725C16.2063 18.8432 16.2768 18.8786 16.3472 18.8786C16.3851 18.8786 16.4204 18.8704 16.4529 18.8541C16.4908 18.8324 16.5287 18.8052 16.5667 18.7725L20.4437 14.799C20.6117 14.6249 20.8176 14.5406 21.0615 14.5461C21.3053 14.5461 21.5139 14.6304 21.6873 14.799C21.8499 14.9622 21.9312 15.1662 21.9312 15.4109C21.9312 15.6557 21.8499 15.8624 21.6873 16.031L17.5664 20.1922C17.1709 20.5893 16.7645 20.7879 16.3472 20.7879C16.1359 20.7879 15.9273 20.7416 15.7214 20.6492C15.5154 20.5512 15.3177 20.3989 15.128 20.1922L12.2913 17.2304C12.2263 17.1543 12.1559 17.1162 12.08 17.1162C12.0096 17.1162 11.9391 17.1543 11.8687 17.2304L8.48743 20.7389C8.31945 20.913 8.11354 21 7.8697 21C7.62586 20.9946 7.41995 20.9075 7.25197 20.7389C7.08399 20.5648 7 20.3581 7 20.1188C7 19.874 7.08399 19.6673 7.25197 19.4987L10.8608 15.8026C11.0667 15.5904 11.2672 15.4409 11.4623 15.3538C11.6628 15.2614 11.8687 15.2151 12.08 15.2151Z" fill="#FF9500"/>
</svg>
