<svg width="32" height="32" viewBox="0 0 32 32" fill="none" xmlns="http://www.w3.org/2000/svg">
<path d="M0 16C0 7.16344 7.16344 0 16 0C24.8366 0 32 7.16344 32 16C32 24.8366 24.8366 32 16 32C7.16344 32 0 24.8366 0 16Z" fill="#A5B4FC"/>
<path d="M12.4658 21.8795C11.8691 21.8795 11.4248 21.7335 11.1328 21.4415C10.8451 21.1537 10.7012 20.7115 10.7012 20.1148V18.7755C10.7012 18.6612 10.6631 18.566 10.5869 18.4898L9.63477 17.5313C9.21159 17.1124 9 16.6998 9 16.2935C9 15.883 9.21159 15.4662 9.63477 15.043L10.5869 14.0909C10.6631 14.0105 10.7012 13.9153 10.7012 13.8052V12.4595C10.7012 11.8586 10.8451 11.4143 11.1328 11.1265C11.4248 10.8388 11.8691 10.6949 12.4658 10.6949H13.8052C13.9194 10.6949 14.0146 10.6568 14.0908 10.5806L15.0493 9.63483C15.4725 9.21165 15.8872 9.00006 16.2935 9.00006C16.6997 8.99583 17.1144 9.2053 17.5376 9.62848L18.4897 10.5806C18.5701 10.6568 18.6654 10.6949 18.7754 10.6949H20.1211C20.7178 10.6949 21.16 10.8409 21.4478 11.1329C21.7397 11.4249 21.8857 11.8671 21.8857 12.4595V13.8052C21.8857 13.9153 21.9238 14.0105 22 14.0909L22.9521 15.043C23.3711 15.4662 23.5806 15.883 23.5806 16.2935C23.5848 16.6998 23.3753 17.1124 22.9521 17.5313L22 18.4898C21.9238 18.566 21.8857 18.6612 21.8857 18.7755V20.1148C21.8857 20.7157 21.7397 21.1601 21.4478 21.4478C21.16 21.7356 20.7178 21.8795 20.1211 21.8795H18.7754C18.6654 21.8795 18.5701 21.9197 18.4897 22.0001L17.5376 22.9522C17.1144 23.3712 16.6997 23.5806 16.2935 23.5806C15.8872 23.5849 15.4725 23.3754 15.0493 22.9522L14.0908 22.0001C14.0146 21.9197 13.9194 21.8795 13.8052 21.8795H12.4658ZM12.6118 20.6163L14.2305 20.6226C14.4209 20.6226 14.5775 20.6861 14.7002 20.8131L15.8364 21.9556C16.0353 22.1545 16.1855 22.254 16.2871 22.254C16.3929 22.254 16.5452 22.1545 16.7441 21.9556L17.8931 20.8131C18.0158 20.6861 18.1681 20.6226 18.3501 20.6226L19.9751 20.6163C20.2544 20.6163 20.4321 20.5782 20.5083 20.502C20.5845 20.4258 20.6226 20.2502 20.6226 19.9752V18.3502C20.6226 18.1682 20.686 18.0159 20.813 17.8931L21.9619 16.7506C22.1566 16.5517 22.2539 16.3993 22.2539 16.2935C22.2539 16.1877 22.1566 16.0354 21.9619 15.8365L20.813 14.6939C20.686 14.567 20.6226 14.4125 20.6226 14.2305V12.6119C20.6226 12.3368 20.5845 12.1612 20.5083 12.085C20.4321 12.0046 20.2544 11.9644 19.9751 11.9644L18.3501 11.9581C18.1681 11.9581 18.0158 11.8967 17.8931 11.774L16.7441 10.6251C16.5452 10.4304 16.3929 10.3331 16.2871 10.3331C16.1855 10.3331 16.0353 10.4304 15.8364 10.6251L14.7002 11.774C14.5775 11.8967 14.4209 11.9581 14.2305 11.9581L12.6118 11.9644C12.3283 11.9644 12.1484 12.0025 12.0723 12.0787C12.0003 12.1548 11.9644 12.3326 11.9644 12.6119V14.2305C11.9601 14.4125 11.8966 14.567 11.7739 14.6939L10.6313 15.8365C10.4325 16.0354 10.333 16.1877 10.333 16.2935C10.333 16.3993 10.4325 16.5517 10.6313 16.7506L11.7739 17.8931C11.9009 18.0159 11.9644 18.1682 11.9644 18.3502V19.9752C11.9644 20.2502 12.0024 20.4258 12.0786 20.502C12.1548 20.5782 12.3325 20.6163 12.6118 20.6163ZM15.6143 19.3023C15.4915 19.3023 15.3794 19.2748 15.2778 19.2198C15.1805 19.1648 15.0874 19.0844 14.9985 18.9786L13.5322 17.2012C13.4137 17.0531 13.3545 16.9029 13.3545 16.7506C13.3545 16.5813 13.4137 16.4374 13.5322 16.3189C13.6507 16.2004 13.7925 16.1412 13.9575 16.1412C14.0591 16.1412 14.1501 16.1623 14.2305 16.2047C14.3109 16.247 14.3913 16.3168 14.4717 16.4141L15.6016 17.836L18.0073 13.9576C18.1512 13.7291 18.3311 13.6148 18.5469 13.6148C18.7077 13.6148 18.8516 13.6677 18.9785 13.7735C19.1055 13.8793 19.1689 14.0168 19.1689 14.1861C19.1689 14.258 19.152 14.3321 19.1182 14.4083C19.0885 14.4844 19.0505 14.5585 19.0039 14.6304L16.2173 18.9722C16.0692 19.1923 15.8682 19.3023 15.6143 19.3023Z" fill="#3730A3"/>
</svg>
