<svg width="24" height="24" viewBox="0 0 24 24" fill="none" xmlns="http://www.w3.org/2000/svg">
<path d="M7.15186 17.9653C6.44938 17.9653 5.91406 17.7834 5.5459 17.4194C5.18197 17.0597 5 16.5329 5 15.8389V8.12646C5 7.43245 5.18197 6.9056 5.5459 6.5459C5.91406 6.18197 6.44938 6 7.15186 6H15.9307C16.6331 6 17.1663 6.18197 17.5303 6.5459C17.8942 6.9056 18.0762 7.43245 18.0762 8.12646V15.8389C18.0762 16.5329 17.8942 17.0597 17.5303 17.4194C17.1663 17.7834 16.6331 17.9653 15.9307 17.9653H7.15186ZM7.18994 16.5562H15.8799C16.1338 16.5562 16.3285 16.4927 16.4639 16.3657C16.5993 16.2345 16.667 16.0356 16.667 15.769V9.99268C16.667 9.73031 16.5993 9.53564 16.4639 9.40869C16.3285 9.27751 16.1338 9.21191 15.8799 9.21191H7.18994C6.94027 9.21191 6.74772 9.27751 6.6123 9.40869C6.47689 9.53564 6.40918 9.73031 6.40918 9.99268V15.769C6.40918 16.0356 6.47689 16.2345 6.6123 16.3657C6.74772 16.4927 6.94027 16.5562 7.18994 16.5562ZM8.55469 13.8774C8.28385 13.8774 8.05322 13.7822 7.86279 13.5918C7.67236 13.4014 7.57715 13.1707 7.57715 12.8999C7.57715 12.6291 7.67236 12.3984 7.86279 12.208C8.05322 12.0176 8.28385 11.9224 8.55469 11.9224C8.82129 11.9224 9.0498 12.0176 9.24023 12.208C9.4349 12.3984 9.53223 12.6291 9.53223 12.8999C9.53223 13.1707 9.43701 13.4014 9.24658 13.5918C9.05615 13.7822 8.82552 13.8774 8.55469 13.8774ZM11.5444 13.8774C11.2778 13.8774 11.0472 13.7822 10.8525 13.5918C10.6621 13.4014 10.5669 13.1707 10.5669 12.8999C10.5669 12.6291 10.6621 12.3984 10.8525 12.208C11.0472 12.0176 11.2778 11.9224 11.5444 11.9224C11.811 11.9224 12.0396 12.0176 12.23 12.208C12.4246 12.3984 12.522 12.6291 12.522 12.8999C12.522 13.1707 12.4246 13.4014 12.23 13.5918C12.0396 13.7822 11.811 13.8774 11.5444 13.8774ZM14.5342 13.8774C14.2633 13.8774 14.0327 13.7822 13.8423 13.5918C13.6519 13.4014 13.5566 13.1707 13.5566 12.8999C13.5566 12.6291 13.6519 12.3984 13.8423 12.208C14.0327 12.0176 14.2633 11.9224 14.5342 11.9224C14.805 11.9224 15.0356 12.0176 15.2261 12.208C15.4165 12.3984 15.5117 12.6291 15.5117 12.8999C15.5117 13.1707 15.4165 13.4014 15.2261 13.5918C15.0356 13.7822 14.805 13.8774 14.5342 13.8774Z" fill="#6B7280"/>
</svg>
