<svg width="24" height="24" viewBox="0 0 24 24" fill="none" xmlns="http://www.w3.org/2000/svg">
<path d="M7.84375 10.6875C7.32747 10.6875 6.85352 10.5584 6.42188 10.3003C5.99023 10.0422 5.64535 9.69727 5.38721 9.26562C5.12907 8.83398 5 8.35791 5 7.8374C5 7.32113 5.12695 6.84717 5.38086 6.41553C5.639 5.98389 5.98389 5.64111 6.41553 5.38721C6.84717 5.12907 7.32324 5 7.84375 5C8.36426 5 8.83822 5.12907 9.26562 5.38721C9.69727 5.64111 10.0422 5.98389 10.3003 6.41553C10.5584 6.84717 10.6875 7.32113 10.6875 7.8374C10.6875 8.35791 10.5584 8.83398 10.3003 9.26562C10.0422 9.69727 9.69727 10.0422 9.26562 10.3003C8.83822 10.5584 8.36426 10.6875 7.84375 10.6875ZM7.84375 9.49414C8.14421 9.49414 8.41927 9.42008 8.66895 9.27197C8.91862 9.11963 9.11751 8.91862 9.26562 8.66895C9.41797 8.41504 9.49414 8.13786 9.49414 7.8374C9.49414 7.54118 9.41797 7.26823 9.26562 7.01855C9.11751 6.76465 8.91862 6.56364 8.66895 6.41553C8.41927 6.26318 8.14421 6.18701 7.84375 6.18701C7.54329 6.18701 7.26823 6.26318 7.01855 6.41553C6.76888 6.56364 6.56787 6.76465 6.41553 7.01855C6.26742 7.26823 6.19336 7.54118 6.19336 7.8374C6.19336 8.13786 6.26742 8.41504 6.41553 8.66895C6.56787 8.91862 6.76888 9.11963 7.01855 9.27197C7.26823 9.42008 7.54329 9.49414 7.84375 9.49414ZM7.84375 18.0381C7.32747 18.0381 6.85352 17.909 6.42188 17.6509C5.99023 17.3927 5.64535 17.0479 5.38721 16.6162C5.12907 16.1846 5 15.7106 5 15.1943C5 14.6781 5.12695 14.2041 5.38086 13.7725C5.639 13.3408 5.98389 12.9959 6.41553 12.7378C6.84717 12.4797 7.32324 12.3506 7.84375 12.3506C8.36426 12.3506 8.83822 12.4797 9.26562 12.7378C9.69727 12.9917 10.0422 13.3345 10.3003 13.7661C10.5584 14.1978 10.6875 14.6738 10.6875 15.1943C10.6875 15.7106 10.5584 16.1846 10.3003 16.6162C10.0422 17.0479 9.69727 17.3927 9.26562 17.6509C8.83822 17.909 8.36426 18.0381 7.84375 18.0381ZM7.84375 16.8511C8.14421 16.8511 8.41927 16.7749 8.66895 16.6226C8.91862 16.4702 9.11751 16.2692 9.26562 16.0195C9.41797 15.7699 9.49414 15.4948 9.49414 15.1943C9.49414 14.8939 9.41797 14.6188 9.26562 14.3691C9.11751 14.1152 8.91862 13.9142 8.66895 13.7661C8.41927 13.6138 8.14421 13.5376 7.84375 13.5376C7.54329 13.5376 7.26823 13.6138 7.01855 13.7661C6.76888 13.9142 6.56787 14.1152 6.41553 14.3691C6.26742 14.6188 6.19336 14.8939 6.19336 15.1943C6.19336 15.4948 6.26742 15.7699 6.41553 16.0195C6.56787 16.2692 6.76888 16.4702 7.01855 16.6226C7.26823 16.7749 7.54329 16.8511 7.84375 16.8511ZM12.8203 8.5166C12.6383 8.5166 12.4818 8.45101 12.3506 8.31982C12.2236 8.18441 12.1602 8.02572 12.1602 7.84375C12.1602 7.66178 12.2236 7.50521 12.3506 7.37402C12.4818 7.24284 12.6383 7.17725 12.8203 7.17725H19.1362C19.3267 7.17725 19.4854 7.24284 19.6123 7.37402C19.7435 7.50098 19.8091 7.65755 19.8091 7.84375C19.8091 8.02572 19.7435 8.18441 19.6123 8.31982C19.4811 8.45101 19.3224 8.5166 19.1362 8.5166H12.8203ZM12.8203 15.8608C12.6383 15.8608 12.4818 15.7952 12.3506 15.6641C12.2236 15.5286 12.1602 15.3721 12.1602 15.1943C12.1602 15.0124 12.2236 14.8558 12.3506 14.7246C12.4818 14.5892 12.6383 14.5215 12.8203 14.5215H19.1362C19.3267 14.5215 19.4854 14.5871 19.6123 14.7183C19.7435 14.8494 19.8091 15.0081 19.8091 15.1943C19.8091 15.3721 19.7435 15.5286 19.6123 15.6641C19.4811 15.7952 19.3224 15.8608 19.1362 15.8608H12.8203Z" fill="#4B5563"/>
</svg>
