<svg width="24" height="24" viewBox="0 0 24 24" fill="none" xmlns="http://www.w3.org/2000/svg">
<path d="M6.62988 10.6577C6.12207 10.6577 5.72005 10.5117 5.42383 10.2197C5.1276 9.92773 4.97949 9.52995 4.97949 9.02637V6.8999C4.97949 6.40055 5.1276 6.00488 5.42383 5.71289C5.72005 5.4209 6.12207 5.2749 6.62988 5.2749H17.3701C17.8779 5.2749 18.2799 5.4209 18.5762 5.71289C18.8724 6.00488 19.0205 6.40055 19.0205 6.8999V9.02637C19.0205 9.52995 18.8724 9.92773 18.5762 10.2197C18.2799 10.5117 17.8779 10.6577 17.3701 10.6577H6.62988ZM6.80127 9.32471H17.1924C17.349 9.32471 17.4696 9.28027 17.5542 9.19141C17.6431 9.09831 17.6875 8.97347 17.6875 8.81689V7.10938C17.6875 6.9528 17.6431 6.83008 17.5542 6.74121C17.4696 6.65234 17.349 6.60791 17.1924 6.60791H6.80127C6.64893 6.60791 6.52832 6.65234 6.43945 6.74121C6.35482 6.83008 6.3125 6.9528 6.3125 7.10938V8.81689C6.3125 8.97347 6.35482 9.09831 6.43945 9.19141C6.52832 9.28027 6.64893 9.32471 6.80127 9.32471ZM11.3779 12.2637V9.93408H12.6284V12.2637H11.3779ZM6.62988 16.8784C6.12207 16.8784 5.72005 16.7324 5.42383 16.4404C5.1276 16.1484 4.97949 15.7528 4.97949 15.2534V13.127C4.97949 12.6276 5.1276 12.2319 5.42383 11.9399C5.72005 11.6479 6.12207 11.502 6.62988 11.502H17.3701C17.8779 11.502 18.2799 11.6479 18.5762 11.9399C18.8724 12.2319 19.0205 12.6276 19.0205 13.127V15.2534C19.0205 15.7528 18.8724 16.1484 18.5762 16.4404C18.2799 16.7324 17.8779 16.8784 17.3701 16.8784H6.62988ZM6.80127 15.5518H17.1924C17.349 15.5518 17.4696 15.5073 17.5542 15.4185C17.6431 15.3296 17.6875 15.2069 17.6875 15.0503V13.3364C17.6875 13.1841 17.6431 13.0635 17.5542 12.9746C17.4696 12.8815 17.349 12.835 17.1924 12.835H6.80127C6.64893 12.835 6.52832 12.8815 6.43945 12.9746C6.35482 13.0635 6.3125 13.1841 6.3125 13.3364V15.0503C6.3125 15.2069 6.35482 15.3296 6.43945 15.4185C6.52832 15.5073 6.64893 15.5518 6.80127 15.5518ZM11.3779 18.3638V15.9644H12.6284V18.3638C12.6284 18.5373 12.5671 18.6833 12.4443 18.8018C12.3216 18.9245 12.1756 18.9858 12.0063 18.9858C11.8286 18.9858 11.6784 18.9245 11.5557 18.8018C11.4372 18.6833 11.3779 18.5373 11.3779 18.3638ZM11.6318 20.5347L10.0259 18.5986C9.85661 18.3955 9.81006 18.1945 9.88623 17.9956C9.96663 17.8009 10.1423 17.7036 10.4131 17.7036H13.606C13.8726 17.7036 14.0439 17.8031 14.1201 18.002C14.1963 18.2008 14.1519 18.3997 13.9868 18.5986L12.3936 20.5347C12.292 20.6616 12.165 20.7251 12.0127 20.7251C11.8646 20.7251 11.7376 20.6616 11.6318 20.5347Z" fill="#4B5563"/>
</svg>
