<svg width="24" height="24" viewBox="0 0 24 24" fill="none" xmlns="http://www.w3.org/2000/svg">
<path d="M8.49756 12.4839C8.34098 12.4839 8.20768 12.431 8.09766 12.3252C7.99186 12.2194 7.93896 12.0882 7.93896 11.9316C7.93896 11.7793 7.99186 11.6502 8.09766 11.5444C8.20768 11.4386 8.34098 11.3857 8.49756 11.3857H11.0684V7.86914C11.0684 7.71257 11.1213 7.58138 11.2271 7.47559C11.3328 7.36979 11.4619 7.31689 11.6143 7.31689C11.7708 7.31689 11.902 7.36979 12.0078 7.47559C12.1136 7.58138 12.1665 7.71257 12.1665 7.86914V11.9316C12.1665 12.0882 12.1136 12.2194 12.0078 12.3252C11.902 12.431 11.7708 12.4839 11.6143 12.4839H8.49756ZM11.6206 18.2412C10.7065 18.2412 9.84961 18.0677 9.0498 17.7207C8.25 17.3779 7.54541 16.904 6.93604 16.2988C6.33089 15.6937 5.85693 14.9912 5.51416 14.1914C5.17139 13.3916 5 12.5347 5 11.6206C5 10.7065 5.17139 9.84961 5.51416 9.0498C5.85693 8.25 6.33089 7.54753 6.93604 6.94238C7.54541 6.33301 8.25 5.85693 9.0498 5.51416C9.84961 5.17139 10.7065 5 11.6206 5C12.5347 5 13.3916 5.17139 14.1914 5.51416C14.9912 5.85693 15.6937 6.33301 16.2988 6.94238C16.904 7.54753 17.3779 8.25 17.7207 9.0498C18.0677 9.84961 18.2412 10.7065 18.2412 11.6206C18.2412 12.5347 18.0677 13.3916 17.7207 14.1914C17.3779 14.9912 16.904 15.6937 16.2988 16.2988C15.6937 16.904 14.9912 17.3779 14.1914 17.7207C13.3916 18.0677 12.5347 18.2412 11.6206 18.2412ZM11.6206 16.7876C12.3358 16.7876 13.0044 16.6543 13.6265 16.3877C14.2528 16.1211 14.8008 15.7508 15.2705 15.2769C15.7445 14.7987 16.1147 14.2485 16.3813 13.6265C16.6522 13.0002 16.7876 12.3315 16.7876 11.6206C16.7876 10.9054 16.6522 10.2368 16.3813 9.61475C16.1147 8.98844 15.7445 8.43831 15.2705 7.96436C14.8008 7.4904 14.2528 7.12012 13.6265 6.85352C13.0044 6.58691 12.3358 6.45361 11.6206 6.45361C10.9054 6.45361 10.2347 6.58691 9.6084 6.85352C8.98633 7.12012 8.43831 7.4904 7.96436 7.96436C7.4904 8.43831 7.12012 8.98844 6.85352 9.61475C6.58691 10.2368 6.45361 10.9054 6.45361 11.6206C6.45361 12.3315 6.58691 13.0002 6.85352 13.6265C7.12012 14.2485 7.4904 14.7987 7.96436 15.2769C8.43831 15.7508 8.98633 16.1211 9.6084 16.3877C10.2347 16.6543 10.9054 16.7876 11.6206 16.7876Z" fill="#4B5563"/>
</svg>
