<svg width="24" height="24" viewBox="0 0 24 24" fill="none" xmlns="http://www.w3.org/2000/svg">
<path d="M6.77393 18.8379C5.88525 18.8379 5.19971 18.5988 4.71729 18.1206C4.2391 17.6424 4 16.9569 4 16.064V7.78027C4 6.88737 4.2391 6.20182 4.71729 5.72363C5.19971 5.24121 5.88525 5 6.77393 5H12.271C13.1597 5 13.8431 5.24121 14.3213 5.72363C14.8037 6.20182 15.0449 6.88737 15.0449 7.78027V10.0718H13.6294V7.83105C13.6294 7.37826 13.5067 7.02913 13.2612 6.78369C13.0158 6.53825 12.6646 6.41553 12.2075 6.41553H6.83105C6.37826 6.41553 6.02702 6.53825 5.77734 6.78369C5.5319 7.02913 5.40918 7.37826 5.40918 7.83105V16.0132C5.40918 16.466 5.5319 16.8151 5.77734 17.0605C6.02702 17.306 6.37826 17.4287 6.83105 17.4287H12.2075C12.6646 17.4287 13.0158 17.306 13.2612 17.0605C13.5067 16.8151 13.6294 16.466 13.6294 16.0132V13.7661H15.0449V16.064C15.0449 16.9569 14.8037 17.6424 14.3213 18.1206C13.8431 18.5988 13.1597 18.8379 12.271 18.8379H6.77393ZM9.72559 11.9189C9.72559 11.7412 9.78906 11.5889 9.91602 11.4619C10.043 11.3307 10.1911 11.2651 10.3604 11.2651H16.6699L18.5806 11.3921C18.7244 11.4006 18.8472 11.4556 18.9487 11.5571C19.0545 11.6545 19.1074 11.7751 19.1074 11.9189C19.1074 12.0628 19.0545 12.1855 18.9487 12.2871C18.8472 12.3844 18.7244 12.4373 18.5806 12.4458L16.6699 12.5664H10.3604C10.1911 12.5664 10.043 12.5029 9.91602 12.376C9.78906 12.249 9.72559 12.0967 9.72559 11.9189ZM16.0923 9.72266C16.0923 9.56608 16.1431 9.43278 16.2446 9.32275C16.3504 9.2085 16.4816 9.15137 16.6382 9.15137C16.7905 9.15137 16.9281 9.21061 17.0508 9.3291L19.0503 11.4175C19.1349 11.5021 19.1921 11.5868 19.2217 11.6714C19.2555 11.7518 19.2725 11.8343 19.2725 11.9189C19.2725 12.0036 19.2555 12.0882 19.2217 12.1729C19.1921 12.2533 19.1349 12.3358 19.0503 12.4204L17.0508 14.5024C16.9281 14.6252 16.7905 14.6865 16.6382 14.6865C16.4816 14.6865 16.3504 14.6294 16.2446 14.5151C16.1431 14.4009 16.0923 14.2655 16.0923 14.1089C16.0923 13.9396 16.1536 13.7979 16.2764 13.6836L17.1841 12.833L18.3838 11.9189L17.1841 11.0049L16.2764 10.1543C16.1536 10.04 16.0923 9.89616 16.0923 9.72266Z" fill="#DC2626"/>
</svg>
