<svg width="24" height="24" viewBox="0 0 24 24" fill="none" xmlns="http://www.w3.org/2000/svg">
<path d="M13.2949 18.7698C12.9818 18.7698 12.7469 18.6619 12.5903 18.446C12.438 18.2302 12.3153 17.9594 12.2222 17.6335L10.8955 13.1077L6.31885 11.762C6.00146 11.6689 5.7391 11.5461 5.53174 11.3938C5.32861 11.2415 5.22705 11.0108 5.22705 10.7019C5.22705 10.448 5.31803 10.2322 5.5 10.0544C5.6862 9.87248 5.91895 9.7286 6.19824 9.6228L17.2495 5.38892C17.3892 5.33813 17.5203 5.30005 17.6431 5.27466C17.7658 5.24504 17.88 5.23022 17.9858 5.23022C18.2271 5.23022 18.4175 5.30005 18.5571 5.4397C18.701 5.57935 18.7729 5.76978 18.7729 6.01099C18.7729 6.11678 18.7581 6.23104 18.7285 6.35376C18.6989 6.47648 18.6587 6.60767 18.6079 6.74731L14.3931 17.7542C14.2746 18.0631 14.1243 18.3085 13.9424 18.4905C13.7646 18.6767 13.5488 18.7698 13.2949 18.7698ZM11.3145 11.8127L14.8057 8.32788C15.013 8.12476 15.25 7.91105 15.5166 7.68677C15.7832 7.46248 16.0392 7.25301 16.2847 7.05835C15.9631 7.20646 15.6584 7.34611 15.3706 7.47729C15.0871 7.60425 14.8035 7.72274 14.52 7.83276L7.61377 10.4861C7.57568 10.4988 7.54818 10.5157 7.53125 10.5369C7.51855 10.5538 7.51221 10.5707 7.51221 10.5876C7.51221 10.6088 7.52067 10.6278 7.5376 10.6448C7.55452 10.6617 7.58415 10.6744 7.62646 10.6829L11.3145 11.8127ZM13.4155 16.491C13.4325 16.491 13.4494 16.4825 13.4663 16.4656C13.4832 16.4486 13.498 16.4211 13.5107 16.3831L16.1641 9.47681C16.2741 9.18905 16.3947 8.9034 16.5259 8.61987C16.6571 8.33211 16.7967 8.02531 16.9448 7.69946C16.7544 7.94067 16.5428 8.20093 16.3101 8.48022C16.0815 8.75529 15.8678 8.99227 15.6689 9.19116L12.1841 12.6887L13.314 16.3704C13.3267 16.4127 13.3394 16.4423 13.3521 16.4592C13.369 16.4804 13.3901 16.491 13.4155 16.491Z" fill="white"/>
</svg>
