<svg width="24" height="24" viewBox="0 0 24 24" fill="none" xmlns="http://www.w3.org/2000/svg">
<path d="M11.3223 18.9268C11.0472 18.9268 10.8081 18.8464 10.605 18.6855C10.4019 18.529 10.2707 18.3195 10.2114 18.0571L9.95752 16.978L9.81787 16.9336L8.88477 17.5049C8.64779 17.6488 8.40234 17.7038 8.14844 17.6699C7.89453 17.6361 7.67025 17.5218 7.47559 17.3271L6.58057 16.4385C6.38167 16.2396 6.26742 16.0132 6.23779 15.7593C6.20817 15.5011 6.2653 15.2578 6.40918 15.0293L6.98682 14.1025L6.93604 13.9692L5.86963 13.7153C5.60726 13.6561 5.39567 13.5249 5.23486 13.3218C5.07829 13.1144 5 12.8732 5 12.5981V11.354C5 11.0789 5.07829 10.8398 5.23486 10.6367C5.39144 10.4336 5.60303 10.3003 5.86963 10.2368L6.92969 9.97656L6.98047 9.83691L6.40283 8.91016C6.25895 8.68164 6.20182 8.44043 6.23145 8.18652C6.26107 7.92839 6.37744 7.69987 6.58057 7.50098L7.46924 6.60596C7.6639 6.41553 7.88818 6.30339 8.14209 6.26953C8.396 6.23145 8.63932 6.28434 8.87207 6.42822L9.80518 7.00586L9.95752 6.94873L10.2114 5.86963C10.2707 5.61149 10.4019 5.40202 10.605 5.24121C10.8081 5.0804 11.0472 5 11.3223 5H12.6172C12.8923 5 13.1313 5.0804 13.3345 5.24121C13.5376 5.39779 13.6688 5.60726 13.728 5.86963L13.9756 6.94873L14.1279 7.00586L15.0674 6.42822C15.2959 6.28434 15.5371 6.23145 15.791 6.26953C16.0492 6.30339 16.2734 6.41553 16.4639 6.60596L17.3589 7.50098C17.562 7.69987 17.6763 7.92839 17.7017 8.18652C17.7313 8.44043 17.6763 8.68164 17.5366 8.91016L16.9526 9.83691L17.0098 9.97656L18.0698 10.2368C18.3322 10.3003 18.5417 10.4336 18.6982 10.6367C18.859 10.8398 18.9395 11.0789 18.9395 11.354V12.5981C18.9395 12.8732 18.859 13.1144 18.6982 13.3218C18.5417 13.5249 18.3322 13.6561 18.0698 13.7153L17.0034 13.9692L16.9463 14.1025L17.5303 15.0293C17.6742 15.2578 17.7313 15.5011 17.7017 15.7593C17.672 16.0132 17.5578 16.2396 17.3589 16.4385L16.4639 17.3271C16.2692 17.5218 16.0428 17.6361 15.7847 17.6699C15.5308 17.7038 15.2896 17.6488 15.061 17.5049L14.1216 16.9336L13.9756 16.978L13.728 18.0571C13.6688 18.3195 13.5376 18.529 13.3345 18.6855C13.1313 18.8464 12.8923 18.9268 12.6172 18.9268H11.3223ZM11.5254 17.6572H12.4141C12.5156 17.6572 12.5728 17.6086 12.5854 17.5112L12.9663 15.9561C13.1821 15.9095 13.3853 15.846 13.5757 15.7656C13.7661 15.6852 13.946 15.5921 14.1152 15.4863L15.4736 16.3179C15.5583 16.3771 15.6344 16.3687 15.7021 16.2925L16.3242 15.6704C16.3919 15.6069 16.3983 15.5329 16.3433 15.4482L15.5054 14.0898C15.6027 13.929 15.6916 13.7513 15.772 13.5566C15.8524 13.3577 15.918 13.1567 15.9688 12.9536L17.5303 12.5854C17.6234 12.5685 17.6699 12.5093 17.6699 12.4077V11.5381C17.6699 11.4408 17.6234 11.3836 17.5303 11.3667L15.9688 10.9858C15.9222 10.7743 15.8566 10.5711 15.772 10.3765C15.6873 10.1776 15.6006 10.002 15.5117 9.84961L16.3496 8.49121C16.4046 8.40658 16.3983 8.3304 16.3306 8.2627L15.7085 7.64697C15.6366 7.5835 15.5583 7.57503 15.4736 7.62158L14.1152 8.44678C13.9502 8.34945 13.7703 8.25846 13.5757 8.17383C13.3853 8.08919 13.1821 8.0236 12.9663 7.97705L12.5854 6.41553C12.5728 6.3182 12.5156 6.26953 12.4141 6.26953H11.5254C11.4238 6.26953 11.3646 6.3182 11.3477 6.41553L10.9795 7.96436C10.7679 8.01514 10.5563 8.08496 10.3447 8.17383C10.1374 8.25846 9.95964 8.34733 9.81152 8.44043L8.45947 7.61523C8.37061 7.56868 8.29232 7.57926 8.22461 7.64697L7.59619 8.25635C7.53271 8.32406 7.52848 8.40234 7.5835 8.49121L8.42139 9.84961C8.33252 10.002 8.24577 10.1776 8.16113 10.3765C8.0765 10.5711 8.0109 10.7764 7.96436 10.9922L6.40918 11.3667C6.31608 11.3836 6.26953 11.4408 6.26953 11.5381V12.4077C6.26953 12.5093 6.31608 12.5685 6.40918 12.5854L7.9707 12.9536C8.01725 13.161 8.08073 13.362 8.16113 13.5566C8.24154 13.7471 8.3304 13.9248 8.42773 14.0898L7.5835 15.4482C7.53695 15.5371 7.54541 15.6133 7.60889 15.6768L8.23096 16.2988C8.29867 16.3708 8.37484 16.3792 8.45947 16.3242L9.82422 15.4863C9.98926 15.5921 10.1691 15.6873 10.3638 15.772C10.5627 15.8524 10.7658 15.9137 10.9731 15.9561L11.3477 17.5112C11.3646 17.6086 11.4238 17.6572 11.5254 17.6572ZM11.9697 14.3628C11.5254 14.3628 11.1213 14.2549 10.7573 14.0391C10.3934 13.8232 10.1035 13.5334 9.8877 13.1694C9.67611 12.8055 9.57031 12.4035 9.57031 11.9634C9.57031 11.519 9.67611 11.117 9.8877 10.7573C10.1035 10.3934 10.3934 10.1035 10.7573 9.8877C11.1213 9.67188 11.5254 9.56396 11.9697 9.56396C12.4098 9.56396 12.8097 9.67188 13.1694 9.8877C13.5334 10.1035 13.8232 10.3934 14.0391 10.7573C14.2549 11.117 14.3628 11.519 14.3628 11.9634C14.3628 12.4035 14.2549 12.8055 14.0391 13.1694C13.8232 13.5334 13.5334 13.8232 13.1694 14.0391C12.8097 14.2549 12.4098 14.3628 11.9697 14.3628ZM11.9697 13.1948C12.194 13.1948 12.3993 13.1398 12.5854 13.0298C12.7716 12.9198 12.9198 12.7716 13.0298 12.5854C13.1398 12.395 13.1948 12.1877 13.1948 11.9634C13.1948 11.7349 13.1398 11.5275 13.0298 11.3413C12.9198 11.1551 12.7716 11.007 12.5854 10.897C12.3993 10.7869 12.194 10.7319 11.9697 10.7319C11.7412 10.7319 11.5339 10.7869 11.3477 10.897C11.1615 11.007 11.0133 11.1551 10.9033 11.3413C10.7933 11.5275 10.7383 11.7349 10.7383 11.9634C10.7383 12.1877 10.7933 12.395 10.9033 12.5854C11.0133 12.7716 11.1615 12.9198 11.3477 13.0298C11.5339 13.1398 11.7412 13.1948 11.9697 13.1948Z" fill="#4B5563"/>
</svg>
