<svg width="24" height="24" viewBox="0 0 24 24" fill="none" xmlns="http://www.w3.org/2000/svg">
<path d="M12.0032 6.57276C12.8749 6.57276 13.6959 6.67856 14.4661 6.89015C15.2405 7.0975 15.9535 7.37257 16.6052 7.71534C17.2569 8.05812 17.8388 8.43686 18.3508 8.85157C18.8629 9.26629 19.2966 9.681 19.6521 10.0957C20.0118 10.5104 20.2847 10.8955 20.4709 11.251C20.6614 11.6022 20.7566 11.8858 20.7566 12.1016C20.7566 12.347 20.6402 12.675 20.4075 13.0855C20.1747 13.4959 19.8362 13.9403 19.3918 14.4185C18.9475 14.8924 18.4122 15.3452 17.7859 15.7769L16.7258 14.7168C17.0855 14.4756 17.4093 14.2259 17.697 13.9678C17.989 13.7096 18.2366 13.4621 18.4397 13.2251C18.6428 12.9839 18.7973 12.766 18.9031 12.5713C19.0131 12.3766 19.0681 12.2201 19.0681 12.1016C19.0681 11.9789 18.9856 11.7948 18.8206 11.5493C18.6555 11.3039 18.4207 11.0246 18.116 10.7114C17.8113 10.3941 17.4452 10.0767 17.0178 9.75929C16.5904 9.43767 16.1143 9.14145 15.5896 8.87062C15.0649 8.59555 14.4999 8.3755 13.8948 8.21046C13.2896 8.04119 12.6591 7.95655 12.0032 7.95655C11.6858 7.95655 11.3769 7.97983 11.0764 8.02638C10.7802 8.06869 10.4924 8.12794 10.2131 8.20411L9.05151 7.04884C9.50431 6.90496 9.97616 6.7907 10.467 6.70606C10.9579 6.6172 11.47 6.57276 12.0032 6.57276ZM12.0032 17.6367C11.1357 17.6367 10.3189 17.5309 9.55298 17.3193C8.78703 17.112 8.07821 16.8369 7.42651 16.4942C6.77482 16.1514 6.19084 15.7726 5.67456 15.3579C5.16252 14.9432 4.72453 14.5285 4.3606 14.1138C3.99666 13.6991 3.71948 13.3161 3.52905 12.9649C3.33862 12.6094 3.24341 12.3216 3.24341 12.1016C3.24341 11.9196 3.31323 11.6869 3.45288 11.4033C3.59253 11.1156 3.79565 10.8003 4.06226 10.4575C4.33309 10.1105 4.65894 9.75717 5.03979 9.39747C5.42489 9.03777 5.86287 8.69288 6.35376 8.3628L7.42651 9.4419C7.04142 9.69581 6.69442 9.95818 6.3855 10.229C6.08081 10.4956 5.81844 10.7538 5.59839 11.0034C5.38257 11.2531 5.21753 11.4753 5.10327 11.6699C4.98901 11.8604 4.93188 12.0042 4.93188 12.1016C4.93188 12.2497 5.01229 12.4528 5.1731 12.7109C5.33813 12.9691 5.573 13.2547 5.87769 13.5679C6.1866 13.881 6.55265 14.1963 6.97583 14.5137C7.40324 14.8268 7.87931 15.1167 8.40405 15.3833C8.92879 15.6457 9.49373 15.8573 10.0989 16.0181C10.704 16.1789 11.3388 16.2593 12.0032 16.2593C12.3459 16.2593 12.6824 16.2339 13.0125 16.1831C13.3425 16.1323 13.6599 16.0625 13.9646 15.9736L15.1135 17.1226C14.6396 17.2834 14.1423 17.4082 13.6218 17.4971C13.1013 17.5902 12.5618 17.6367 12.0032 17.6367ZM12.0032 8.7881C12.4644 8.7881 12.8961 8.87273 13.2981 9.042C13.7001 9.21127 14.0535 9.44825 14.3582 9.75294C14.6628 10.0534 14.8998 10.4046 15.0691 10.8067C15.2426 11.2087 15.3293 11.6403 15.3293 12.1016C15.3293 12.2835 15.3124 12.4613 15.2786 12.6348C15.2447 12.804 15.196 12.9691 15.1326 13.1299L10.9749 8.97218C11.1357 8.91716 11.3007 8.87273 11.47 8.83888C11.6435 8.80502 11.8212 8.7881 12.0032 8.7881ZM12.0032 15.4214C11.5377 15.4214 11.1039 15.3346 10.7019 15.1611C10.2999 14.9876 9.94653 14.7485 9.64185 14.4439C9.33716 14.1349 9.09806 13.7795 8.92456 13.3775C8.75529 12.9754 8.67065 12.5501 8.67065 12.1016C8.67065 11.8942 8.69181 11.6911 8.73413 11.4922C8.77645 11.2933 8.83569 11.105 8.91187 10.9273L13.1711 15.1802C12.9934 15.2564 12.8051 15.3156 12.6062 15.3579C12.4115 15.4002 12.2105 15.4214 12.0032 15.4214ZM17.0623 17.7827L6.20776 6.93458C6.1062 6.83725 6.05542 6.71664 6.05542 6.57276C6.05542 6.42465 6.1062 6.30193 6.20776 6.2046C6.30933 6.10304 6.43205 6.05437 6.57593 6.0586C6.71981 6.0586 6.84253 6.10727 6.94409 6.2046L17.7986 17.0527C17.9001 17.1543 17.9509 17.2728 17.9509 17.4082C17.9552 17.5479 17.9044 17.6727 17.7986 17.7827C17.697 17.8928 17.5743 17.9456 17.4304 17.9414C17.2908 17.9372 17.168 17.8843 17.0623 17.7827Z" fill="#4B5563"/>
</svg>
