<svg width="24" height="24" viewBox="0 0 24 24" fill="none" xmlns="http://www.w3.org/2000/svg">
<path d="M12.0029 17.532C11.1354 17.532 10.3187 17.4262 9.55273 17.2146C8.78678 17.0072 8.07796 16.7322 7.42627 16.3894C6.77458 16.0466 6.19059 15.6679 5.67432 15.2532C5.16227 14.8385 4.72428 14.4237 4.36035 14.009C3.99642 13.5943 3.71924 13.2113 3.52881 12.8601C3.33838 12.5046 3.24316 12.2169 3.24316 11.9968C3.24316 11.781 3.33838 11.4975 3.52881 11.1462C3.71924 10.7908 3.99642 10.4057 4.36035 9.99097C4.72428 9.57625 5.16227 9.16154 5.67432 8.74683C6.19059 8.33211 6.77458 7.95337 7.42627 7.6106C8.07796 7.26782 8.78678 6.99276 9.55273 6.7854C10.3229 6.57381 11.1396 6.46802 12.0029 6.46802C12.8747 6.46802 13.6956 6.57381 14.4658 6.7854C15.2402 6.99276 15.9533 7.26782 16.605 7.6106C17.2567 7.95337 17.8385 8.33211 18.3506 8.74683C18.8626 9.16154 19.2964 9.57625 19.6519 9.99097C20.0116 10.4057 20.2845 10.7908 20.4707 11.1462C20.6611 11.4975 20.7563 11.781 20.7563 11.9968C20.7563 12.2169 20.6611 12.5046 20.4707 12.8601C20.2845 13.2113 20.0116 13.5943 19.6519 14.009C19.2964 14.4237 18.8626 14.8385 18.3506 15.2532C17.8385 15.6679 17.2567 16.0466 16.605 16.3894C15.9575 16.7322 15.2466 17.0072 14.4722 17.2146C13.702 17.4262 12.8789 17.532 12.0029 17.532ZM12.0029 16.1545C12.6589 16.1545 13.2894 16.0741 13.8945 15.9133C14.4997 15.7525 15.0646 15.5409 15.5894 15.2786C16.1141 15.012 16.5902 14.7221 17.0176 14.4089C17.445 14.0916 17.811 13.7763 18.1157 13.4631C18.4204 13.15 18.6553 12.8643 18.8203 12.6062C18.9854 12.3481 19.0679 12.1449 19.0679 11.9968C19.0679 11.8741 18.9854 11.69 18.8203 11.4446C18.6553 11.1991 18.4204 10.9198 18.1157 10.6067C17.811 10.2893 17.445 9.97192 17.0176 9.65454C16.5902 9.33293 16.1141 9.0367 15.5894 8.76587C15.0646 8.4908 14.4997 8.27075 13.8945 8.10571C13.2894 7.93644 12.6589 7.85181 12.0029 7.85181C11.3385 7.85181 10.7038 7.93644 10.0986 8.10571C9.49349 8.27075 8.92855 8.4908 8.40381 8.76587C7.87907 9.0367 7.40299 9.33293 6.97559 9.65454C6.55241 9.97192 6.18636 10.2893 5.87744 10.6067C5.57275 10.9198 5.33789 11.1991 5.17285 11.4446C5.01204 11.69 4.93164 11.8741 4.93164 11.9968C4.93164 12.1449 5.01204 12.3481 5.17285 12.6062C5.33789 12.8643 5.57275 13.15 5.87744 13.4631C6.18636 13.7763 6.55241 14.0916 6.97559 14.4089C7.40299 14.7221 7.87907 15.012 8.40381 15.2786C8.92855 15.5409 9.49349 15.7525 10.0986 15.9133C10.7038 16.0741 11.3385 16.1545 12.0029 16.1545ZM12.0029 15.3103C11.5459 15.3103 11.1143 15.2257 10.708 15.0564C10.306 14.8829 9.95264 14.6438 9.64795 14.3391C9.34326 14.0344 9.10417 13.6811 8.93066 13.2791C8.76139 12.8728 8.67676 12.4433 8.67676 11.9905C8.67676 11.5292 8.76139 11.0976 8.93066 10.6956C9.10417 10.2935 9.34326 9.9423 9.64795 9.64185C9.95264 9.33716 10.306 9.10018 10.708 8.93091C11.1143 8.75741 11.5459 8.67065 12.0029 8.67065C12.4642 8.67065 12.8937 8.75741 13.2915 8.93091C13.6935 9.10018 14.0469 9.33716 14.3516 9.64185C14.6605 9.9423 14.8996 10.2935 15.0688 10.6956C15.2424 11.0976 15.3291 11.5292 15.3291 11.9905C15.3291 12.4433 15.2424 12.8728 15.0688 13.2791C14.8996 13.6811 14.6605 14.0344 14.3516 14.3391C14.0469 14.6438 13.6935 14.8829 13.2915 15.0564C12.8937 15.2257 12.4642 15.3103 12.0029 15.3103ZM11.9966 13.0505C12.2886 13.0505 12.5361 12.9469 12.7393 12.7395C12.9466 12.5321 13.0503 12.2846 13.0503 11.9968C13.0503 11.7048 12.9466 11.4573 12.7393 11.2542C12.5361 11.0468 12.2886 10.9431 11.9966 10.9431C11.7088 10.9431 11.4634 11.0468 11.2603 11.2542C11.0571 11.4573 10.9556 11.7048 10.9556 11.9968C10.9556 12.2846 11.0571 12.5321 11.2603 12.7395C11.4634 12.9469 11.7088 13.0505 11.9966 13.0505Z" fill="#4B5563"/>
</svg>
